<svg
 xmlns="http://www.w3.org/2000/svg"
 xmlns:xlink="http://www.w3.org/1999/xlink"
 width="1135px" height="238px">
<path fill-rule="evenodd"  stroke="rgb(160, 176, 185)" stroke-width="2px" stroke-dasharray="8, 4" stroke-linecap="butt" stroke-linejoin="miter" fill="none"
 d="M765.000,105.000 C765.000,105.000 878.000,-73.298 1070.000,83.000 "/>
<path fill-rule="evenodd"  fill="rgb(201, 211, 217)"
 d="M821.474,61.000 C820.972,61.000 820.478,60.962 819.992,60.895 C819.491,60.963 818.997,61.000 818.526,61.000 C815.873,61.000 813.411,60.037 811.383,58.401 C811.354,58.379 811.324,58.360 811.300,58.332 C810.437,57.624 809.654,56.794 808.971,55.861 C808.951,55.841 808.937,55.816 808.920,55.793 C808.245,54.860 807.670,53.828 807.213,52.718 C807.204,52.700 807.198,52.682 807.191,52.662 C806.428,50.791 806.000,48.703 806.000,46.500 C806.000,45.092 806.177,43.732 806.503,42.445 C806.509,42.390 806.519,42.337 806.541,42.290 C806.764,41.437 807.056,40.618 807.405,39.840 C807.414,39.814 807.425,39.791 807.438,39.767 C807.945,38.653 808.572,37.624 809.301,36.704 C809.320,36.678 809.337,36.653 809.360,36.632 C811.649,33.785 814.910,32.000 818.526,32.000 C818.997,32.000 819.491,32.037 819.992,32.105 C820.478,32.038 820.972,32.000 821.474,32.000 C828.381,32.000 834.000,38.505 834.000,46.500 C834.000,54.496 828.381,61.000 821.474,61.000 ZM816.440,59.780 C816.385,59.751 816.332,59.717 816.275,59.687 C816.119,59.605 815.965,59.519 815.812,59.429 C815.719,59.374 815.626,59.321 815.534,59.264 C815.337,59.140 815.142,59.010 814.951,58.875 C814.845,58.799 814.741,58.719 814.636,58.641 C814.574,58.593 814.512,58.548 814.450,58.500 L813.262,58.500 C814.249,59.095 815.314,59.538 816.440,59.780 ZM811.843,57.500 L813.321,57.500 C813.280,57.460 813.242,57.416 813.202,57.376 C813.106,57.277 813.011,57.177 812.917,57.075 C812.826,56.977 812.734,56.878 812.645,56.776 C812.489,56.596 812.336,56.411 812.188,56.221 C812.131,56.148 812.076,56.074 812.020,56.000 L810.335,56.000 C810.799,56.548 811.304,57.051 811.843,57.500 ZM809.573,55.000 L811.335,55.000 C811.243,54.854 811.152,54.707 811.065,54.557 C811.024,54.486 810.985,54.413 810.946,54.341 C810.837,54.146 810.731,53.947 810.630,53.746 C810.594,53.672 810.557,53.600 810.521,53.526 C810.438,53.353 810.359,53.177 810.282,53.000 L808.421,53.000 C808.755,53.708 809.139,54.377 809.573,55.000 ZM807.993,51.999 L809.887,51.999 C809.867,51.945 809.849,51.890 809.831,51.835 C809.809,51.774 809.788,51.713 809.768,51.651 C809.670,51.355 809.579,51.055 809.498,50.750 C809.492,50.728 809.487,50.706 809.482,50.685 C809.466,50.623 809.451,50.561 809.436,50.500 L809.436,50.499 L807.511,50.499 C807.647,51.013 807.807,51.514 807.993,51.999 ZM807.281,49.500 L809.219,49.500 C809.169,49.227 809.125,48.951 809.088,48.673 C809.086,48.658 809.085,48.642 809.083,48.628 C809.057,48.419 809.033,48.211 809.014,48.000 L807.061,48.000 C807.110,48.510 807.185,49.009 807.281,49.500 ZM806.982,46.500 C806.982,46.668 806.996,46.833 807.002,47.000 L808.958,47.000 C808.953,46.834 808.947,46.668 808.947,46.500 C808.947,46.172 808.960,45.847 808.978,45.524 C808.979,45.516 808.979,45.508 808.979,45.500 L807.021,45.500 C807.000,45.831 806.982,46.163 806.982,46.500 ZM807.379,43.000 C807.266,43.489 807.184,43.991 807.120,44.500 L809.069,44.500 C809.075,44.458 809.078,44.415 809.083,44.373 C809.085,44.357 809.086,44.341 809.088,44.326 C809.130,44.006 809.184,43.689 809.244,43.375 C809.256,43.309 809.270,43.244 809.283,43.179 C809.295,43.120 809.306,43.059 809.319,43.000 L807.379,43.000 ZM807.649,42.000 L809.568,42.000 C809.630,41.780 809.696,41.564 809.767,41.348 C809.787,41.287 809.809,41.226 809.830,41.164 C809.907,40.940 809.988,40.719 810.075,40.500 L808.195,40.500 C807.988,40.984 807.805,41.484 807.649,42.000 ZM809.942,37.500 C809.467,38.119 809.039,38.786 808.667,39.500 L810.508,39.500 C810.512,39.491 810.517,39.482 810.521,39.474 C810.557,39.399 810.594,39.327 810.630,39.254 C810.731,39.052 810.837,38.853 810.946,38.658 C810.985,38.586 811.024,38.513 811.065,38.443 C811.199,38.211 811.340,37.984 811.485,37.763 C811.542,37.674 811.603,37.588 811.663,37.500 L809.942,37.500 ZM812.499,35.000 C811.891,35.438 811.322,35.942 810.794,36.500 L812.416,36.500 C812.492,36.408 812.567,36.315 812.645,36.224 C812.734,36.123 812.826,36.024 812.917,35.924 C813.010,35.823 813.106,35.723 813.202,35.624 C813.299,35.526 813.396,35.426 813.496,35.330 C813.614,35.217 813.735,35.108 813.857,35.000 L812.499,35.000 ZM814.191,34.000 L815.137,34.000 C815.268,33.910 815.400,33.821 815.535,33.736 C815.626,33.680 815.720,33.626 815.813,33.572 C815.966,33.482 816.120,33.396 816.276,33.312 C816.332,33.283 816.385,33.249 816.440,33.220 C815.659,33.388 814.909,33.658 814.191,34.000 ZM821.474,33.000 C821.084,33.000 820.698,33.024 820.316,33.067 L820.121,33.096 C820.097,33.098 820.073,33.102 820.049,33.106 C819.878,33.130 819.709,33.160 819.540,33.193 C819.528,33.195 819.517,33.197 819.504,33.200 C819.340,33.233 819.177,33.269 819.015,33.311 C818.994,33.316 818.973,33.322 818.951,33.328 C818.799,33.367 818.649,33.409 818.499,33.456 C818.459,33.469 818.420,33.483 818.380,33.496 C818.250,33.538 818.121,33.581 817.992,33.628 C817.902,33.662 817.813,33.700 817.723,33.735 C817.646,33.767 817.569,33.795 817.493,33.828 C814.853,34.965 812.663,37.201 811.330,40.060 C811.319,40.085 811.307,40.111 811.295,40.138 C811.224,40.294 811.154,40.451 811.088,40.612 C811.062,40.674 811.038,40.738 811.013,40.801 C810.963,40.925 810.913,41.051 810.867,41.178 C810.837,41.258 810.809,41.340 810.781,41.421 C810.741,41.534 810.703,41.646 810.667,41.758 C810.637,41.849 810.610,41.942 810.581,42.033 C810.549,42.139 810.518,42.246 810.488,42.353 C810.461,42.450 810.436,42.548 810.411,42.647 C810.384,42.752 810.358,42.857 810.334,42.964 C810.311,43.065 810.288,43.166 810.266,43.267 C810.244,43.374 810.223,43.481 810.203,43.589 C810.183,43.691 810.164,43.793 810.147,43.896 C810.129,44.007 810.112,44.120 810.096,44.231 C810.082,44.332 810.066,44.432 810.054,44.533 C810.039,44.654 810.027,44.775 810.014,44.896 C810.004,44.991 809.994,45.084 809.986,45.180 C809.974,45.318 809.966,45.459 809.958,45.599 C809.954,45.678 809.948,45.756 809.944,45.835 C809.935,46.055 809.930,46.277 809.930,46.500 C809.930,46.723 809.935,46.945 809.946,47.163 C809.949,47.242 809.955,47.320 809.960,47.399 C809.968,47.539 809.975,47.680 809.987,47.818 C809.995,47.914 810.006,48.007 810.016,48.102 C810.028,48.223 810.040,48.344 810.055,48.465 C810.068,48.566 810.083,48.666 810.097,48.767 C810.114,48.879 810.130,48.991 810.148,49.102 C810.166,49.204 810.185,49.307 810.204,49.409 C810.225,49.517 810.245,49.624 810.268,49.731 C810.289,49.832 810.311,49.934 810.335,50.034 C810.360,50.141 810.385,50.247 810.412,50.351 C810.437,50.450 810.463,50.548 810.490,50.645 C810.520,50.752 810.551,50.859 810.583,50.965 C810.610,51.057 810.638,51.150 810.668,51.241 C810.704,51.355 810.743,51.466 810.782,51.578 C810.810,51.659 810.838,51.741 810.868,51.822 C810.914,51.949 810.963,52.074 811.013,52.199 C811.039,52.262 811.063,52.325 811.089,52.388 C811.155,52.548 811.225,52.706 811.296,52.862 C811.308,52.888 811.320,52.914 811.331,52.940 C812.664,55.798 814.853,58.034 817.494,59.172 C817.570,59.205 817.647,59.233 817.724,59.264 C817.813,59.300 817.902,59.337 817.993,59.371 C818.121,59.418 818.251,59.461 818.381,59.504 C818.421,59.516 818.460,59.531 818.500,59.544 C818.650,59.590 818.800,59.632 818.952,59.672 C818.973,59.677 818.994,59.684 819.016,59.689 C819.178,59.730 819.341,59.767 819.505,59.800 C819.517,59.802 819.529,59.804 819.541,59.807 C819.710,59.840 819.879,59.869 820.050,59.894 C820.074,59.897 820.098,59.900 820.122,59.904 L820.317,59.932 C820.698,59.977 821.084,60.000 821.474,60.000 C827.839,60.000 833.018,53.944 833.018,46.500 C833.018,39.056 827.839,33.000 821.474,33.000 ZM831.179,47.496 C831.159,47.759 830.945,47.958 830.690,47.958 C830.678,47.958 830.665,47.957 830.652,47.957 C830.381,47.936 830.179,47.695 830.200,47.420 C830.223,47.118 830.234,46.808 830.234,46.500 C830.234,46.224 830.454,45.984 830.725,45.984 C830.997,45.984 831.217,46.192 831.217,46.468 L831.217,46.500 C831.217,46.834 831.204,47.169 831.179,47.496 ZM830.487,44.009 C830.446,44.019 830.407,44.025 830.367,44.025 C830.147,44.025 829.946,43.873 829.891,43.646 C829.815,43.341 829.726,43.035 829.626,42.737 C829.538,42.476 829.675,42.191 829.931,42.101 C830.188,42.012 830.467,42.151 830.556,42.412 C830.665,42.737 830.762,43.070 830.844,43.403 C830.910,43.671 830.750,43.942 830.487,44.009 ZM830.268,49.891 C830.525,49.980 830.663,50.263 830.576,50.524 C830.468,50.850 830.345,51.174 830.211,51.489 C830.130,51.677 829.950,51.789 829.760,51.789 C829.695,51.789 829.628,51.777 829.564,51.748 C829.316,51.638 829.201,51.343 829.310,51.090 C829.433,50.801 829.546,50.504 829.645,50.205 C829.732,49.943 830.011,49.801 830.268,49.891 ZM828.794,40.418 C828.637,40.418 828.482,40.342 828.387,40.199 C828.214,39.939 828.027,39.685 827.832,39.442 C827.660,39.229 827.690,38.914 827.899,38.738 C828.109,38.563 828.418,38.594 828.591,38.807 C828.805,39.073 829.011,39.352 829.201,39.638 C829.353,39.866 829.294,40.178 829.070,40.332 C828.985,40.390 828.889,40.418 828.794,40.418 ZM828.561,53.438 C828.772,53.612 828.804,53.927 828.632,54.142 C828.417,54.410 828.188,54.670 827.951,54.914 C827.855,55.014 827.729,55.063 827.602,55.063 C827.477,55.063 827.352,55.015 827.257,54.918 C827.063,54.724 827.061,54.408 827.252,54.211 C827.468,53.989 827.675,53.753 827.870,53.510 C828.041,53.296 828.350,53.264 828.561,53.438 ZM823.498,52.072 L817.884,52.072 C817.586,52.072 817.394,51.876 817.394,51.573 C817.394,51.271 817.587,51.075 817.884,51.075 L819.023,51.075 L819.023,49.228 L817.544,49.228 C817.274,49.228 817.053,49.004 817.053,48.729 C817.053,48.454 817.274,48.229 817.544,48.229 L819.023,48.229 L819.022,40.974 L817.884,40.975 C817.587,40.975 817.395,40.779 817.395,40.476 C817.395,40.174 817.587,39.978 817.884,39.978 L822.847,39.978 C823.778,39.978 824.548,40.281 825.136,40.879 C825.724,41.478 826.022,42.234 826.022,43.127 C826.022,44.178 825.633,44.989 824.864,45.542 C826.173,46.011 826.835,47.106 826.835,48.808 C826.835,49.754 826.541,50.542 825.961,51.152 C825.378,51.762 824.549,52.072 823.498,52.072 ZM825.042,43.093 C825.042,42.472 824.850,41.975 824.455,41.573 C824.060,41.171 823.534,40.976 822.847,40.976 L820.000,40.976 C819.979,40.976 820.000,40.978 820.000,40.978 L820.001,45.280 L822.929,45.278 C823.548,45.278 824.044,45.074 824.444,44.651 C824.847,44.226 825.042,43.716 825.042,43.093 ZM825.236,46.906 C824.819,46.481 824.251,46.276 823.498,46.276 L819.999,46.276 C819.979,46.276 820.000,46.279 820.000,46.279 L820.001,48.229 L821.965,48.229 C822.235,48.229 822.456,48.454 822.456,48.729 C822.456,49.004 822.235,49.229 821.965,49.229 L820.001,49.229 L820.001,51.078 L823.498,51.076 C824.251,51.076 824.819,50.870 825.236,50.445 C825.654,50.021 825.856,49.441 825.856,48.675 C825.856,47.910 825.654,47.331 825.236,46.906 ZM826.047,37.644 C825.955,37.644 825.862,37.617 825.780,37.562 C825.523,37.392 825.255,37.235 824.984,37.096 C824.742,36.971 824.645,36.671 824.766,36.425 C824.888,36.178 825.183,36.079 825.426,36.203 C825.730,36.358 826.029,36.534 826.316,36.725 C826.544,36.876 826.608,37.186 826.460,37.417 C826.365,37.564 826.208,37.644 826.047,37.644 ZM822.424,36.294 C822.405,36.294 822.386,36.293 822.367,36.290 C822.072,36.256 821.771,36.238 821.474,36.238 C821.202,36.238 820.972,36.015 820.972,35.738 C820.972,35.462 821.181,35.238 821.453,35.238 L821.453,35.738 L821.459,35.238 C821.461,35.238 821.463,35.238 821.465,35.238 C821.814,35.238 822.150,35.258 822.481,35.297 C822.750,35.330 822.943,35.578 822.912,35.852 C822.883,36.107 822.670,36.294 822.424,36.294 ZM818.768,36.737 C818.485,36.845 818.202,36.972 817.928,37.114 C817.857,37.151 817.780,37.168 817.706,37.168 C817.527,37.168 817.354,37.069 817.267,36.896 C817.144,36.650 817.240,36.348 817.482,36.223 C817.789,36.064 818.106,35.922 818.423,35.801 C818.679,35.703 818.961,35.835 819.055,36.094 C819.150,36.352 819.021,36.641 818.768,36.737 ZM817.946,55.896 C818.188,56.021 818.285,56.322 818.162,56.567 C818.075,56.741 817.902,56.841 817.723,56.841 C817.648,56.841 817.573,56.824 817.502,56.787 C817.198,56.630 816.899,56.454 816.612,56.263 C816.386,56.112 816.322,55.802 816.470,55.571 C816.620,55.340 816.924,55.275 817.151,55.426 C817.407,55.597 817.675,55.755 817.946,55.896 ZM815.090,39.475 C814.993,39.596 814.852,39.659 814.709,39.659 C814.600,39.659 814.490,39.622 814.399,39.545 C814.189,39.371 814.157,39.056 814.329,38.842 C814.545,38.573 814.775,38.313 815.012,38.070 C815.203,37.873 815.514,37.873 815.707,38.067 C815.900,38.262 815.901,38.578 815.710,38.775 C815.494,38.995 815.286,39.230 815.090,39.475 ZM814.548,52.783 C814.724,53.048 814.911,53.303 815.102,53.541 C815.274,53.755 815.244,54.070 815.034,54.245 C814.942,54.321 814.832,54.359 814.723,54.359 C814.580,54.359 814.440,54.296 814.343,54.176 C814.131,53.913 813.927,53.633 813.734,53.344 C813.583,53.114 813.642,52.804 813.866,52.649 C814.091,52.495 814.396,52.554 814.548,52.783 ZM813.309,42.776 C813.240,42.983 813.049,43.115 812.844,43.115 C812.792,43.115 812.738,43.107 812.686,43.089 C812.430,43.000 812.292,42.716 812.379,42.454 C812.488,42.127 812.611,41.802 812.746,41.490 C812.855,41.236 813.143,41.119 813.393,41.233 C813.642,41.343 813.755,41.639 813.646,41.891 C813.522,42.178 813.409,42.476 813.309,42.776 ZM812.750,45.560 C812.726,45.872 812.714,46.189 812.714,46.500 C812.714,46.776 812.494,47.005 812.222,47.005 C811.951,47.005 811.731,46.786 811.731,46.510 L811.731,46.499 C811.731,46.162 811.744,45.819 811.770,45.481 C811.792,45.206 812.033,45.004 812.299,45.022 C812.569,45.044 812.771,45.284 812.750,45.560 ZM812.456,48.969 C812.719,48.903 812.986,49.066 813.052,49.334 C813.127,49.640 813.215,49.946 813.315,50.243 C813.403,50.505 813.265,50.789 813.009,50.878 C812.956,50.897 812.903,50.905 812.850,50.905 C812.646,50.905 812.455,50.775 812.385,50.567 C812.276,50.242 812.180,49.908 812.098,49.576 C812.033,49.308 812.193,49.036 812.456,48.969 ZM820.561,56.707 C820.861,56.744 821.169,56.762 821.474,56.762 C821.745,56.762 821.986,56.987 821.986,57.262 C821.986,57.538 821.788,57.763 821.516,57.763 L821.474,57.763 C821.130,57.763 820.783,57.742 820.445,57.701 C820.175,57.667 819.983,57.419 820.015,57.145 C820.047,56.871 820.284,56.679 820.561,56.707 ZM824.199,56.256 C824.482,56.147 824.764,56.020 825.037,55.877 C825.279,55.750 825.575,55.848 825.699,56.094 C825.823,56.339 825.728,56.640 825.487,56.766 C825.181,56.926 824.864,57.069 824.546,57.191 C824.488,57.213 824.430,57.224 824.372,57.224 C824.174,57.224 823.986,57.100 823.913,56.900 C823.817,56.641 823.945,56.352 824.199,56.256 Z"/>
<path fill-rule="evenodd"  fill="rgb(201, 211, 217)"
 d="M1023.830,42.819 C1023.830,42.832 1023.831,42.845 1023.831,42.858 C1023.831,44.859 1023.183,46.626 1022.034,48.043 L1022.542,49.481 C1022.749,50.068 1022.662,50.694 1022.302,51.202 C1021.943,51.709 1021.380,52.000 1020.758,52.000 L1018.148,52.000 C1017.635,52.000 1017.191,51.670 1017.043,51.180 L1017.041,51.173 C1015.899,51.492 1014.645,51.662 1013.303,51.662 C1011.663,51.662 1010.125,51.443 1008.740,51.038 L1008.581,51.435 C1008.443,51.779 1008.116,52.000 1007.746,52.000 L1004.822,52.000 C1004.235,52.000 1003.689,51.711 1003.360,51.226 C1003.031,50.741 1002.965,50.126 1003.183,49.582 L1003.782,48.086 C1003.190,47.427 1002.717,46.695 1002.400,45.892 L1002.132,45.892 C1000.797,45.892 1000.000,44.872 1000.000,43.163 L1000.000,41.600 C1000.000,39.922 1000.777,38.959 1002.132,38.959 L1002.679,38.959 C1002.881,37.554 1003.091,36.606 1004.222,35.436 C1004.148,35.253 1004.079,35.067 1004.013,34.885 C1003.747,34.158 1003.497,33.471 1002.908,33.188 C1002.665,33.072 1002.533,32.817 1002.578,32.553 C1002.622,32.293 1002.829,32.098 1003.093,32.069 C1004.200,31.946 1005.439,32.208 1007.341,32.966 C1007.613,32.859 1007.956,32.738 1008.343,32.611 C1008.256,32.224 1008.209,31.824 1008.209,31.417 C1008.209,28.430 1010.642,26.000 1013.632,26.000 C1016.622,26.000 1019.055,28.430 1019.055,31.417 C1019.055,31.999 1018.957,32.572 1018.775,33.116 C1020.652,34.191 1022.056,35.760 1022.869,37.690 C1022.971,37.673 1023.073,37.658 1023.180,37.658 C1023.230,37.658 1023.276,37.670 1023.325,37.673 C1023.349,37.669 1023.371,37.658 1023.397,37.658 C1023.767,37.658 1024.118,37.737 1024.436,37.876 C1024.405,37.714 1024.358,37.555 1024.290,37.401 C1024.192,37.183 1024.290,36.927 1024.508,36.829 C1024.726,36.730 1024.983,36.828 1025.082,37.047 C1025.292,37.517 1025.373,38.026 1025.333,38.527 C1025.746,38.987 1026.000,39.593 1026.000,40.258 C1026.000,41.544 1025.059,42.612 1023.830,42.819 ZM1017.874,50.930 C1017.910,51.052 1018.020,51.133 1018.147,51.133 L1020.758,51.133 C1021.095,51.133 1021.399,50.976 1021.594,50.701 C1021.788,50.427 1021.836,50.087 1021.723,49.770 L1021.369,48.769 C1020.427,49.685 1019.243,50.411 1017.867,50.908 L1017.874,50.930 ZM1004.079,50.739 C1004.248,50.989 1004.519,51.133 1004.822,51.133 L1007.746,51.133 L1007.904,50.764 C1006.560,50.273 1005.390,49.592 1004.448,48.755 L1003.989,49.904 C1003.876,50.184 1003.909,50.489 1004.079,50.739 ZM1013.632,26.866 C1011.120,26.866 1009.077,28.907 1009.077,31.416 C1009.077,31.855 1009.145,32.283 1009.265,32.692 L1009.312,32.837 C1009.438,33.217 1009.612,33.574 1009.827,33.903 C1009.834,33.915 1009.841,33.925 1009.849,33.937 C1009.946,34.082 1010.053,34.221 1010.166,34.354 C1010.183,34.374 1010.198,34.395 1010.215,34.414 C1010.342,34.558 1010.476,34.695 1010.620,34.823 C1010.646,34.808 1010.673,34.798 1010.698,34.784 C1010.877,34.683 1011.060,34.593 1011.246,34.510 C1011.299,34.486 1011.350,34.460 1011.403,34.438 C1011.634,34.341 1011.869,34.256 1012.108,34.186 C1012.179,34.165 1012.252,34.153 1012.323,34.134 C1012.488,34.092 1012.652,34.052 1012.818,34.022 C1012.934,34.001 1013.051,33.987 1013.168,33.972 C1013.291,33.956 1013.413,33.943 1013.537,33.934 C1013.666,33.924 1013.796,33.917 1013.926,33.915 C1014.037,33.913 1014.148,33.917 1014.259,33.920 C1014.395,33.924 1014.531,33.927 1014.666,33.940 C1014.775,33.950 1014.883,33.969 1014.992,33.984 C1015.221,34.016 1015.448,34.059 1015.674,34.115 C1015.798,34.145 1015.922,34.174 1016.045,34.211 C1016.158,34.246 1016.269,34.288 1016.381,34.329 C1016.511,34.376 1016.639,34.426 1016.766,34.481 C1016.821,34.505 1016.877,34.521 1016.931,34.546 C1017.313,34.142 1017.625,33.662 1017.840,33.142 L1017.907,32.980 C1018.089,32.486 1018.187,31.961 1018.187,31.416 C1018.187,28.907 1016.144,26.866 1013.632,26.866 ZM1018.437,33.911 C1018.428,33.930 1018.415,33.947 1018.405,33.966 C1018.359,34.052 1018.310,34.137 1018.258,34.221 C1018.219,34.285 1018.179,34.348 1018.138,34.410 C1018.087,34.486 1018.036,34.561 1017.982,34.634 C1017.926,34.710 1017.867,34.782 1017.808,34.854 C1017.774,34.895 1017.744,34.938 1017.709,34.979 C1018.121,35.241 1018.513,35.547 1018.872,35.906 C1019.041,36.076 1019.041,36.349 1018.872,36.519 C1018.787,36.603 1018.676,36.646 1018.565,36.646 C1018.454,36.646 1018.343,36.603 1018.258,36.519 C1017.681,35.942 1017.012,35.509 1016.300,35.218 C1016.289,35.214 1016.279,35.210 1016.268,35.206 C1015.200,34.778 1014.032,34.670 1012.913,34.883 C1012.898,34.886 1012.882,34.889 1012.867,34.892 C1012.707,34.924 1012.549,34.963 1012.391,35.008 C1012.364,35.016 1012.337,35.022 1012.310,35.030 C1012.149,35.079 1011.990,35.135 1011.832,35.197 C1011.787,35.215 1011.744,35.235 1011.700,35.253 C1011.588,35.301 1011.478,35.352 1011.369,35.407 C1011.313,35.435 1011.256,35.463 1011.201,35.492 C1011.064,35.567 1010.929,35.645 1010.797,35.731 L1010.727,35.775 C1010.406,35.989 1010.101,36.236 1009.817,36.519 C1009.648,36.688 1009.374,36.688 1009.204,36.519 C1009.034,36.349 1009.034,36.076 1009.204,35.906 C1009.419,35.692 1009.648,35.501 1009.883,35.320 C1009.856,35.294 1009.828,35.267 1009.801,35.239 C1009.768,35.207 1009.739,35.171 1009.707,35.137 C1009.576,35.000 1009.452,34.858 1009.337,34.710 C1009.315,34.681 1009.294,34.650 1009.272,34.621 C1009.149,34.455 1009.037,34.283 1008.934,34.106 C1008.926,34.090 1008.916,34.074 1008.908,34.058 C1008.794,33.857 1008.694,33.650 1008.608,33.436 C1008.163,33.582 1007.775,33.722 1007.509,33.833 L1007.344,33.901 L1007.178,33.834 C1005.790,33.271 1004.792,32.983 1003.966,32.920 C1004.392,33.393 1004.620,34.017 1004.829,34.588 C1004.928,34.859 1005.022,35.115 1005.131,35.348 L1005.264,35.629 L1005.040,35.845 C1003.827,37.012 1003.713,37.828 1003.486,39.451 L1003.434,39.825 L1002.132,39.825 C1001.819,39.825 1000.868,39.825 1000.868,41.600 L1000.868,43.162 C1000.868,44.012 1001.087,45.024 1002.132,45.024 L1003.012,45.024 L1003.112,45.317 C1003.811,47.345 1005.648,48.960 1008.124,49.897 C1008.209,49.929 1008.296,49.958 1008.382,49.989 C1009.846,50.506 1011.516,50.794 1013.303,50.794 C1014.712,50.794 1016.015,50.593 1017.179,50.221 L1017.198,50.215 C1017.244,50.200 1017.287,50.182 1017.333,50.167 C1017.538,50.098 1017.739,50.023 1017.935,49.943 C1018.026,49.906 1018.116,49.867 1018.206,49.828 C1018.371,49.755 1018.532,49.677 1018.690,49.597 C1018.762,49.560 1018.837,49.525 1018.908,49.487 C1019.118,49.373 1019.320,49.250 1019.516,49.123 C1019.584,49.078 1019.651,49.031 1019.717,48.985 C1019.871,48.878 1020.021,48.768 1020.165,48.653 C1020.214,48.615 1020.263,48.577 1020.311,48.538 C1020.506,48.375 1020.693,48.207 1020.868,48.030 C1020.872,48.026 1020.875,48.022 1020.879,48.019 C1022.205,46.670 1022.963,44.898 1022.964,42.856 C1022.964,42.416 1022.944,41.973 1022.906,41.537 C1022.884,41.534 1022.864,41.526 1022.843,41.523 C1022.790,41.514 1022.739,41.500 1022.688,41.486 C1022.620,41.469 1022.552,41.449 1022.487,41.424 C1022.437,41.405 1022.390,41.384 1022.342,41.361 C1022.280,41.331 1022.220,41.299 1022.162,41.263 C1022.117,41.236 1022.074,41.207 1022.031,41.176 C1021.976,41.135 1021.924,41.092 1021.874,41.046 C1021.835,41.011 1021.797,40.976 1021.761,40.938 C1021.714,40.888 1021.672,40.834 1021.630,40.779 C1021.599,40.739 1021.567,40.699 1021.539,40.656 C1021.500,40.596 1021.468,40.531 1021.436,40.466 C1021.414,40.423 1021.390,40.381 1021.372,40.336 C1021.342,40.261 1021.320,40.182 1021.299,40.104 C1021.289,40.064 1021.274,40.025 1021.266,39.984 C1021.241,39.862 1021.227,39.737 1021.227,39.608 C1021.227,39.486 1021.242,39.369 1021.263,39.252 C1021.267,39.232 1021.270,39.211 1021.275,39.191 C1021.299,39.078 1021.333,38.968 1021.377,38.864 C1021.382,38.851 1021.388,38.839 1021.394,38.827 C1021.487,38.613 1021.618,38.419 1021.782,38.252 C1021.795,38.238 1021.809,38.224 1021.823,38.211 C1021.900,38.136 1021.981,38.066 1022.071,38.005 C1021.344,36.289 1020.098,34.886 1018.437,33.911 ZM1023.179,38.524 C1023.039,38.524 1022.905,38.553 1022.781,38.602 L1022.777,38.604 C1022.745,38.617 1022.716,38.633 1022.686,38.648 C1022.660,38.662 1022.633,38.675 1022.608,38.691 C1022.583,38.706 1022.559,38.723 1022.536,38.741 C1022.505,38.764 1022.476,38.788 1022.447,38.814 C1022.431,38.829 1022.414,38.843 1022.399,38.859 C1022.312,38.949 1022.241,39.054 1022.190,39.170 C1022.183,39.186 1022.177,39.202 1022.171,39.217 C1022.154,39.263 1022.139,39.309 1022.128,39.357 C1022.124,39.375 1022.119,39.393 1022.115,39.411 C1022.104,39.475 1022.096,39.541 1022.096,39.608 C1022.096,40.205 1022.582,40.692 1023.180,40.692 C1023.217,40.686 1023.241,40.683 1023.266,40.681 L1023.339,40.676 C1023.861,40.597 1024.264,40.151 1024.264,39.607 C1024.264,39.010 1023.777,38.524 1023.179,38.524 ZM1025.099,39.933 C1024.976,40.659 1024.452,41.242 1023.763,41.459 C1023.777,41.619 1023.794,41.778 1023.803,41.938 C1024.564,41.755 1025.132,41.073 1025.132,40.258 C1025.132,40.147 1025.119,40.039 1025.099,39.933 ZM1013.887,49.832 C1013.488,49.866 1013.098,49.884 1012.717,49.884 C1011.098,49.884 1009.625,49.570 1008.156,48.921 C1007.937,48.824 1007.838,48.568 1007.935,48.349 C1008.032,48.130 1008.288,48.031 1008.507,48.128 C1010.206,48.879 1011.841,49.139 1013.812,48.968 C1014.049,48.943 1014.261,49.124 1014.282,49.363 C1014.302,49.601 1014.125,49.811 1013.887,49.832 ZM1006.257,40.258 C1005.420,40.258 1004.739,39.578 1004.739,38.742 C1004.739,37.905 1005.420,37.225 1006.257,37.225 C1007.094,37.225 1007.775,37.905 1007.775,38.742 C1007.775,39.578 1007.094,40.258 1006.257,40.258 ZM1006.257,38.091 C1005.898,38.091 1005.606,38.383 1005.606,38.742 C1005.606,39.100 1005.898,39.392 1006.257,39.392 C1006.616,39.392 1006.908,39.100 1006.908,38.742 C1006.908,38.383 1006.616,38.091 1006.257,38.091 ZM1015.485,33.870 C1015.323,33.694 1015.334,33.420 1015.509,33.258 C1016.084,32.726 1016.401,32.006 1016.401,31.229 C1016.401,29.704 1015.159,28.463 1013.632,28.463 C1012.105,28.463 1010.863,29.704 1010.863,31.229 C1010.863,32.088 1011.256,32.885 1011.940,33.414 C1012.129,33.561 1012.164,33.833 1012.017,34.023 C1011.931,34.132 1011.803,34.190 1011.674,34.190 C1011.581,34.190 1011.488,34.161 1011.408,34.099 C1010.510,33.405 1009.995,32.358 1009.995,31.229 C1009.995,29.226 1011.626,27.596 1013.632,27.596 C1015.637,27.596 1017.268,29.226 1017.268,31.229 C1017.268,32.236 1016.842,33.207 1016.098,33.894 C1015.922,34.056 1015.648,34.046 1015.485,33.870 Z"/>
<path fill-rule="evenodd"  fill="rgb(201, 211, 217)"
 d="M926.354,5.286 C926.267,5.512 926.051,5.663 925.808,5.668 L924.008,5.710 L924.545,28.457 C924.553,28.788 924.290,29.062 923.959,29.070 L920.358,29.154 C920.027,29.161 919.752,28.900 919.744,28.569 L919.207,5.822 L917.406,5.864 C917.164,5.870 916.941,5.729 916.843,5.507 C916.745,5.286 916.790,5.027 916.958,4.852 L921.060,0.564 C921.289,0.325 921.669,0.316 921.909,0.544 L926.209,4.637 C926.384,4.804 926.442,5.060 926.354,5.286 ZM921.514,1.824 L918.827,4.633 L919.779,4.611 C920.110,4.603 920.385,4.865 920.393,5.195 L920.930,27.943 L923.330,27.887 L922.794,5.139 C922.786,4.809 923.048,4.535 923.380,4.527 L924.331,4.505 L921.514,1.824 ZM916.907,12.094 C916.820,12.320 916.604,12.471 916.361,12.477 L914.561,12.519 L914.943,28.681 C914.950,29.011 914.688,29.286 914.357,29.293 L910.756,29.377 C910.424,29.385 910.149,29.123 910.141,28.793 L909.760,12.630 L907.959,12.672 C907.717,12.678 907.494,12.537 907.396,12.316 C907.298,12.094 907.343,11.836 907.511,11.660 L911.613,7.372 C911.842,7.133 912.222,7.124 912.462,7.352 L916.762,11.445 C916.937,11.612 916.995,11.868 916.907,12.094 ZM912.067,8.632 L909.380,11.441 L910.332,11.419 C910.663,11.411 910.938,11.673 910.946,12.004 L911.328,28.166 L913.728,28.110 L913.347,11.948 C913.339,11.617 913.601,11.343 913.933,11.335 L914.884,11.313 L912.067,8.632 ZM907.446,18.304 C907.359,18.530 907.143,18.681 906.900,18.686 L905.100,18.728 L905.340,28.904 C905.348,29.235 905.086,29.509 904.754,29.517 L901.153,29.601 C900.822,29.609 900.547,29.347 900.539,29.016 L900.299,18.840 L898.498,18.882 C898.256,18.888 898.033,18.747 897.935,18.525 C897.837,18.304 897.882,18.045 898.050,17.870 L902.152,13.582 C902.381,13.342 902.761,13.334 903.001,13.562 L907.301,17.654 C907.476,17.822 907.534,18.078 907.446,18.304 ZM902.606,14.842 L899.919,17.651 L900.871,17.629 C901.202,17.621 901.477,17.883 901.485,18.213 L901.725,28.390 L904.126,28.334 L903.886,18.158 C903.878,17.827 904.140,17.553 904.472,17.545 L905.423,17.523 L902.606,14.842 Z"/>
<path fill-rule="evenodd"  fill="rgb(201, 211, 217)"
 d="M532.691,180.557 L531.139,182.292 C530.919,182.538 530.940,182.915 531.186,183.136 L533.782,185.457 L533.563,185.702 C533.343,185.948 533.364,186.326 533.610,186.546 L553.875,204.673 C555.145,205.808 556.612,206.647 558.235,207.165 L560.422,207.863 C560.483,207.882 560.546,207.891 560.607,207.890 L561.456,208.650 C561.702,208.870 562.080,208.849 562.300,208.603 C562.410,208.480 562.460,208.324 562.452,208.171 C562.443,208.018 562.376,207.869 562.253,207.759 L561.404,207.000 C561.398,206.938 561.382,206.877 561.356,206.819 L560.420,204.722 C559.725,203.167 558.728,201.802 557.459,200.666 L539.713,184.794 C540.197,184.655 541.057,184.906 541.814,185.584 L547.155,190.361 C547.401,190.581 547.779,190.560 547.999,190.314 C548.109,190.191 548.159,190.035 548.150,189.882 C548.142,189.729 548.075,189.580 547.952,189.470 L542.611,184.693 C541.976,184.124 541.232,183.740 540.517,183.610 C539.833,183.486 539.214,183.610 538.772,183.952 L537.193,182.540 C536.948,182.320 536.570,182.341 536.350,182.587 L536.131,182.832 L533.535,180.510 C533.289,180.290 532.911,180.311 532.691,180.557 ZM556.662,201.557 C557.805,202.580 558.703,203.809 559.328,205.210 L559.875,206.434 L558.598,206.026 C557.137,205.560 555.815,204.804 554.672,203.781 L553.989,203.171 L555.979,200.946 L556.662,201.557 ZM555.088,200.150 L553.098,202.374 L534.852,186.054 L536.842,183.829 L555.088,200.150 ZM535.334,183.723 L534.579,184.567 L532.428,182.643 L533.183,181.799 L535.334,183.723 Z"/>
<path fill-rule="evenodd"  fill="rgb(201, 211, 217)"
 d="M694.820,218.225 L695.378,219.919 L691.119,221.269 L690.561,219.576 L675.232,224.436 L675.790,226.129 L671.532,227.480 L670.974,225.786 L670.122,226.056 L663.428,205.733 L688.977,197.633 L690.092,201.020 L690.929,203.560 L693.719,212.028 L694.555,214.568 L695.671,217.955 L694.820,218.225 ZM691.692,220.152 L694.247,219.342 L693.968,218.495 L691.413,219.305 L691.692,220.152 ZM672.105,226.363 L674.660,225.553 L674.381,224.706 L671.826,225.516 L672.105,226.363 ZM689.520,202.137 L688.668,202.406 L686.965,202.947 L687.244,203.793 L688.947,203.253 L689.799,202.983 L689.520,202.137 ZM691.164,212.838 L688.374,204.370 L686.671,204.910 L685.834,202.370 L687.538,201.830 L687.260,200.986 L666.823,207.463 L671.839,222.702 L692.276,216.226 L691.999,215.379 L690.297,215.918 L689.461,213.378 L691.164,212.838 ZM690.078,203.830 L689.226,204.100 L692.015,212.568 L692.867,212.298 L690.078,203.830 ZM693.146,213.145 L692.294,213.415 L690.591,213.955 L690.870,214.802 L692.573,214.261 L693.425,213.992 L693.146,213.145 ZM693.704,214.838 L692.852,215.108 L693.130,215.952 C693.285,216.421 693.027,216.923 692.555,217.073 L672.123,223.551 C671.652,223.701 671.142,223.441 670.988,222.972 L665.969,207.737 C665.815,207.268 666.073,206.765 666.544,206.616 L686.976,200.137 C687.448,199.988 687.957,200.247 688.111,200.716 L688.389,201.560 L689.241,201.290 L688.404,198.750 L664.558,206.310 L670.695,224.939 L674.953,223.589 L690.283,218.729 L694.541,217.379 L693.704,214.838 ZM688.323,214.207 C688.088,214.281 687.834,214.152 687.757,213.918 L687.618,213.495 C687.541,213.261 687.669,213.011 687.904,212.936 C688.140,212.862 688.392,212.991 688.469,213.225 L688.609,213.648 C688.686,213.882 688.558,214.132 688.323,214.207 ZM687.765,212.513 C687.530,212.587 687.277,212.459 687.199,212.224 L687.060,211.801 C686.983,211.567 687.111,211.317 687.346,211.243 C687.582,211.168 687.834,211.297 687.912,211.531 L688.051,211.955 C688.128,212.189 688.000,212.438 687.765,212.513 ZM687.207,210.819 C686.972,210.894 686.719,210.765 686.642,210.531 L686.502,210.108 C686.425,209.873 686.553,209.624 686.788,209.549 C687.024,209.474 687.277,209.603 687.354,209.838 L687.493,210.261 C687.570,210.495 687.442,210.745 687.207,210.819 ZM680.423,207.359 L686.385,205.469 L687.222,208.009 L681.260,209.899 L680.423,207.359 ZM681.833,208.782 L686.091,207.432 L685.812,206.585 L681.554,207.936 L681.833,208.782 ZM680.115,212.133 L678.378,212.683 C678.471,213.207 678.424,213.729 678.260,214.210 L679.892,215.042 C680.113,215.155 680.201,215.423 680.089,215.641 C680.033,215.750 679.938,215.826 679.829,215.861 C679.720,215.895 679.597,215.888 679.487,215.832 L677.855,214.999 C677.560,215.413 677.163,215.757 676.683,215.989 L677.252,217.717 C677.329,217.951 677.201,218.201 676.965,218.275 C676.731,218.350 676.477,218.221 676.400,217.987 L675.831,216.259 C675.303,216.347 674.776,216.296 674.291,216.129 L673.464,217.742 C673.408,217.850 673.313,217.926 673.204,217.961 C673.095,217.996 672.972,217.989 672.862,217.932 C672.641,217.820 672.553,217.552 672.665,217.334 L673.491,215.722 C673.072,215.427 672.722,215.030 672.484,214.552 L670.747,215.103 C670.512,215.177 670.259,215.049 670.182,214.815 C670.105,214.580 670.233,214.331 670.468,214.256 L672.205,213.705 C672.113,213.182 672.160,212.659 672.324,212.179 L670.692,211.346 C670.471,211.234 670.383,210.966 670.495,210.748 C670.607,210.529 670.876,210.444 671.097,210.557 L672.729,211.389 C673.023,210.975 673.420,210.631 673.900,210.399 L673.331,208.672 C673.254,208.438 673.383,208.188 673.618,208.114 C673.853,208.039 674.106,208.168 674.183,208.402 L674.752,210.129 C675.280,210.042 675.807,210.092 676.292,210.259 L677.119,208.647 C677.231,208.429 677.500,208.344 677.721,208.456 C677.942,208.569 678.030,208.837 677.918,209.055 L677.092,210.667 C677.511,210.962 677.861,211.359 678.099,211.837 L679.836,211.286 C680.071,211.211 680.324,211.340 680.401,211.574 C680.478,211.808 680.350,212.058 680.115,212.133 ZM677.420,212.519 C677.036,211.352 675.768,210.705 674.594,211.077 C673.420,211.450 672.778,212.702 673.162,213.869 C673.547,215.037 674.815,215.684 675.989,215.311 C677.163,214.939 677.805,213.686 677.420,212.519 ZM675.431,213.618 C675.196,213.692 674.943,213.563 674.866,213.329 C674.789,213.096 674.917,212.845 675.152,212.771 C675.387,212.696 675.640,212.825 675.717,213.059 C675.794,213.293 675.666,213.543 675.431,213.618 ZM682.530,210.899 C682.765,210.825 683.018,210.953 683.096,211.188 L683.235,211.611 C683.312,211.845 683.184,212.095 682.949,212.169 C682.714,212.244 682.461,212.115 682.383,211.881 L682.244,211.458 C682.167,211.224 682.295,210.974 682.530,210.899 ZM683.088,212.593 C683.323,212.518 683.576,212.647 683.653,212.881 L683.793,213.305 C683.870,213.539 683.742,213.788 683.507,213.863 C683.271,213.938 683.018,213.809 682.941,213.575 L682.802,213.151 C682.725,212.917 682.853,212.667 683.088,212.593 ZM683.646,214.286 C683.881,214.212 684.134,214.341 684.211,214.575 L684.351,214.998 C684.428,215.232 684.300,215.482 684.064,215.557 C683.829,215.631 683.576,215.502 683.499,215.268 L683.360,214.845 C683.283,214.611 683.411,214.361 683.646,214.286 ZM684.659,210.224 C684.894,210.150 685.147,210.278 685.225,210.513 L685.364,210.936 C685.441,211.170 685.313,211.420 685.078,211.494 C684.843,211.569 684.590,211.440 684.512,211.206 L684.373,210.783 C684.296,210.548 684.424,210.299 684.659,210.224 ZM685.217,211.918 C685.452,211.843 685.705,211.972 685.782,212.206 L685.922,212.630 C685.999,212.864 685.871,213.113 685.636,213.188 C685.401,213.262 685.147,213.134 685.070,212.900 L684.931,212.476 C684.854,212.242 684.982,211.992 685.217,211.918 ZM685.775,213.611 C686.010,213.537 686.263,213.665 686.340,213.900 L686.480,214.323 C686.557,214.557 686.429,214.807 686.194,214.881 C685.958,214.956 685.705,214.827 685.628,214.593 L685.489,214.170 C685.412,213.936 685.540,213.686 685.775,213.611 Z"/>
<path fill-rule="evenodd"  stroke="rgb(160, 176, 185)" stroke-width="2px" stroke-dasharray="8, 4" stroke-linecap="butt" stroke-linejoin="miter" fill="none"
 d="M743.000,195.000 C743.000,195.000 628.000,312.418 469.000,148.000 "/>
<path fill-rule="evenodd"  stroke="rgb(160, 176, 185)" stroke-width="2px" stroke-dasharray="8, 4" stroke-linecap="butt" stroke-linejoin="miter" fill="none"
 d="M45.000,105.000 C45.000,105.000 196.285,-62.369 426.000,75.000 "/>
<path fill-rule="evenodd"  fill="rgb(201, 211, 217)"
 d="M149.214,51.918 C148.326,52.057 147.459,51.921 146.695,51.575 L142.667,57.106 C143.227,57.731 143.620,58.519 143.758,59.410 C144.136,61.853 142.464,64.150 140.030,64.530 C137.596,64.910 135.308,63.231 134.930,60.788 C134.797,59.930 134.918,59.090 135.235,58.344 L129.638,54.236 C129.015,54.799 128.230,55.193 127.342,55.332 C126.454,55.470 125.587,55.334 124.823,54.988 L120.795,60.519 C121.356,61.144 121.748,61.932 121.886,62.823 C122.265,65.266 120.592,67.563 118.158,67.943 C115.724,68.323 113.436,66.644 113.058,64.201 C112.680,61.758 114.352,59.461 116.786,59.081 C117.674,58.943 118.541,59.079 119.305,59.425 L123.333,53.894 C122.772,53.269 122.380,52.481 122.242,51.590 C121.864,49.147 123.536,46.850 125.970,46.470 C128.404,46.090 130.692,47.769 131.070,50.212 C131.208,51.103 131.072,51.974 130.727,52.740 L136.294,56.825 C136.927,56.229 137.738,55.812 138.658,55.668 C139.546,55.530 140.413,55.666 141.177,56.012 L145.205,50.481 C144.644,49.856 144.252,49.068 144.114,48.177 C143.735,45.733 145.408,43.437 147.842,43.057 C150.276,42.677 152.564,44.356 152.942,46.799 C153.320,49.242 151.648,51.539 149.214,51.918 ZM120.062,63.108 C119.840,61.675 118.498,60.690 117.070,60.913 C115.642,61.136 114.661,62.483 114.883,63.916 C115.104,65.350 116.447,66.334 117.875,66.112 C119.303,65.889 120.284,64.542 120.062,63.108 ZM129.246,50.497 C129.024,49.064 127.682,48.079 126.254,48.302 C124.826,48.524 123.845,49.872 124.067,51.305 C124.288,52.739 125.631,53.723 127.059,53.500 C128.487,53.278 129.468,51.930 129.246,50.497 ZM141.933,59.695 C141.711,58.262 140.369,57.277 138.941,57.500 C137.513,57.723 136.532,59.070 136.754,60.503 C136.976,61.936 138.318,62.921 139.746,62.699 C141.174,62.475 142.155,61.128 141.933,59.695 ZM151.117,47.084 C150.895,45.650 149.553,44.666 148.125,44.888 C146.697,45.111 145.716,46.459 145.938,47.892 C146.160,49.325 147.502,50.310 148.930,50.087 C150.358,49.864 151.339,48.517 151.117,47.084 ZM140.517,52.965 C140.366,53.171 140.147,53.297 139.913,53.334 C139.680,53.370 139.432,53.317 139.226,53.166 C138.815,52.864 138.725,52.285 139.026,51.871 L140.593,49.719 C140.894,49.306 141.472,49.216 141.884,49.518 C142.295,49.820 142.385,50.399 142.084,50.813 L140.517,52.965 ZM125.488,58.068 C125.789,57.655 126.366,57.565 126.778,57.867 C127.190,58.169 127.279,58.748 126.978,59.162 L125.411,61.314 C125.261,61.520 125.041,61.646 124.808,61.683 C124.574,61.719 124.327,61.666 124.121,61.515 C123.709,61.213 123.620,60.633 123.920,60.220 L125.488,58.068 Z"/>
<path fill-rule="evenodd"  fill="rgb(201, 211, 217)"
 d="M372.500,40.481 L370.500,40.481 C370.223,40.481 370.000,40.250 370.000,39.963 C370.000,39.676 370.223,39.444 370.500,39.444 L372.500,39.444 C372.776,39.444 373.000,39.676 373.000,39.963 C373.000,40.250 372.776,40.481 372.500,40.481 ZM368.986,49.281 C368.858,49.281 368.729,49.230 368.632,49.129 L367.218,47.663 C367.022,47.460 367.022,47.133 367.218,46.930 C367.413,46.727 367.730,46.727 367.925,46.930 L369.339,48.396 C369.534,48.599 369.534,48.927 369.339,49.129 C369.241,49.230 369.114,49.281 368.986,49.281 ZM367.925,32.996 C367.827,33.097 367.699,33.148 367.572,33.148 C367.444,33.148 367.315,33.097 367.218,32.996 C367.022,32.793 367.022,32.466 367.218,32.263 L368.632,30.797 C368.827,30.594 369.143,30.594 369.339,30.797 C369.534,30.999 369.534,31.327 369.339,31.530 L367.925,32.996 ZM363.500,48.207 L363.500,52.926 C363.500,53.213 363.277,53.444 363.000,53.444 L362.500,53.444 L362.500,54.482 C362.500,54.768 362.277,55.000 362.000,55.000 L359.000,55.000 C358.724,55.000 358.500,54.768 358.500,54.482 L358.500,53.444 L358.000,53.444 C357.723,53.444 357.500,53.213 357.500,52.926 L357.500,48.207 C354.195,46.917 352.000,43.651 352.000,39.963 C352.000,35.102 355.813,31.148 360.500,31.148 C365.187,31.148 369.000,35.102 369.000,39.963 C369.000,43.651 366.804,46.917 363.500,48.207 ZM358.500,52.407 L359.000,52.407 C359.276,52.407 359.500,52.639 359.500,52.926 L359.500,53.963 L361.500,53.963 L361.500,52.926 C361.500,52.639 361.723,52.407 362.000,52.407 L362.500,52.407 L362.500,49.815 L358.500,49.815 L358.500,52.407 ZM360.500,32.185 C356.365,32.185 353.000,35.674 353.000,39.963 C353.000,43.328 355.072,46.296 358.156,47.348 C358.361,47.418 358.500,47.616 358.500,47.840 L358.500,48.778 L362.500,48.778 L362.500,47.840 C362.500,47.617 362.639,47.418 362.844,47.348 C365.927,46.296 368.000,43.328 368.000,39.963 C368.000,35.674 364.636,32.185 360.500,32.185 ZM360.500,34.778 C357.743,34.778 355.500,37.104 355.500,39.963 C355.500,40.250 355.276,40.481 355.000,40.481 C354.724,40.481 354.500,40.250 354.500,39.963 C354.500,36.532 357.192,33.741 360.500,33.741 C360.776,33.741 361.000,33.972 361.000,34.259 C361.000,34.546 360.776,34.778 360.500,34.778 ZM360.500,30.111 C360.223,30.111 360.000,29.879 360.000,29.593 L360.000,27.518 C360.000,27.232 360.223,27.000 360.500,27.000 C360.776,27.000 361.000,27.232 361.000,27.518 L361.000,29.593 C361.000,29.879 360.776,30.111 360.500,30.111 ZM353.429,33.148 C353.301,33.148 353.172,33.097 353.075,32.996 L351.661,31.530 C351.465,31.327 351.465,30.999 351.661,30.797 C351.856,30.594 352.173,30.594 352.368,30.797 L353.782,32.263 C353.977,32.466 353.977,32.793 353.782,32.996 C353.684,33.097 353.557,33.148 353.429,33.148 ZM350.500,40.481 L348.500,40.481 C348.223,40.481 348.000,40.250 348.000,39.963 C348.000,39.676 348.223,39.444 348.500,39.444 L350.500,39.444 C350.777,39.444 351.000,39.676 351.000,39.963 C351.000,40.250 350.777,40.481 350.500,40.481 ZM353.075,46.930 C353.271,46.727 353.586,46.727 353.782,46.930 C353.977,47.133 353.977,47.460 353.782,47.663 L352.368,49.129 C352.270,49.230 352.142,49.281 352.015,49.281 C351.887,49.281 351.759,49.230 351.661,49.129 C351.465,48.927 351.465,48.599 351.661,48.396 L353.075,46.930 Z"/>
<path fill-rule="evenodd"  fill="rgb(201, 211, 217)"
 d="M264.479,30.079 C266.429,30.953 267.779,32.884 267.758,35.109 C267.755,35.437 267.479,35.701 267.142,35.698 C266.805,35.695 266.534,35.426 266.538,35.097 C266.560,32.736 264.608,30.796 262.187,30.774 C259.766,30.751 257.778,32.653 257.756,35.015 C257.753,35.343 257.477,35.608 257.141,35.604 C256.803,35.601 256.533,35.332 256.536,35.003 C256.557,32.779 257.943,30.873 259.910,30.037 C258.917,29.331 258.275,28.185 258.287,26.898 C258.307,24.781 260.089,23.076 262.259,23.096 C264.429,23.117 266.178,24.855 266.159,26.972 C266.147,28.258 265.484,29.392 264.479,30.079 ZM262.248,24.287 C260.751,24.273 259.522,25.449 259.508,26.910 C259.494,28.370 260.701,29.569 262.198,29.583 C263.695,29.597 264.924,28.421 264.938,26.961 C264.952,25.500 263.745,24.301 262.248,24.287 ZM263.075,26.204 C262.738,26.200 262.467,25.931 262.470,25.603 C262.473,25.274 262.749,25.010 263.086,25.013 C263.423,25.016 263.694,25.285 263.691,25.614 C263.688,25.943 263.412,26.207 263.075,26.204 ZM260.838,26.183 C260.500,26.179 260.230,25.910 260.233,25.582 C260.236,25.253 260.512,24.989 260.849,24.992 C261.186,24.995 261.456,25.264 261.453,25.593 C261.450,25.922 261.174,26.186 260.838,26.183 ZM260.271,22.245 C260.115,22.243 259.959,22.184 259.842,22.066 L256.214,18.461 C255.978,18.227 255.981,17.850 256.222,17.620 C256.462,17.389 256.849,17.393 257.085,17.628 L260.712,21.233 C260.948,21.467 260.945,21.844 260.704,22.074 C260.584,22.190 260.427,22.246 260.271,22.245 ZM253.392,14.203 L253.386,14.894 C253.373,16.286 252.201,17.408 250.773,17.394 L250.073,17.387 C248.646,17.374 247.495,16.231 247.508,14.838 L247.515,14.148 C247.523,13.237 247.161,12.359 246.494,11.675 C245.515,10.671 244.972,9.355 244.967,7.970 C244.954,4.990 247.429,2.554 250.483,2.541 C251.978,2.534 253.385,3.100 254.441,4.135 C255.496,5.169 256.070,6.542 256.057,8.001 C256.043,9.416 255.474,10.748 254.455,11.753 C253.778,12.420 253.401,13.290 253.392,14.203 ZM250.084,16.197 L250.784,16.204 C251.539,16.211 252.158,15.618 252.165,14.882 L252.166,14.787 L248.729,14.755 L248.729,14.850 C248.722,15.586 249.330,16.190 250.084,16.197 ZM253.576,4.974 C252.768,4.182 251.696,3.742 250.552,3.732 C250.531,3.732 250.510,3.731 250.489,3.732 C248.107,3.742 246.177,5.641 246.187,7.966 C246.192,9.046 246.615,10.072 247.378,10.855 C248.119,11.615 248.576,12.560 248.700,13.564 L249.849,13.575 L249.881,10.143 L248.092,8.365 C247.855,8.131 247.859,7.754 248.099,7.524 C248.340,7.293 248.726,7.297 248.962,7.532 L250.501,9.061 L252.069,7.561 C252.309,7.331 252.695,7.334 252.932,7.569 C253.168,7.803 253.164,8.180 252.924,8.410 L251.101,10.155 L251.069,13.586 L252.218,13.597 C252.360,12.595 252.833,11.659 253.587,10.916 C254.382,10.132 254.826,9.093 254.836,7.990 C254.847,6.852 254.399,5.781 253.576,4.974 ZM240.919,21.889 C240.799,22.004 240.642,22.061 240.486,22.059 C240.330,22.058 240.174,21.998 240.056,21.881 C239.820,21.646 239.824,21.269 240.064,21.039 L243.758,17.503 C243.999,17.272 244.385,17.276 244.621,17.511 C244.858,17.746 244.854,18.122 244.614,18.353 L240.919,21.889 ZM242.382,26.749 C242.370,28.036 241.707,29.169 240.702,29.857 C242.652,30.730 244.002,32.661 243.982,34.886 C243.979,35.214 243.703,35.478 243.366,35.475 C243.029,35.472 242.758,35.203 242.761,34.874 C242.783,32.513 240.832,30.573 238.411,30.551 C235.990,30.528 234.002,32.431 233.980,34.792 C233.977,35.121 233.701,35.385 233.364,35.381 C233.027,35.378 232.756,35.109 232.760,34.781 C232.780,32.556 234.166,30.650 236.132,29.814 C235.141,29.107 234.499,27.961 234.511,26.675 C234.531,24.559 236.313,22.853 238.483,22.873 C240.653,22.894 242.402,24.632 242.382,26.749 ZM238.471,24.064 C236.974,24.050 235.745,25.227 235.731,26.687 C235.718,28.147 236.925,29.346 238.422,29.360 C239.919,29.374 241.148,28.198 241.162,26.738 C241.176,25.277 239.969,24.078 238.471,24.064 ZM239.846,25.986 C239.509,25.983 239.238,25.714 239.241,25.385 C239.244,25.056 239.520,24.792 239.857,24.795 C240.194,24.799 240.465,25.068 240.462,25.396 C240.459,25.725 240.183,25.989 239.846,25.986 ZM237.609,25.965 C237.272,25.962 237.001,25.693 237.004,25.364 C237.007,25.035 237.283,24.771 237.620,24.774 C237.957,24.778 238.227,25.047 238.224,25.375 C238.221,25.704 237.946,25.968 237.609,25.965 ZM250.377,22.271 C250.041,22.268 249.770,21.999 249.773,21.670 L249.794,19.398 C249.797,19.070 250.073,18.806 250.410,18.809 C250.747,18.812 251.018,19.081 251.015,19.410 L250.993,21.681 C250.990,22.010 250.714,22.274 250.377,22.271 ZM248.021,29.926 C247.029,29.220 246.387,28.073 246.399,26.787 C246.419,24.670 248.201,22.965 250.371,22.985 C252.541,23.005 254.290,24.744 254.271,26.860 C254.258,28.146 253.596,29.280 252.591,29.968 C254.541,30.841 255.891,32.773 255.870,34.997 C255.867,35.326 255.591,35.590 255.254,35.587 C254.917,35.583 254.646,35.314 254.649,34.986 C254.672,32.624 252.720,30.685 250.299,30.662 C247.878,30.639 245.890,32.542 245.868,34.903 C245.865,35.232 245.589,35.496 245.252,35.493 C244.915,35.490 244.645,35.221 244.648,34.892 C244.669,32.667 246.055,30.762 248.021,29.926 ZM250.310,29.472 C251.807,29.486 253.036,28.309 253.050,26.849 C253.064,25.389 251.857,24.189 250.360,24.175 C248.863,24.161 247.633,25.338 247.620,26.798 C247.606,28.258 248.813,29.458 250.310,29.472 ZM249.235,24.883 C249.572,24.886 249.842,25.156 249.839,25.484 C249.836,25.813 249.560,26.077 249.223,26.074 C248.886,26.070 248.616,25.802 248.619,25.473 C248.622,25.144 248.898,24.880 249.235,24.883 ZM251.472,24.904 C251.809,24.907 252.080,25.177 252.077,25.505 C252.074,25.834 251.798,26.098 251.461,26.095 C251.124,26.091 250.853,25.823 250.856,25.494 C250.859,25.165 251.135,24.901 251.472,24.904 Z"/>
<path fill-rule="evenodd"  stroke="rgb(160, 176, 185)" stroke-width="2px" stroke-dasharray="8, 4" stroke-linecap="butt" stroke-linejoin="miter" stroke-width="5px" stroke="rgb(255, 255, 255)" fill="rgb(255, 255, 255)"
 d="M1078.500,57.000 C1104.734,57.000 1126.000,78.267 1126.000,104.500 C1126.000,130.734 1104.734,152.000 1078.500,152.000 C1052.266,152.000 1031.000,130.734 1031.000,104.500 C1031.000,78.267 1052.266,57.000 1078.500,57.000 Z"/>
<path fill-rule="evenodd"  fill="rgb(47, 64, 80)"
 d="M1099.240,132.409 C1095.263,136.067 1089.706,138.000 1083.170,138.000 L1074.829,138.000 C1068.294,138.000 1062.737,136.067 1058.759,132.409 C1055.045,128.994 1053.000,124.288 1053.000,119.160 C1053.000,113.474 1054.527,108.429 1057.667,103.738 C1060.332,99.759 1063.738,96.702 1066.475,94.246 C1068.927,92.044 1071.090,90.102 1071.634,88.425 C1070.493,87.976 1069.682,86.857 1069.682,85.550 C1069.682,84.300 1070.424,83.222 1071.487,82.738 L1068.615,73.815 C1068.612,73.805 1068.608,73.795 1068.605,73.784 C1068.357,72.915 1068.510,72.111 1069.026,71.577 C1069.542,71.044 1070.336,70.870 1071.205,71.098 C1071.221,71.103 1071.237,71.107 1071.254,71.113 C1071.296,71.126 1075.560,72.488 1076.976,72.895 C1077.889,73.157 1079.488,73.155 1080.399,72.892 C1081.800,72.487 1086.019,71.130 1086.062,71.116 C1086.078,71.111 1086.094,71.106 1086.111,71.102 C1086.979,70.872 1087.773,71.046 1088.289,71.578 C1088.802,72.108 1088.957,72.905 1088.715,73.768 L1086.452,82.710 C1087.548,83.181 1088.318,84.277 1088.318,85.550 C1088.318,86.857 1087.507,87.976 1086.366,88.425 C1086.910,90.103 1089.072,92.044 1091.525,94.246 C1094.262,96.702 1097.668,99.759 1100.333,103.738 C1103.473,108.429 1105.000,113.474 1105.000,119.160 C1105.000,124.288 1102.955,128.994 1099.240,132.409 ZM1086.824,73.268 C1086.826,73.259 1086.829,73.249 1086.832,73.239 C1086.869,73.109 1086.874,73.022 1086.872,72.972 C1086.826,72.969 1086.746,72.972 1086.629,73.001 C1086.228,73.130 1082.323,74.384 1080.938,74.785 C1079.677,75.150 1077.702,75.151 1076.441,74.789 C1075.041,74.387 1071.092,73.127 1070.690,72.998 C1070.570,72.969 1070.490,72.967 1070.443,72.970 C1070.441,73.018 1070.446,73.101 1070.480,73.225 L1073.455,82.466 L1076.705,82.466 L1075.966,79.488 C1075.835,78.960 1076.154,78.425 1076.677,78.294 C1077.201,78.162 1077.732,78.483 1077.863,79.010 L1078.720,82.466 L1079.279,82.466 L1080.137,79.010 C1080.268,78.483 1080.799,78.162 1081.322,78.294 C1081.846,78.426 1082.164,78.960 1082.033,79.488 L1081.294,82.466 L1084.496,82.466 L1086.824,73.268 ZM1071.637,85.551 C1071.637,86.166 1072.134,86.666 1072.744,86.666 L1076.931,86.666 C1076.933,86.666 1076.934,86.666 1076.935,86.666 L1081.065,86.666 C1081.066,86.666 1081.066,86.666 1081.067,86.666 L1085.256,86.666 C1085.867,86.666 1086.363,86.166 1086.363,85.551 C1086.363,84.935 1085.867,84.435 1085.256,84.435 L1080.046,84.435 C1080.045,84.435 1080.044,84.435 1080.043,84.435 C1080.042,84.435 1080.041,84.435 1080.039,84.435 L1077.961,84.435 C1077.959,84.435 1077.958,84.435 1077.957,84.435 C1077.956,84.435 1077.955,84.435 1077.954,84.435 L1072.747,84.435 C1072.746,84.435 1072.745,84.435 1072.744,84.435 C1072.744,84.435 1072.743,84.435 1072.742,84.435 C1072.132,84.436 1071.637,84.936 1071.637,85.551 ZM1090.225,95.716 C1087.309,93.099 1084.930,90.964 1084.393,88.636 L1082.442,88.636 L1083.055,90.491 C1083.226,91.007 1082.949,91.564 1082.437,91.736 C1082.334,91.771 1082.230,91.787 1082.128,91.787 C1081.719,91.787 1081.337,91.526 1081.201,91.114 L1080.381,88.636 L1077.619,88.636 L1076.799,91.114 C1076.663,91.526 1076.282,91.787 1075.872,91.787 C1075.770,91.787 1075.666,91.771 1075.563,91.736 C1075.051,91.564 1074.774,91.007 1074.945,90.491 L1075.559,88.636 L1073.607,88.636 C1073.070,90.964 1070.692,93.099 1067.775,95.716 C1062.364,100.572 1054.955,107.222 1054.955,119.160 C1054.955,123.728 1056.774,127.917 1060.077,130.955 C1063.689,134.276 1068.790,136.031 1074.829,136.031 L1083.170,136.031 C1089.210,136.031 1094.311,134.276 1097.922,130.955 C1101.226,127.917 1103.045,123.728 1103.045,119.160 C1103.045,107.222 1095.636,100.572 1090.225,95.716 ZM1079.000,130.648 C1070.412,130.648 1063.426,123.610 1063.426,114.959 C1063.426,106.308 1070.412,99.270 1079.000,99.270 C1087.588,99.270 1094.574,106.308 1094.574,114.959 C1094.574,123.610 1087.588,130.648 1079.000,130.648 ZM1079.000,101.239 C1071.490,101.239 1065.381,107.394 1065.381,114.959 C1065.381,122.524 1071.490,128.679 1079.000,128.679 C1086.510,128.679 1092.619,122.524 1092.619,114.959 C1092.619,107.394 1086.510,101.239 1079.000,101.239 ZM1079.000,113.974 C1082.471,113.974 1085.190,116.022 1085.190,118.635 C1085.190,120.998 1082.968,122.897 1079.977,123.240 L1079.977,124.412 C1079.977,124.956 1079.540,125.396 1079.000,125.396 C1078.460,125.396 1078.022,124.956 1078.022,124.412 L1078.022,123.240 C1075.031,122.897 1072.809,120.998 1072.809,118.635 C1072.809,118.091 1073.247,117.651 1073.787,117.651 C1074.327,117.651 1074.764,118.091 1074.764,118.635 C1074.764,120.094 1076.704,121.327 1079.000,121.327 C1081.296,121.327 1083.236,120.094 1083.236,118.635 C1083.236,117.176 1081.296,115.944 1079.000,115.944 C1075.528,115.944 1072.809,113.897 1072.809,111.283 C1072.809,108.921 1075.031,107.021 1078.022,106.678 L1078.022,105.507 C1078.022,104.963 1078.460,104.522 1079.000,104.522 C1079.540,104.522 1079.977,104.963 1079.977,105.507 L1079.977,106.678 C1082.968,107.021 1085.190,108.921 1085.190,111.283 C1085.190,111.827 1084.753,112.268 1084.213,112.268 C1083.673,112.268 1083.236,111.827 1083.236,111.283 C1083.236,109.824 1081.296,108.592 1079.000,108.592 C1076.704,108.592 1074.764,109.824 1074.764,111.283 C1074.764,112.742 1076.704,113.974 1079.000,113.974 Z"/>
<path fill-rule="evenodd"  fill="rgb(255, 255, 255)"
 d="M1080.000,98.000 C1089.389,98.000 1097.000,105.611 1097.000,115.000 C1097.000,124.389 1089.389,132.000 1080.000,132.000 C1070.611,132.000 1063.000,124.389 1063.000,115.000 C1063.000,105.611 1070.611,98.000 1080.000,98.000 Z"/>
<path fill-rule="evenodd"  fill="rgb(47, 64, 80)"
 d="M1087.450,116.722 C1087.079,116.071 1086.578,115.563 1085.945,115.200 C1085.507,114.943 1084.874,114.704 1084.048,114.490 C1084.819,114.222 1085.438,113.883 1085.909,113.473 C1086.377,113.063 1086.737,112.591 1086.987,112.055 C1087.236,111.521 1087.362,110.955 1087.362,110.359 C1087.362,109.540 1087.126,108.787 1086.655,108.101 C1086.182,107.414 1085.509,106.888 1084.632,106.522 C1084.124,106.309 1083.493,106.166 1082.764,106.076 L1082.764,103.002 L1080.294,103.002 L1080.294,105.972 L1078.706,105.972 L1078.706,103.002 L1076.235,103.002 L1076.235,105.972 L1070.991,105.972 L1070.991,108.470 L1071.686,108.470 C1072.149,108.470 1072.464,108.513 1072.629,108.599 C1072.792,108.685 1072.909,108.802 1072.976,108.949 C1073.045,109.095 1073.077,109.436 1073.077,109.971 L1073.077,120.041 C1073.077,120.568 1073.043,120.907 1072.976,121.057 C1072.909,121.209 1072.794,121.325 1072.629,121.407 C1072.464,121.488 1072.149,121.531 1071.686,121.531 L1070.991,121.531 L1070.991,124.029 L1076.235,124.029 L1076.235,126.998 L1078.704,126.998 L1078.704,124.029 L1080.239,124.029 C1080.256,124.029 1080.274,124.029 1080.292,124.029 L1080.292,126.998 L1082.763,126.998 L1082.763,123.882 C1083.560,123.776 1084.230,123.614 1084.766,123.394 C1085.797,122.971 1086.596,122.357 1087.160,121.549 C1087.724,120.743 1088.007,119.860 1088.007,118.901 C1088.007,118.100 1087.820,117.373 1087.450,116.722 ZM1077.443,108.884 L1079.378,108.884 C1080.509,108.884 1081.293,108.956 1081.732,109.098 C1082.170,109.241 1082.505,109.481 1082.738,109.816 C1082.969,110.154 1083.086,110.559 1083.086,111.035 C1083.086,111.492 1082.964,111.895 1082.718,112.244 C1082.474,112.594 1082.109,112.856 1081.624,113.028 C1081.139,113.201 1080.391,113.287 1079.378,113.287 L1077.443,113.287 L1077.443,108.884 ZM1082.910,120.042 C1082.564,120.490 1082.145,120.786 1081.653,120.929 C1081.160,121.071 1080.541,121.143 1079.792,121.143 L1078.504,121.143 C1078.074,121.143 1077.812,121.119 1077.715,121.072 C1077.618,121.024 1077.549,120.942 1077.506,120.820 C1077.471,120.724 1077.451,120.403 1077.442,119.848 L1077.442,115.940 L1079.726,115.940 C1080.728,115.940 1081.473,116.035 1081.961,116.224 C1082.449,116.413 1082.815,116.695 1083.059,117.066 C1083.303,117.438 1083.425,117.891 1083.425,118.426 C1083.427,119.054 1083.254,119.594 1082.910,120.042 Z"/>
<path fill-rule="evenodd"  stroke="rgb(160, 176, 185)" stroke-width="2px" stroke-dasharray="8, 4" stroke-linecap="butt" stroke-linejoin="miter" stroke-width="5px" stroke="rgb(255, 255, 255)" fill="rgb(255, 255, 255)"
 d="M754.500,100.000 C780.734,100.000 802.000,121.266 802.000,147.500 C802.000,173.733 780.734,195.000 754.500,195.000 C728.266,195.000 707.000,173.733 707.000,147.500 C707.000,121.266 728.266,100.000 754.500,100.000 Z"/>
<path fill-rule="evenodd"  fill="rgb(47, 64, 80)"
 d="M780.874,168.061 L761.357,168.061 L761.357,175.148 L769.785,175.148 C770.279,175.148 770.679,175.562 770.679,176.074 C770.679,176.585 770.279,177.000 769.785,177.000 L740.215,177.000 C739.721,177.000 739.321,176.585 739.321,176.074 C739.321,175.562 739.721,175.148 740.215,175.148 L748.643,175.148 L748.643,168.061 L729.126,168.061 C727.953,168.061 727.000,167.073 727.000,165.858 L727.000,125.203 C727.000,123.988 727.953,123.000 729.126,123.000 L780.874,123.000 C782.046,123.000 783.000,123.988 783.000,125.203 L783.000,165.858 C783.000,167.073 782.046,168.061 780.874,168.061 ZM750.430,175.148 L759.570,175.148 L759.570,168.061 L750.430,168.061 L750.430,175.148 ZM781.213,125.203 C781.213,125.013 781.058,124.852 780.874,124.852 L729.126,124.852 C728.942,124.852 728.787,125.013 728.787,125.203 L728.787,165.858 C728.787,166.048 728.942,166.208 729.126,166.208 L780.874,166.208 C781.058,166.208 781.213,166.048 781.213,165.858 L781.213,125.203 ZM778.410,160.525 L731.590,160.525 C731.096,160.525 730.696,160.110 730.696,159.599 C730.696,159.087 731.096,158.672 731.590,158.672 L778.410,158.672 C778.904,158.672 779.304,159.087 779.304,159.599 C779.304,160.110 778.904,160.525 778.410,160.525 ZM769.894,155.585 L765.128,155.585 C764.634,155.585 764.234,155.170 764.234,154.659 L764.234,145.484 C764.234,144.973 764.634,144.558 765.128,144.558 L769.894,144.558 C770.387,144.558 770.787,144.973 770.787,145.484 L770.787,154.659 C770.787,155.170 770.387,155.585 769.894,155.585 ZM769.000,146.411 L766.021,146.411 L766.021,153.733 L769.000,153.733 L769.000,146.411 ZM761.553,155.585 L756.787,155.585 C756.294,155.585 755.894,155.170 755.894,154.659 L755.894,132.697 C755.894,132.185 756.294,131.771 756.787,131.771 L761.553,131.771 C762.047,131.771 762.447,132.185 762.447,132.697 L762.447,154.659 C762.447,155.170 762.047,155.585 761.553,155.585 ZM760.659,133.623 L757.681,133.623 L757.681,153.733 L760.659,153.733 L760.659,133.623 ZM753.213,155.585 L748.447,155.585 C747.953,155.585 747.553,155.170 747.553,154.659 L747.553,136.840 C747.553,136.329 747.953,135.914 748.447,135.914 L753.213,135.914 C753.706,135.914 754.106,136.329 754.106,136.840 L754.106,154.659 C754.106,155.170 753.706,155.585 753.213,155.585 ZM752.319,137.766 L749.340,137.766 L749.340,153.733 L752.319,153.733 L752.319,137.766 ZM744.872,155.585 L740.106,155.585 C739.613,155.585 739.213,155.170 739.213,154.659 L739.213,141.222 C739.213,140.711 739.613,140.296 740.106,140.296 L744.872,140.296 C745.366,140.296 745.766,140.711 745.766,141.222 L745.766,154.659 C745.766,155.170 745.366,155.585 744.872,155.585 ZM743.979,142.148 L741.000,142.148 L741.000,153.733 L743.979,153.733 L743.979,142.148 Z"/>
<path fill-rule="evenodd"  stroke="rgb(160, 176, 185)" stroke-width="2px" stroke-dasharray="8, 4" stroke-linecap="butt" stroke-linejoin="miter" stroke-width="5px" stroke="rgb(255, 255, 255)" fill="rgb(255, 255, 255)"
 d="M443.500,57.000 C469.733,57.000 491.000,78.267 491.000,104.500 C491.000,130.734 469.733,152.000 443.500,152.000 C417.267,152.000 396.000,130.734 396.000,104.500 C396.000,78.267 417.267,57.000 443.500,57.000 Z"/>
<path fill-rule="evenodd"  fill="rgb(47, 64, 80)"
 d="M470.290,129.289 C470.098,129.617 469.752,129.799 469.397,129.799 C469.218,129.799 469.038,129.753 468.873,129.656 C468.380,129.366 468.216,128.733 468.505,128.241 C468.781,127.771 468.928,127.245 468.928,126.721 L468.928,83.304 C468.928,79.314 465.675,76.067 461.679,76.067 L422.321,76.067 C418.328,76.067 415.079,79.307 415.071,83.291 C415.076,85.862 416.464,88.258 418.697,89.550 C419.191,89.835 419.362,90.468 419.074,90.962 C418.788,91.455 418.155,91.623 417.660,91.338 C414.796,89.684 413.014,86.613 413.000,83.316 L413.000,83.304 L413.000,83.291 L413.000,83.280 L413.000,83.267 C413.020,78.155 417.194,74.000 422.321,74.000 L461.679,74.000 C466.819,74.000 471.000,78.173 471.000,83.304 L471.000,126.721 C471.000,127.614 470.754,128.502 470.290,129.289 ZM418.179,84.314 C417.606,84.314 417.143,83.851 417.143,83.280 C417.143,80.430 419.466,78.111 422.322,78.111 C422.894,78.111 423.357,78.574 423.357,79.145 L423.357,126.697 C423.357,128.407 424.751,129.799 426.464,129.799 L446.143,129.799 C446.716,129.799 447.179,130.262 447.179,130.832 C447.179,131.403 446.716,131.866 446.143,131.866 L426.464,131.866 C423.609,131.866 421.286,129.547 421.286,126.697 L421.286,80.356 C420.080,80.782 419.214,81.932 419.214,83.280 C419.214,83.851 418.751,84.314 418.179,84.314 ZM446.143,108.090 C446.143,107.519 446.606,107.056 447.179,107.056 L457.536,107.056 C458.108,107.056 458.571,107.519 458.571,108.090 C458.571,108.661 458.108,109.124 457.536,109.124 L447.179,109.124 C446.606,109.124 446.143,108.661 446.143,108.090 ZM451.734,127.016 C452.021,126.521 452.654,126.351 453.149,126.637 C453.645,126.923 453.814,127.555 453.528,128.049 L451.261,131.967 L451.901,132.006 C452.227,132.024 452.524,132.196 452.703,132.468 L453.057,133.001 L455.287,129.144 C455.574,128.650 456.208,128.481 456.702,128.766 C457.198,129.051 457.368,129.684 457.082,130.178 L454.013,135.483 C453.833,135.793 453.505,135.988 453.147,136.000 L453.115,136.000 C452.768,136.000 452.443,135.826 452.251,135.536 L451.260,134.038 L449.465,133.930 C449.106,133.910 448.785,133.704 448.615,133.389 C448.445,133.074 448.451,132.692 448.630,132.382 L451.734,127.016 ZM462.714,101.887 C462.714,102.458 462.251,102.921 461.679,102.921 L455.464,102.921 C454.892,102.921 454.429,102.458 454.429,101.887 C454.429,101.317 454.892,100.853 455.464,100.854 L461.679,100.854 C462.251,100.854 462.714,101.317 462.714,101.887 ZM452.357,101.887 C452.357,102.458 451.894,102.921 451.321,102.921 L440.964,102.921 C440.392,102.921 439.929,102.458 439.929,101.887 C439.929,101.317 440.392,100.853 440.964,100.853 L451.321,100.853 C451.894,100.853 452.357,101.317 452.357,101.887 ZM438.893,88.449 L447.179,88.449 C447.751,88.449 448.214,88.912 448.214,89.482 C448.214,90.053 447.751,90.516 447.179,90.516 L438.893,90.516 C438.320,90.516 437.857,90.053 437.857,89.482 C437.857,88.912 438.320,88.449 438.893,88.449 ZM430.607,90.516 C430.034,90.516 429.572,90.053 429.572,89.482 C429.572,88.912 430.034,88.449 430.607,88.449 L434.750,88.449 C435.323,88.449 435.786,88.912 435.786,89.482 C435.786,90.053 435.323,90.516 434.750,90.516 L430.607,90.516 ZM446.143,95.685 C446.143,96.256 445.680,96.719 445.107,96.719 L430.607,96.719 C430.034,96.719 429.572,96.256 429.572,95.685 C429.572,95.114 430.034,94.651 430.607,94.651 L445.107,94.651 C445.680,94.651 446.143,95.114 446.143,95.685 ZM430.607,102.921 C430.034,102.921 429.572,102.458 429.572,101.887 C429.572,101.317 430.034,100.854 430.607,100.854 L436.821,100.854 C437.394,100.854 437.857,101.317 437.857,101.887 C437.857,102.458 437.394,102.921 436.821,102.921 L430.607,102.921 ZM444.071,108.090 C444.071,108.661 443.608,109.124 443.036,109.124 L430.607,109.124 C430.034,109.124 429.572,108.661 429.572,108.090 C429.572,107.519 430.034,107.056 430.607,107.056 L443.036,107.056 C443.608,107.056 444.071,107.519 444.071,108.090 ZM432.106,122.454 C431.594,122.708 430.972,122.501 430.717,121.991 C429.348,119.259 429.156,116.735 430.189,115.067 C430.911,113.901 432.163,113.259 433.714,113.259 C435.075,113.259 435.823,113.924 436.211,114.484 C437.100,115.764 437.001,117.816 436.660,119.598 C437.525,119.080 437.881,119.228 438.158,119.342 C438.564,119.510 438.831,119.881 438.884,120.332 C439.571,119.850 440.324,119.461 440.964,119.461 C441.501,119.461 441.961,119.706 442.225,120.133 C442.474,120.536 442.495,121.036 442.411,121.528 L445.107,121.528 C445.680,121.528 446.143,121.992 446.143,122.562 C446.143,123.133 445.680,123.596 445.107,123.596 L440.964,123.596 C440.606,123.596 440.274,123.410 440.084,123.106 C439.895,122.802 439.878,122.422 440.036,122.101 C440.049,122.077 440.061,122.053 440.074,122.027 C439.612,122.360 439.063,122.822 438.589,123.293 C438.292,123.589 437.848,123.678 437.460,123.516 C437.073,123.357 436.821,122.980 436.821,122.562 L436.821,122.057 C436.404,122.413 435.924,122.853 435.482,123.293 C435.137,123.636 434.598,123.693 434.190,123.432 C433.779,123.168 433.609,122.655 433.779,122.199 C434.547,120.153 435.280,116.771 434.509,115.661 C434.393,115.495 434.208,115.326 433.714,115.326 C432.884,115.326 432.291,115.604 431.951,116.153 C431.313,117.184 431.543,119.020 432.569,121.066 C432.826,121.577 432.617,122.198 432.106,122.454 ZM451.321,90.516 C450.749,90.516 450.286,90.053 450.286,89.482 C450.286,88.912 450.749,88.449 451.321,88.449 L453.393,88.449 C453.966,88.449 454.428,88.912 454.428,89.482 C454.428,90.053 453.966,90.516 453.393,90.516 L451.321,90.516 ZM460.643,95.685 C460.643,96.256 460.180,96.719 459.607,96.719 L449.250,96.719 C448.677,96.719 448.214,96.256 448.214,95.685 C448.214,95.114 448.677,94.651 449.250,94.651 L459.607,94.651 C460.180,94.651 460.643,95.114 460.643,95.685 ZM452.357,121.528 C452.357,118.108 455.144,115.326 458.571,115.326 C461.999,115.326 464.786,118.108 464.786,121.528 C464.786,124.949 461.999,127.731 458.571,127.731 C455.144,127.731 452.357,124.949 452.357,121.528 ZM458.571,125.663 C460.856,125.663 462.714,123.809 462.714,121.528 C462.714,119.248 460.856,117.394 458.571,117.394 C456.287,117.394 454.429,119.248 454.429,121.528 C454.429,123.809 456.287,125.663 458.571,125.663 ZM460.452,128.785 C460.946,128.500 461.580,128.670 461.868,129.164 L464.087,133.001 L464.439,132.467 C464.619,132.197 464.916,132.025 465.241,132.005 L465.881,131.967 L463.641,128.098 C463.355,127.604 463.525,126.971 464.021,126.686 C464.514,126.399 465.149,126.569 465.436,127.064 L468.513,132.382 C468.691,132.692 468.698,133.074 468.528,133.389 C468.358,133.704 468.037,133.910 467.677,133.930 L465.884,134.039 L464.894,135.536 C464.701,135.826 464.375,136.000 464.029,136.000 L463.997,136.000 C463.639,135.989 463.311,135.793 463.131,135.483 L460.073,130.198 C459.787,129.703 459.957,129.071 460.452,128.785 Z"/>
<path fill-rule="evenodd"  stroke="rgb(160, 176, 185)" stroke-width="2px" stroke-dasharray="8, 4" stroke-linecap="butt" stroke-linejoin="miter" stroke-width="5px" stroke="rgb(255, 255, 255)" fill="rgb(255, 255, 255)"
 d="M55.500,95.000 C81.733,95.000 103.000,116.266 103.000,142.500 C103.000,168.733 81.733,190.000 55.500,190.000 C29.267,190.000 8.000,168.733 8.000,142.500 C8.000,116.266 29.267,95.000 55.500,95.000 Z"/>
<path fill-rule="evenodd"  fill="rgb(47, 64, 80)"
 d="M88.853,154.038 C88.559,155.138 87.852,156.059 86.866,156.629 L72.496,165.573 C72.383,165.648 68.966,167.867 61.266,167.867 C54.666,167.867 45.151,162.623 44.748,162.399 C44.745,162.399 42.746,161.467 38.866,161.467 C38.278,161.467 37.800,160.989 37.800,160.400 C37.800,159.811 38.278,159.334 38.866,159.334 C43.333,159.334 45.647,160.464 45.743,160.512 C45.878,160.586 55.219,165.734 61.266,165.734 C68.240,165.734 71.317,163.795 71.347,163.775 L85.768,154.799 C86.293,154.496 86.646,154.036 86.792,153.486 C86.940,152.936 86.865,152.361 86.579,151.867 C86.295,151.373 85.834,151.020 85.284,150.873 C84.734,150.726 84.159,150.801 83.666,151.086 L71.332,157.093 C68.984,158.267 66.761,158.267 62.333,158.267 C58.028,158.267 51.756,157.230 51.490,157.185 C50.910,157.088 50.518,156.539 50.613,155.958 C50.711,155.377 51.256,154.984 51.841,155.081 C51.904,155.091 58.206,156.134 62.333,156.134 C66.555,156.134 68.480,156.134 70.389,155.179 L82.665,149.204 C84.632,148.064 87.251,148.762 88.427,150.800 C88.997,151.787 89.148,152.937 88.853,154.038 ZM83.666,144.400 L78.332,144.400 C78.049,144.400 77.778,144.287 77.578,144.088 L76.512,143.021 C76.311,142.821 76.199,142.550 76.199,142.267 L76.199,140.134 L75.133,140.134 C74.543,140.134 74.066,139.656 74.066,139.067 L74.066,138.000 L71.933,138.000 C71.649,138.000 71.377,137.887 71.178,137.687 L70.111,136.619 C69.911,136.419 69.799,136.147 69.799,135.865 L69.799,133.734 L67.666,133.734 C67.382,133.734 67.112,133.621 66.912,133.421 L66.496,133.005 C66.079,132.588 66.079,131.914 66.496,131.497 C66.913,131.080 67.588,131.080 68.004,131.497 L68.108,131.600 L70.866,131.600 C71.456,131.600 71.933,132.077 71.933,132.667 L71.933,135.424 L72.375,135.867 L75.133,135.867 C75.723,135.867 76.199,136.344 76.199,136.934 L76.199,138.000 L77.266,138.000 C77.856,138.000 78.333,138.477 78.333,139.067 L78.333,141.825 L78.774,142.267 L82.599,142.267 L82.599,138.442 L71.833,127.676 C71.417,127.259 71.417,126.585 71.833,126.168 C72.251,125.751 72.925,125.751 73.342,126.168 L84.420,137.246 C84.619,137.446 84.732,137.718 84.732,138.000 L84.732,143.334 C84.732,143.922 84.256,144.400 83.666,144.400 ZM59.133,131.600 C57.744,131.600 56.377,131.378 55.072,130.942 C54.513,130.755 54.211,130.152 54.398,129.593 C54.585,129.034 55.189,128.734 55.747,128.920 C56.835,129.282 57.973,129.467 59.133,129.467 C65.013,129.467 69.799,124.682 69.799,118.800 C69.799,112.919 65.013,108.133 59.133,108.133 C53.251,108.133 48.466,112.918 48.466,118.800 C48.466,121.293 49.390,123.728 50.988,125.641 C51.463,122.343 52.319,120.126 53.234,118.637 C52.732,117.662 52.602,116.593 52.878,115.563 C53.172,114.461 53.878,113.541 54.866,112.971 C55.852,112.402 56.999,112.250 58.103,112.545 C59.204,112.841 60.124,113.545 60.694,114.533 C61.869,116.570 61.169,119.184 59.133,120.362 C58.965,120.459 58.782,120.505 58.600,120.505 C58.231,120.505 57.873,120.314 57.676,119.971 C57.381,119.461 57.555,118.808 58.065,118.514 C59.084,117.925 59.435,116.617 58.846,115.600 C58.562,115.106 58.101,114.753 57.551,114.606 C57.001,114.457 56.427,114.534 55.933,114.818 C55.439,115.104 55.086,115.563 54.939,116.114 C54.890,116.296 54.875,116.480 54.874,116.662 C55.804,115.867 56.576,115.663 56.789,115.620 C57.371,115.504 57.930,115.879 58.045,116.456 C58.159,117.026 57.797,117.579 57.234,117.706 C57.098,117.747 52.733,119.163 52.733,131.600 C52.733,135.308 53.630,138.000 54.866,138.000 C56.908,138.000 57.000,133.776 57.000,133.733 C57.000,133.143 57.477,132.667 58.066,132.667 C58.656,132.667 59.133,133.143 59.133,133.733 C59.133,136.110 58.234,140.133 54.866,140.133 C52.194,140.133 50.600,136.943 50.600,131.600 C50.600,130.447 50.639,129.385 50.705,128.391 C47.966,125.971 46.333,122.437 46.333,118.800 C46.333,111.742 52.074,106.000 59.133,106.000 C66.191,106.000 71.932,111.742 71.932,118.800 C71.932,125.857 66.191,131.600 59.133,131.600 ZM53.906,147.814 C55.773,149.213 57.888,150.800 59.133,150.800 L65.533,150.800 C68.035,150.800 69.346,152.038 69.487,152.179 C69.903,152.595 69.903,153.270 69.487,153.687 C69.278,153.896 69.006,154.000 68.733,154.000 C68.460,154.000 68.187,153.896 67.979,153.687 C67.957,153.668 67.152,152.933 65.533,152.933 L59.133,152.933 C57.177,152.933 54.966,151.276 52.626,149.520 C50.760,148.121 48.643,146.533 47.400,146.533 L38.866,146.533 C38.278,146.533 37.800,146.056 37.800,145.467 C37.800,144.877 38.278,144.400 38.866,144.400 L47.400,144.400 C49.355,144.400 51.566,146.058 53.906,147.814 ZM30.333,163.067 C30.333,163.949 29.615,164.667 28.733,164.667 C27.851,164.667 27.133,163.949 27.133,163.067 C27.133,162.185 27.851,161.467 28.733,161.467 C29.615,161.467 30.333,162.185 30.333,163.067 ZM32.466,170.000 L26.067,170.000 C25.478,170.000 25.000,169.522 25.000,168.933 C25.000,168.343 25.478,167.867 26.067,167.867 L32.466,167.867 C33.054,167.867 33.533,167.388 33.533,166.800 L33.533,143.333 C33.533,142.745 33.054,142.267 32.466,142.267 L26.067,142.267 C25.478,142.267 25.000,141.789 25.000,141.200 C25.000,140.610 25.478,140.133 26.067,140.133 L32.466,140.133 C34.231,140.133 35.666,141.568 35.666,143.333 L35.666,166.800 C35.666,168.564 34.231,170.000 32.466,170.000 Z"/>
</svg>
