<svg
 xmlns="http://www.w3.org/2000/svg"
 xmlns:xlink="http://www.w3.org/1999/xlink"
 width="64px" height="64px">
<path fill-rule="evenodd" 
 d="M63.853,48.038 C63.559,49.138 62.852,50.059 61.866,50.629 L47.496,59.573 C47.383,59.648 43.966,61.867 36.266,61.867 C29.666,61.867 20.151,56.623 19.748,56.399 C19.745,56.399 17.746,55.467 13.866,55.467 C13.278,55.467 12.800,54.989 12.800,54.400 C12.800,53.811 13.278,53.334 13.866,53.334 C18.333,53.334 20.647,54.464 20.743,54.512 C20.878,54.586 30.219,59.734 36.266,59.734 C43.240,59.734 46.317,57.795 46.347,57.775 L60.768,48.799 C61.293,48.496 61.646,48.036 61.792,47.486 C61.940,46.936 61.865,46.361 61.579,45.867 C61.295,45.373 60.834,45.020 60.284,44.873 C59.734,44.726 59.159,44.801 58.666,45.086 L46.332,51.093 C43.984,52.267 41.761,52.267 37.333,52.267 C33.028,52.267 26.756,51.230 26.490,51.185 C25.910,51.088 25.518,50.539 25.613,49.958 C25.711,49.377 26.256,48.984 26.841,49.081 C26.904,49.091 33.206,50.134 37.333,50.134 C41.555,50.134 43.480,50.134 45.389,49.179 L57.665,43.204 C59.632,42.064 62.251,42.762 63.427,44.800 C63.997,45.787 64.148,46.937 63.853,48.038 ZM58.666,38.400 L53.332,38.400 C53.049,38.400 52.778,38.287 52.578,38.088 L51.512,37.021 C51.311,36.821 51.199,36.550 51.199,36.267 L51.199,34.134 L50.133,34.134 C49.543,34.134 49.066,33.656 49.066,33.067 L49.066,32.000 L46.933,32.000 C46.649,32.000 46.377,31.887 46.178,31.687 L45.111,30.619 C44.911,30.419 44.799,30.147 44.799,29.865 L44.799,27.734 L42.666,27.734 C42.382,27.734 42.112,27.621 41.912,27.421 L41.496,27.005 C41.079,26.588 41.079,25.914 41.496,25.497 C41.913,25.080 42.588,25.080 43.004,25.497 L43.108,25.600 L45.866,25.600 C46.456,25.600 46.933,26.077 46.933,26.667 L46.933,29.424 L47.375,29.867 L50.133,29.867 C50.723,29.867 51.199,30.344 51.199,30.934 L51.199,32.000 L52.266,32.000 C52.856,32.000 53.333,32.477 53.333,33.067 L53.333,35.825 L53.774,36.267 L57.599,36.267 L57.599,32.442 L46.833,21.676 C46.417,21.259 46.417,20.585 46.833,20.168 C47.251,19.751 47.925,19.751 48.342,20.168 L59.420,31.246 C59.619,31.446 59.732,31.718 59.732,32.000 L59.732,37.334 C59.732,37.922 59.256,38.400 58.666,38.400 ZM34.133,25.600 C32.744,25.600 31.377,25.378 30.072,24.942 C29.513,24.755 29.211,24.152 29.398,23.593 C29.585,23.034 30.189,22.734 30.747,22.920 C31.835,23.282 32.973,23.467 34.133,23.467 C40.013,23.467 44.799,18.682 44.799,12.800 C44.799,6.919 40.013,2.133 34.133,2.133 C28.251,2.133 23.466,6.918 23.466,12.800 C23.466,15.293 24.390,17.728 25.988,19.641 C26.463,16.343 27.319,14.126 28.234,12.637 C27.732,11.662 27.602,10.593 27.878,9.563 C28.172,8.461 28.878,7.541 29.866,6.971 C30.852,6.402 31.999,6.250 33.103,6.545 C34.204,6.841 35.124,7.545 35.694,8.533 C36.869,10.570 36.169,13.184 34.133,14.362 C33.965,14.459 33.782,14.505 33.600,14.505 C33.231,14.505 32.873,14.314 32.676,13.971 C32.381,13.461 32.555,12.808 33.065,12.514 C34.084,11.925 34.435,10.617 33.846,9.600 C33.562,9.106 33.101,8.753 32.551,8.606 C32.001,8.457 31.427,8.534 30.933,8.818 C30.439,9.104 30.086,9.563 29.939,10.114 C29.890,10.296 29.875,10.480 29.874,10.662 C30.804,9.867 31.576,9.663 31.789,9.620 C32.371,9.504 32.930,9.879 33.045,10.456 C33.159,11.026 32.797,11.579 32.234,11.706 C32.098,11.747 27.733,13.163 27.733,25.600 C27.733,29.308 28.630,32.000 29.866,32.000 C31.908,32.000 32.000,27.776 32.000,27.733 C32.000,27.143 32.477,26.667 33.066,26.667 C33.656,26.667 34.133,27.143 34.133,27.733 C34.133,30.110 33.234,34.133 29.866,34.133 C27.194,34.133 25.600,30.943 25.600,25.600 C25.600,24.447 25.639,23.385 25.705,22.391 C22.966,19.971 21.333,16.437 21.333,12.800 C21.333,5.742 27.074,-0.000 34.133,-0.000 C41.191,-0.000 46.932,5.742 46.932,12.800 C46.932,19.857 41.191,25.600 34.133,25.600 ZM28.906,41.814 C30.773,43.213 32.888,44.800 34.133,44.800 L40.533,44.800 C43.035,44.800 44.346,46.038 44.487,46.179 C44.903,46.595 44.903,47.270 44.487,47.687 C44.278,47.896 44.006,48.000 43.733,48.000 C43.460,48.000 43.187,47.896 42.979,47.687 C42.957,47.668 42.152,46.933 40.533,46.933 L34.133,46.933 C32.177,46.933 29.966,45.276 27.626,43.520 C25.760,42.121 23.643,40.533 22.400,40.533 L13.866,40.533 C13.278,40.533 12.800,40.056 12.800,39.467 C12.800,38.877 13.278,38.400 13.866,38.400 L22.400,38.400 C24.355,38.400 26.566,40.058 28.906,41.814 ZM5.333,57.067 C5.333,57.949 4.615,58.667 3.733,58.667 C2.851,58.667 2.133,57.949 2.133,57.067 C2.133,56.185 2.851,55.467 3.733,55.467 C4.615,55.467 5.333,56.185 5.333,57.067 ZM7.466,64.000 L1.067,64.000 C0.478,64.000 -0.000,63.522 -0.000,62.933 C-0.000,62.343 0.478,61.867 1.067,61.867 L7.466,61.867 C8.054,61.867 8.533,61.388 8.533,60.800 L8.533,37.333 C8.533,36.745 8.054,36.267 7.466,36.267 L1.067,36.267 C0.478,36.267 -0.000,35.789 -0.000,35.200 C-0.000,34.610 0.478,34.133 1.067,34.133 L7.466,34.133 C9.231,34.133 10.666,35.568 10.666,37.333 L10.666,60.800 C10.666,62.564 9.231,64.000 7.466,64.000 Z"/>
</svg>
