<svg
 xmlns="http://www.w3.org/2000/svg"
 xmlns:xlink="http://www.w3.org/1999/xlink"
 width="276px" height="91px">
<path fill-rule="evenodd"  fill="rgb(201, 211, 217)"
 d="M63.691,33.557 L62.139,35.292 C61.919,35.538 61.940,35.915 62.186,36.136 L64.782,38.457 L64.563,38.702 C64.343,38.948 64.364,39.326 64.610,39.546 L84.875,57.673 C86.145,58.808 87.612,59.647 89.235,60.165 L91.422,60.863 C91.483,60.882 91.546,60.891 91.607,60.890 L92.456,61.650 C92.702,61.870 93.080,61.849 93.300,61.603 C93.410,61.480 93.460,61.324 93.452,61.171 C93.443,61.018 93.376,60.869 93.253,60.759 L92.404,60.000 C92.398,59.938 92.382,59.877 92.356,59.819 L91.420,57.722 C90.725,56.167 89.728,54.802 88.459,53.666 L70.713,37.794 C71.197,37.655 72.057,37.906 72.814,38.584 L78.155,43.361 C78.401,43.581 78.779,43.560 78.999,43.314 C79.109,43.191 79.159,43.035 79.150,42.882 C79.142,42.729 79.075,42.580 78.952,42.470 L73.611,37.693 C72.976,37.124 72.232,36.740 71.517,36.610 C70.833,36.486 70.214,36.610 69.772,36.952 L68.193,35.540 C67.948,35.320 67.570,35.341 67.350,35.587 L67.131,35.832 L64.535,33.510 C64.289,33.290 63.911,33.311 63.691,33.557 ZM87.662,54.557 C88.805,55.580 89.703,56.809 90.328,58.210 L90.875,59.434 L89.598,59.026 C88.137,58.560 86.815,57.804 85.672,56.781 L84.989,56.171 L86.979,53.946 L87.662,54.557 ZM86.088,53.150 L84.098,55.374 L65.852,39.054 L67.842,36.829 L86.088,53.150 ZM66.334,36.723 L65.579,37.567 L63.428,35.643 L64.183,34.799 L66.334,36.723 Z"/>
<path fill-rule="evenodd"  fill="rgb(201, 211, 217)"
 d="M225.820,71.225 L226.378,72.919 L222.119,74.269 L221.561,72.576 L206.232,77.436 L206.790,79.129 L202.532,80.480 L201.974,78.786 L201.122,79.056 L194.428,58.733 L219.977,50.633 L221.092,54.020 L221.929,56.560 L224.719,65.028 L225.555,67.568 L226.671,70.955 L225.820,71.225 ZM222.692,73.152 L225.247,72.342 L224.968,71.495 L222.413,72.305 L222.692,73.152 ZM203.105,79.363 L205.660,78.553 L205.381,77.706 L202.826,78.516 L203.105,79.363 ZM220.520,55.137 L219.668,55.406 L217.965,55.947 L218.244,56.793 L219.947,56.253 L220.799,55.983 L220.520,55.137 ZM222.164,65.838 L219.374,57.370 L217.671,57.910 L216.834,55.370 L218.538,54.830 L218.260,53.986 L197.823,60.463 L202.839,75.702 L223.276,69.226 L222.999,68.379 L221.297,68.918 L220.461,66.378 L222.164,65.838 ZM221.078,56.830 L220.226,57.100 L223.015,65.568 L223.867,65.298 L221.078,56.830 ZM224.146,66.145 L223.294,66.415 L221.591,66.955 L221.870,67.802 L223.573,67.261 L224.425,66.992 L224.146,66.145 ZM224.704,67.838 L223.852,68.108 L224.130,68.952 C224.285,69.421 224.027,69.923 223.555,70.073 L203.123,76.551 C202.652,76.701 202.142,76.441 201.988,75.972 L196.969,60.737 C196.815,60.268 197.073,59.765 197.544,59.616 L217.976,53.137 C218.448,52.988 218.957,53.247 219.111,53.716 L219.389,54.560 L220.241,54.290 L219.404,51.750 L195.558,59.310 L201.695,77.939 L205.953,76.589 L221.283,71.729 L225.541,70.379 L224.704,67.838 ZM219.323,67.207 C219.088,67.281 218.834,67.152 218.757,66.918 L218.618,66.495 C218.541,66.261 218.669,66.011 218.904,65.936 C219.140,65.862 219.392,65.991 219.469,66.225 L219.609,66.648 C219.686,66.882 219.558,67.132 219.323,67.207 ZM218.765,65.513 C218.530,65.587 218.277,65.459 218.199,65.224 L218.060,64.801 C217.983,64.567 218.111,64.317 218.346,64.243 C218.582,64.168 218.834,64.297 218.912,64.531 L219.051,64.955 C219.128,65.189 219.000,65.438 218.765,65.513 ZM218.207,63.819 C217.972,63.894 217.719,63.765 217.642,63.531 L217.502,63.108 C217.425,62.873 217.553,62.624 217.788,62.549 C218.024,62.474 218.277,62.603 218.354,62.838 L218.493,63.261 C218.570,63.495 218.442,63.745 218.207,63.819 ZM211.423,60.359 L217.385,58.469 L218.222,61.009 L212.260,62.899 L211.423,60.359 ZM212.833,61.782 L217.091,60.432 L216.812,59.585 L212.554,60.936 L212.833,61.782 ZM211.115,65.133 L209.378,65.683 C209.471,66.207 209.424,66.729 209.260,67.210 L210.892,68.042 C211.113,68.155 211.201,68.423 211.089,68.641 C211.033,68.750 210.938,68.826 210.829,68.861 C210.720,68.895 210.597,68.888 210.487,68.832 L208.855,67.999 C208.560,68.413 208.163,68.757 207.683,68.989 L208.252,70.717 C208.329,70.951 208.201,71.201 207.965,71.275 C207.731,71.350 207.477,71.221 207.400,70.987 L206.831,69.259 C206.303,69.347 205.776,69.296 205.291,69.129 L204.464,70.742 C204.408,70.850 204.313,70.926 204.204,70.961 C204.095,70.996 203.972,70.989 203.862,70.932 C203.641,70.820 203.553,70.552 203.665,70.334 L204.491,68.722 C204.072,68.427 203.722,68.030 203.484,67.552 L201.747,68.103 C201.512,68.177 201.259,68.049 201.182,67.815 C201.105,67.580 201.233,67.331 201.468,67.256 L203.205,66.705 C203.113,66.182 203.160,65.659 203.324,65.179 L201.692,64.346 C201.471,64.234 201.383,63.966 201.495,63.748 C201.607,63.529 201.876,63.444 202.097,63.557 L203.729,64.389 C204.023,63.975 204.420,63.631 204.900,63.399 L204.331,61.672 C204.254,61.438 204.383,61.188 204.618,61.114 C204.853,61.039 205.106,61.168 205.183,61.402 L205.752,63.129 C206.280,63.042 206.807,63.092 207.292,63.259 L208.119,61.647 C208.231,61.429 208.500,61.344 208.721,61.456 C208.942,61.569 209.030,61.837 208.918,62.055 L208.092,63.667 C208.511,63.962 208.861,64.359 209.099,64.837 L210.836,64.286 C211.071,64.211 211.324,64.340 211.401,64.574 C211.478,64.808 211.350,65.058 211.115,65.133 ZM208.420,65.519 C208.036,64.352 206.768,63.705 205.594,64.077 C204.420,64.450 203.778,65.702 204.162,66.869 C204.547,68.037 205.815,68.684 206.989,68.311 C208.163,67.939 208.805,66.686 208.420,65.519 ZM206.431,66.618 C206.196,66.692 205.943,66.563 205.866,66.329 C205.789,66.096 205.917,65.845 206.152,65.771 C206.387,65.696 206.640,65.825 206.717,66.059 C206.794,66.293 206.666,66.543 206.431,66.618 ZM213.530,63.899 C213.765,63.825 214.018,63.953 214.096,64.188 L214.235,64.611 C214.312,64.845 214.184,65.095 213.949,65.169 C213.714,65.244 213.461,65.115 213.383,64.881 L213.244,64.458 C213.167,64.224 213.295,63.974 213.530,63.899 ZM214.088,65.593 C214.323,65.518 214.576,65.647 214.653,65.881 L214.793,66.305 C214.870,66.539 214.742,66.788 214.507,66.863 C214.271,66.938 214.018,66.809 213.941,66.575 L213.802,66.151 C213.725,65.917 213.853,65.667 214.088,65.593 ZM214.646,67.286 C214.881,67.212 215.134,67.341 215.211,67.575 L215.351,67.998 C215.428,68.232 215.300,68.482 215.064,68.557 C214.829,68.631 214.576,68.502 214.499,68.268 L214.360,67.845 C214.283,67.611 214.411,67.361 214.646,67.286 ZM215.659,63.224 C215.894,63.150 216.147,63.278 216.225,63.513 L216.364,63.936 C216.441,64.170 216.313,64.420 216.078,64.494 C215.843,64.569 215.590,64.440 215.512,64.206 L215.373,63.783 C215.296,63.548 215.424,63.299 215.659,63.224 ZM216.217,64.918 C216.452,64.843 216.705,64.972 216.782,65.206 L216.922,65.630 C216.999,65.864 216.871,66.113 216.636,66.188 C216.401,66.262 216.147,66.134 216.070,65.900 L215.931,65.476 C215.854,65.242 215.982,64.992 216.217,64.918 ZM216.775,66.611 C217.010,66.537 217.263,66.665 217.340,66.900 L217.480,67.323 C217.557,67.557 217.429,67.807 217.194,67.881 C216.958,67.956 216.705,67.827 216.628,67.593 L216.489,67.170 C216.412,66.936 216.540,66.686 216.775,66.611 Z"/>
<path fill-rule="evenodd"  stroke="rgb(160, 176, 185)" stroke-width="2px" stroke-dasharray="8, 4" stroke-linecap="butt" stroke-linejoin="miter" fill="none"
 d="M274.000,48.000 C274.000,48.000 159.000,165.418 0.000,1.000 "/>
</svg>
