<svg
 xmlns="http://www.w3.org/2000/svg"
 xmlns:xlink="http://www.w3.org/1999/xlink"
 width="36px" height="36px">
<path fill-rule="evenodd" 
 d="M35.492,29.762 L34.583,29.902 C34.173,29.965 33.843,30.219 33.678,30.598 C33.512,30.977 33.551,31.392 33.783,31.734 L34.277,32.465 C34.439,32.703 34.408,33.022 34.205,33.226 L33.030,34.401 C32.821,34.610 32.491,34.636 32.251,34.461 L31.729,34.078 C31.393,33.832 30.963,33.779 30.577,33.939 C30.192,34.098 29.924,34.439 29.861,34.852 L29.762,35.491 C29.717,35.784 29.465,36.000 29.170,36.000 L27.508,36.000 C27.220,36.000 26.972,35.795 26.918,35.514 L26.752,34.648 C26.674,34.241 26.408,33.922 26.023,33.770 C25.638,33.618 25.225,33.673 24.892,33.917 L24.150,34.462 C23.910,34.636 23.579,34.610 23.371,34.402 L22.196,33.226 C21.992,33.023 21.962,32.703 22.123,32.465 L22.618,31.735 C22.850,31.392 22.888,30.978 22.723,30.598 C22.557,30.219 22.228,29.965 21.818,29.902 L20.909,29.762 C20.616,29.717 20.400,29.465 20.400,29.170 L20.400,27.508 C20.400,27.220 20.605,26.972 20.887,26.918 L21.753,26.752 C22.159,26.674 22.479,26.408 22.630,26.023 C22.782,25.637 22.728,25.225 22.483,24.892 L21.939,24.150 C21.764,23.911 21.789,23.580 21.999,23.371 L23.174,22.196 C23.378,21.993 23.697,21.962 23.935,22.123 L24.878,22.762 C25.214,22.988 25.619,23.032 25.994,22.875 C26.368,22.720 26.627,22.403 26.703,22.006 L26.918,20.887 C26.972,20.605 27.220,20.400 27.507,20.400 L29.169,20.400 C29.465,20.400 29.717,20.616 29.761,20.908 L29.901,21.817 C29.964,22.227 30.218,22.557 30.597,22.722 C30.977,22.888 31.392,22.850 31.734,22.617 L32.464,22.123 C32.702,21.962 33.022,21.992 33.225,22.195 L34.400,23.370 C34.610,23.579 34.636,23.911 34.460,24.149 L33.916,24.891 C33.671,25.225 33.617,25.637 33.769,26.022 C33.920,26.408 34.240,26.673 34.646,26.752 L35.513,26.918 C35.795,26.972 36.000,27.220 36.000,27.507 L36.000,29.169 C36.000,29.465 35.784,29.717 35.492,29.762 ZM34.800,28.003 L34.421,27.930 C33.614,27.775 32.953,27.226 32.653,26.461 C32.353,25.696 32.463,24.843 32.949,24.181 L33.188,23.855 L32.728,23.394 L32.408,23.611 C31.728,24.071 30.872,24.151 30.119,23.822 C29.366,23.494 28.841,22.813 28.717,22.000 L28.655,21.600 L28.003,21.600 L27.883,22.232 C27.731,23.021 27.197,23.676 26.455,23.984 C25.712,24.291 24.871,24.207 24.206,23.755 L23.673,23.394 L23.212,23.855 L23.452,24.181 C23.937,24.844 24.048,25.696 23.748,26.461 C23.448,27.226 22.787,27.775 21.980,27.930 L21.600,28.003 L21.600,28.655 L22.000,28.716 C22.812,28.841 23.494,29.365 23.822,30.118 C24.150,30.871 24.071,31.727 23.611,32.407 L23.394,32.727 L23.855,33.188 L24.181,32.948 C24.844,32.464 25.696,32.352 26.461,32.652 C27.226,32.952 27.775,33.613 27.931,34.420 L28.003,34.800 L28.655,34.800 L28.675,34.669 C28.802,33.839 29.341,33.152 30.118,32.830 C30.894,32.510 31.761,32.614 32.439,33.110 L32.545,33.188 L33.006,32.728 L32.789,32.408 C32.329,31.728 32.249,30.872 32.578,30.119 C32.906,29.366 33.587,28.841 34.400,28.717 L34.800,28.655 L34.800,28.003 ZM28.200,31.200 C26.546,31.200 25.200,29.854 25.200,28.200 C25.200,26.546 26.546,25.200 28.200,25.200 C29.854,25.200 31.200,26.546 31.200,28.200 C31.200,29.854 29.854,31.200 28.200,31.200 ZM28.200,26.400 C27.208,26.400 26.400,27.207 26.400,28.200 C26.400,29.192 27.208,30.000 28.200,30.000 C29.192,30.000 30.000,29.192 30.000,28.200 C30.000,27.207 29.192,26.400 28.200,26.400 ZM31.800,18.600 C31.800,18.931 31.531,19.200 31.200,19.200 C30.869,19.200 30.600,18.931 30.600,18.600 C30.600,18.269 30.869,18.000 31.200,18.000 C31.531,18.000 31.800,18.269 31.800,18.600 ZM30.000,16.200 C30.331,16.200 30.600,16.469 30.600,16.800 C30.600,17.131 30.331,17.400 30.000,17.400 C29.669,17.400 29.400,17.131 29.400,16.800 C29.400,16.469 29.669,16.200 30.000,16.200 ZM28.800,19.200 C28.469,19.200 28.200,18.931 28.200,18.600 C28.200,18.269 28.469,18.000 28.800,18.000 C29.131,18.000 29.400,18.269 29.400,18.600 C29.400,18.931 29.131,19.200 28.800,19.200 ZM27.600,16.200 C27.931,16.200 28.200,16.469 28.200,16.800 C28.200,17.131 27.931,17.400 27.600,17.400 C27.269,17.400 27.000,17.131 27.000,16.800 C27.000,16.469 27.269,16.200 27.600,16.200 ZM26.400,19.200 C26.069,19.200 25.800,18.931 25.800,18.600 C25.800,18.269 26.069,18.000 26.400,18.000 C26.731,18.000 27.000,18.269 27.000,18.600 C27.000,18.931 26.731,19.200 26.400,19.200 ZM25.200,16.200 C25.531,16.200 25.800,16.469 25.800,16.800 C25.800,17.131 25.531,17.400 25.200,17.400 C24.869,17.400 24.600,17.131 24.600,16.800 C24.600,16.469 24.869,16.200 25.200,16.200 ZM24.000,19.200 C23.669,19.200 23.400,18.931 23.400,18.600 C23.400,18.269 23.669,18.000 24.000,18.000 C24.331,18.000 24.600,18.269 24.600,18.600 C24.600,18.931 24.331,19.200 24.000,19.200 ZM22.800,16.200 C23.131,16.200 23.400,16.469 23.400,16.800 C23.400,17.131 23.131,17.400 22.800,17.400 C22.469,17.400 22.200,17.131 22.200,16.800 C22.200,16.469 22.469,16.200 22.800,16.200 ZM21.600,19.200 C21.269,19.200 21.000,18.931 21.000,18.600 C21.000,18.269 21.269,18.000 21.600,18.000 C21.931,18.000 22.200,18.269 22.200,18.600 C22.200,18.931 21.931,19.200 21.600,19.200 ZM3.600,17.700 C3.600,16.211 4.811,15.000 6.300,15.000 C7.789,15.000 9.000,16.211 9.000,17.700 C9.000,19.189 7.789,20.400 6.300,20.400 C4.811,20.400 3.600,19.189 3.600,17.700 ZM7.800,17.700 C7.800,16.873 7.127,16.200 6.300,16.200 C5.473,16.200 4.800,16.873 4.800,17.700 C4.800,18.527 5.473,19.200 6.300,19.200 C7.127,19.200 7.800,18.527 7.800,17.700 ZM3.600,29.100 C3.600,27.611 4.811,26.400 6.300,26.400 C7.789,26.400 9.000,27.611 9.000,29.100 C9.000,30.589 7.789,31.800 6.300,31.800 C4.811,31.800 3.600,30.589 3.600,29.100 ZM7.800,29.100 C7.800,28.273 7.127,27.600 6.300,27.600 C5.473,27.600 4.800,28.273 4.800,29.100 C4.800,29.927 5.473,30.600 6.300,30.600 C7.127,30.600 7.800,29.927 7.800,29.100 ZM34.800,14.165 C34.800,13.302 34.098,12.600 33.235,12.600 L2.765,12.600 C1.902,12.600 1.200,13.302 1.200,14.165 L1.200,21.235 C1.200,22.098 1.902,22.800 2.765,22.800 L16.800,22.800 L16.800,24.000 L2.765,24.000 C1.902,24.000 1.200,24.702 1.200,25.565 L1.200,32.635 C1.200,33.498 1.902,34.200 2.765,34.200 L19.800,34.200 L19.800,35.400 L2.765,35.400 C1.240,35.400 0.000,34.160 0.000,32.635 L0.000,25.565 C0.000,24.684 0.422,23.907 1.066,23.400 C0.422,22.893 0.000,22.116 0.000,21.235 L0.000,14.165 C0.000,13.284 0.422,12.507 1.066,12.000 C0.422,11.493 0.000,10.716 0.000,9.834 L0.000,2.765 C0.000,1.240 1.240,-0.000 2.765,-0.000 L33.235,-0.000 C34.760,-0.000 36.000,1.240 36.000,2.765 L36.000,9.835 C36.000,10.716 35.578,11.493 34.934,12.000 C35.578,12.506 36.000,13.284 36.000,14.165 L36.000,21.000 L34.800,21.000 L34.800,14.165 ZM34.800,2.765 C34.800,1.902 34.098,1.200 33.235,1.200 L2.765,1.200 C1.902,1.200 1.200,1.902 1.200,2.765 L1.200,9.835 C1.200,10.698 1.902,11.400 2.765,11.400 L33.235,11.400 C34.098,11.400 34.800,10.698 34.800,9.834 L34.800,2.765 ZM31.200,7.800 C30.869,7.800 30.600,7.531 30.600,7.200 C30.600,6.869 30.869,6.600 31.200,6.600 C31.531,6.600 31.800,6.869 31.800,7.200 C31.800,7.531 31.531,7.800 31.200,7.800 ZM30.000,6.000 C29.669,6.000 29.400,5.732 29.400,5.400 C29.400,5.069 29.669,4.800 30.000,4.800 C30.331,4.800 30.600,5.069 30.600,5.400 C30.600,5.732 30.331,6.000 30.000,6.000 ZM28.800,7.800 C28.469,7.800 28.200,7.531 28.200,7.200 C28.200,6.869 28.469,6.600 28.800,6.600 C29.131,6.600 29.400,6.869 29.400,7.200 C29.400,7.531 29.131,7.800 28.800,7.800 ZM27.600,6.000 C27.269,6.000 27.000,5.732 27.000,5.400 C27.000,5.069 27.269,4.800 27.600,4.800 C27.931,4.800 28.200,5.069 28.200,5.400 C28.200,5.732 27.931,6.000 27.600,6.000 ZM26.400,7.800 C26.069,7.800 25.800,7.531 25.800,7.200 C25.800,6.869 26.069,6.600 26.400,6.600 C26.731,6.600 27.000,6.869 27.000,7.200 C27.000,7.531 26.731,7.800 26.400,7.800 ZM25.200,6.000 C24.869,6.000 24.600,5.732 24.600,5.400 C24.600,5.069 24.869,4.800 25.200,4.800 C25.531,4.800 25.800,5.069 25.800,5.400 C25.800,5.732 25.531,6.000 25.200,6.000 ZM24.000,7.800 C23.669,7.800 23.400,7.531 23.400,7.200 C23.400,6.869 23.669,6.600 24.000,6.600 C24.331,6.600 24.600,6.869 24.600,7.200 C24.600,7.531 24.331,7.800 24.000,7.800 ZM22.800,6.000 C22.469,6.000 22.200,5.732 22.200,5.400 C22.200,5.069 22.469,4.800 22.800,4.800 C23.131,4.800 23.400,5.069 23.400,5.400 C23.400,5.732 23.131,6.000 22.800,6.000 ZM21.600,7.800 C21.269,7.800 21.000,7.531 21.000,7.200 C21.000,6.869 21.269,6.600 21.600,6.600 C21.931,6.600 22.200,6.869 22.200,7.200 C22.200,7.531 21.931,7.800 21.600,7.800 ZM20.400,6.000 C20.069,6.000 19.800,5.732 19.800,5.400 C19.800,5.069 20.069,4.800 20.400,4.800 C20.731,4.800 21.000,5.069 21.000,5.400 C21.000,5.732 20.731,6.000 20.400,6.000 ZM6.300,9.000 C4.811,9.000 3.600,7.789 3.600,6.300 C3.600,4.811 4.811,3.600 6.300,3.600 C7.789,3.600 9.000,4.811 9.000,6.300 C9.000,7.789 7.789,9.000 6.300,9.000 ZM6.300,4.800 C5.473,4.800 4.800,5.473 4.800,6.300 C4.800,7.127 5.473,7.800 6.300,7.800 C7.127,7.800 7.800,7.127 7.800,6.300 C7.800,5.473 7.127,4.800 6.300,4.800 ZM20.400,16.200 C20.731,16.200 21.000,16.469 21.000,16.800 C21.000,17.131 20.731,17.400 20.400,17.400 C20.069,17.400 19.800,17.131 19.800,16.800 C19.800,16.469 20.069,16.200 20.400,16.200 Z"/>
</svg>
