<svg
 xmlns="http://www.w3.org/2000/svg"
 xmlns:xlink="http://www.w3.org/1999/xlink"
 width="384px" height="107px">
<path fill-rule="evenodd"  stroke="rgb(160, 176, 185)" stroke-width="2px" stroke-dasharray="8, 4" stroke-linecap="butt" stroke-linejoin="miter" fill="none"
 d="M1.000,103.000 C1.000,103.000 152.285,-64.369 382.000,73.000 "/>
<path fill-rule="evenodd"  fill="rgb(201, 211, 217)"
 d="M105.214,49.918 C104.326,50.057 103.459,49.921 102.695,49.575 L98.667,55.106 C99.227,55.731 99.620,56.519 99.758,57.410 C100.136,59.853 98.464,62.150 96.030,62.530 C93.596,62.910 91.308,61.231 90.930,58.788 C90.797,57.930 90.918,57.090 91.235,56.344 L85.638,52.236 C85.015,52.799 84.230,53.193 83.342,53.332 C82.454,53.470 81.587,53.334 80.823,52.988 L76.795,58.519 C77.356,59.144 77.748,59.932 77.886,60.823 C78.265,63.266 76.592,65.563 74.158,65.943 C71.724,66.323 69.436,64.644 69.058,62.201 C68.680,59.758 70.352,57.461 72.786,57.081 C73.674,56.943 74.541,57.079 75.305,57.425 L79.333,51.894 C78.772,51.269 78.380,50.481 78.242,49.590 C77.864,47.147 79.536,44.850 81.970,44.470 C84.404,44.090 86.692,45.769 87.070,48.212 C87.208,49.103 87.072,49.974 86.727,50.740 L92.294,54.825 C92.927,54.229 93.738,53.812 94.658,53.668 C95.546,53.530 96.413,53.666 97.177,54.012 L101.205,48.481 C100.644,47.856 100.252,47.068 100.114,46.177 C99.735,43.733 101.408,41.437 103.842,41.057 C106.276,40.677 108.564,42.356 108.942,44.799 C109.320,47.242 107.648,49.539 105.214,49.918 ZM76.062,61.108 C75.840,59.675 74.498,58.690 73.070,58.913 C71.642,59.136 70.661,60.483 70.883,61.916 C71.104,63.350 72.447,64.334 73.875,64.112 C75.303,63.889 76.284,62.542 76.062,61.108 ZM85.246,48.497 C85.024,47.064 83.682,46.079 82.254,46.302 C80.826,46.524 79.845,47.872 80.067,49.305 C80.288,50.739 81.631,51.723 83.059,51.500 C84.487,51.278 85.468,49.930 85.246,48.497 ZM97.933,57.695 C97.711,56.262 96.369,55.277 94.941,55.500 C93.513,55.723 92.532,57.070 92.754,58.503 C92.976,59.936 94.318,60.921 95.746,60.699 C97.174,60.475 98.155,59.128 97.933,57.695 ZM107.117,45.084 C106.895,43.650 105.553,42.666 104.125,42.888 C102.697,43.111 101.716,44.459 101.938,45.892 C102.160,47.325 103.502,48.310 104.930,48.087 C106.358,47.864 107.339,46.517 107.117,45.084 ZM96.517,50.965 C96.366,51.171 96.147,51.297 95.913,51.334 C95.680,51.370 95.432,51.317 95.226,51.166 C94.815,50.864 94.725,50.285 95.026,49.871 L96.593,47.719 C96.894,47.306 97.472,47.216 97.884,47.518 C98.295,47.820 98.385,48.399 98.084,48.813 L96.517,50.965 ZM81.488,56.068 C81.789,55.655 82.366,55.565 82.778,55.867 C83.190,56.169 83.279,56.748 82.978,57.162 L81.411,59.314 C81.261,59.520 81.041,59.646 80.808,59.683 C80.574,59.719 80.327,59.666 80.121,59.515 C79.709,59.213 79.620,58.633 79.920,58.220 L81.488,56.068 Z"/>
<path fill-rule="evenodd"  fill="rgb(201, 211, 217)"
 d="M328.500,38.481 L326.500,38.481 C326.223,38.481 326.000,38.250 326.000,37.963 C326.000,37.676 326.223,37.444 326.500,37.444 L328.500,37.444 C328.776,37.444 329.000,37.676 329.000,37.963 C329.000,38.250 328.776,38.481 328.500,38.481 ZM324.986,47.281 C324.858,47.281 324.729,47.230 324.632,47.129 L323.218,45.663 C323.022,45.460 323.022,45.133 323.218,44.930 C323.413,44.727 323.730,44.727 323.925,44.930 L325.339,46.396 C325.534,46.599 325.534,46.927 325.339,47.129 C325.241,47.230 325.114,47.281 324.986,47.281 ZM323.925,30.996 C323.827,31.097 323.699,31.148 323.572,31.148 C323.444,31.148 323.315,31.097 323.218,30.996 C323.022,30.793 323.022,30.466 323.218,30.263 L324.632,28.797 C324.827,28.594 325.143,28.594 325.339,28.797 C325.534,28.999 325.534,29.327 325.339,29.530 L323.925,30.996 ZM319.500,46.207 L319.500,50.926 C319.500,51.213 319.277,51.444 319.000,51.444 L318.500,51.444 L318.500,52.482 C318.500,52.768 318.277,53.000 318.000,53.000 L315.000,53.000 C314.724,53.000 314.500,52.768 314.500,52.482 L314.500,51.444 L314.000,51.444 C313.723,51.444 313.500,51.213 313.500,50.926 L313.500,46.207 C310.195,44.917 308.000,41.651 308.000,37.963 C308.000,33.102 311.813,29.148 316.500,29.148 C321.187,29.148 325.000,33.102 325.000,37.963 C325.000,41.651 322.804,44.917 319.500,46.207 ZM314.500,50.407 L315.000,50.407 C315.276,50.407 315.500,50.639 315.500,50.926 L315.500,51.963 L317.500,51.963 L317.500,50.926 C317.500,50.639 317.723,50.407 318.000,50.407 L318.500,50.407 L318.500,47.815 L314.500,47.815 L314.500,50.407 ZM316.500,30.185 C312.365,30.185 309.000,33.674 309.000,37.963 C309.000,41.328 311.072,44.296 314.156,45.348 C314.361,45.418 314.500,45.616 314.500,45.840 L314.500,46.778 L318.500,46.778 L318.500,45.840 C318.500,45.617 318.639,45.418 318.844,45.348 C321.927,44.296 324.000,41.328 324.000,37.963 C324.000,33.674 320.636,30.185 316.500,30.185 ZM316.500,32.778 C313.743,32.778 311.500,35.104 311.500,37.963 C311.500,38.250 311.276,38.481 311.000,38.481 C310.724,38.481 310.500,38.250 310.500,37.963 C310.500,34.532 313.192,31.741 316.500,31.741 C316.776,31.741 317.000,31.972 317.000,32.259 C317.000,32.546 316.776,32.778 316.500,32.778 ZM316.500,28.111 C316.223,28.111 316.000,27.879 316.000,27.593 L316.000,25.518 C316.000,25.232 316.223,25.000 316.500,25.000 C316.776,25.000 317.000,25.232 317.000,25.518 L317.000,27.593 C317.000,27.879 316.776,28.111 316.500,28.111 ZM309.429,31.148 C309.301,31.148 309.172,31.097 309.075,30.996 L307.661,29.530 C307.465,29.327 307.465,28.999 307.661,28.797 C307.856,28.594 308.173,28.594 308.368,28.797 L309.782,30.263 C309.977,30.466 309.977,30.793 309.782,30.996 C309.684,31.097 309.557,31.148 309.429,31.148 ZM306.500,38.481 L304.500,38.481 C304.223,38.481 304.000,38.250 304.000,37.963 C304.000,37.676 304.223,37.444 304.500,37.444 L306.500,37.444 C306.777,37.444 307.000,37.676 307.000,37.963 C307.000,38.250 306.777,38.481 306.500,38.481 ZM309.075,44.930 C309.271,44.727 309.586,44.727 309.782,44.930 C309.977,45.133 309.977,45.460 309.782,45.663 L308.368,47.129 C308.270,47.230 308.142,47.281 308.015,47.281 C307.887,47.281 307.759,47.230 307.661,47.129 C307.465,46.927 307.465,46.599 307.661,46.396 L309.075,44.930 Z"/>
<path fill-rule="evenodd"  fill="rgb(201, 211, 217)"
 d="M220.479,28.079 C222.429,28.953 223.779,30.884 223.758,33.109 C223.755,33.437 223.479,33.701 223.142,33.698 C222.805,33.695 222.534,33.426 222.538,33.097 C222.560,30.736 220.608,28.796 218.187,28.774 C215.766,28.751 213.778,30.653 213.756,33.015 C213.753,33.343 213.477,33.608 213.141,33.604 C212.803,33.601 212.533,33.332 212.536,33.003 C212.557,30.779 213.943,28.873 215.910,28.037 C214.917,27.331 214.275,26.185 214.287,24.898 C214.307,22.781 216.089,21.076 218.259,21.096 C220.429,21.117 222.178,22.855 222.159,24.972 C222.147,26.258 221.484,27.392 220.479,28.079 ZM218.248,22.287 C216.751,22.273 215.522,23.449 215.508,24.910 C215.494,26.370 216.701,27.569 218.198,27.583 C219.695,27.597 220.924,26.421 220.938,24.961 C220.952,23.500 219.745,22.301 218.248,22.287 ZM219.075,24.204 C218.738,24.200 218.467,23.931 218.470,23.603 C218.473,23.274 218.749,23.010 219.086,23.013 C219.423,23.016 219.694,23.285 219.691,23.614 C219.688,23.943 219.412,24.207 219.075,24.204 ZM216.838,24.183 C216.500,24.179 216.230,23.910 216.233,23.582 C216.236,23.253 216.512,22.989 216.849,22.992 C217.186,22.995 217.456,23.264 217.453,23.593 C217.450,23.922 217.174,24.186 216.838,24.183 ZM216.271,20.245 C216.115,20.243 215.959,20.184 215.842,20.066 L212.214,16.461 C211.978,16.227 211.981,15.850 212.222,15.620 C212.462,15.389 212.849,15.393 213.085,15.628 L216.712,19.233 C216.948,19.467 216.945,19.844 216.704,20.074 C216.584,20.190 216.427,20.246 216.271,20.245 ZM209.392,12.203 L209.386,12.894 C209.373,14.286 208.201,15.408 206.773,15.394 L206.073,15.387 C204.646,15.374 203.495,14.231 203.508,12.838 L203.515,12.148 C203.523,11.237 203.161,10.359 202.494,9.675 C201.515,8.671 200.972,7.355 200.967,5.970 C200.954,2.990 203.429,0.554 206.483,0.541 C207.978,0.534 209.385,1.100 210.441,2.135 C211.496,3.169 212.070,4.542 212.057,6.001 C212.043,7.416 211.474,8.748 210.455,9.753 C209.778,10.420 209.401,11.290 209.392,12.203 ZM206.084,14.197 L206.784,14.204 C207.539,14.211 208.158,13.618 208.165,12.882 L208.166,12.787 L204.729,12.755 L204.729,12.850 C204.722,13.586 205.330,14.190 206.084,14.197 ZM209.576,2.974 C208.768,2.182 207.696,1.742 206.552,1.732 C206.531,1.732 206.510,1.731 206.489,1.732 C204.107,1.742 202.177,3.641 202.187,5.966 C202.192,7.046 202.615,8.072 203.378,8.855 C204.119,9.615 204.576,10.560 204.700,11.564 L205.849,11.575 L205.881,8.143 L204.092,6.365 C203.855,6.131 203.859,5.754 204.099,5.524 C204.340,5.293 204.726,5.297 204.962,5.532 L206.501,7.061 L208.069,5.561 C208.309,5.331 208.695,5.334 208.932,5.569 C209.168,5.803 209.164,6.180 208.924,6.410 L207.101,8.155 L207.069,11.586 L208.218,11.597 C208.360,10.595 208.833,9.659 209.587,8.916 C210.382,8.132 210.826,7.093 210.836,5.990 C210.847,4.852 210.399,3.781 209.576,2.974 ZM196.919,19.889 C196.799,20.004 196.642,20.061 196.486,20.059 C196.330,20.058 196.174,19.998 196.056,19.881 C195.820,19.646 195.824,19.269 196.064,19.039 L199.758,15.503 C199.999,15.272 200.385,15.276 200.621,15.511 C200.858,15.746 200.854,16.122 200.614,16.353 L196.919,19.889 ZM198.382,24.749 C198.370,26.036 197.707,27.169 196.702,27.857 C198.652,28.730 200.002,30.661 199.982,32.886 C199.979,33.214 199.703,33.478 199.366,33.475 C199.029,33.472 198.758,33.203 198.761,32.874 C198.783,30.513 196.832,28.573 194.411,28.551 C191.990,28.528 190.002,30.431 189.980,32.792 C189.977,33.121 189.701,33.385 189.364,33.381 C189.027,33.378 188.756,33.109 188.760,32.781 C188.780,30.556 190.166,28.650 192.132,27.814 C191.141,27.107 190.499,25.961 190.511,24.675 C190.531,22.559 192.313,20.853 194.483,20.873 C196.653,20.894 198.402,22.632 198.382,24.749 ZM194.471,22.064 C192.974,22.050 191.745,23.227 191.731,24.687 C191.718,26.147 192.925,27.346 194.422,27.360 C195.919,27.374 197.148,26.198 197.162,24.738 C197.176,23.277 195.969,22.078 194.471,22.064 ZM195.846,23.986 C195.509,23.983 195.238,23.714 195.241,23.385 C195.244,23.056 195.520,22.792 195.857,22.795 C196.194,22.799 196.465,23.068 196.462,23.396 C196.459,23.725 196.183,23.989 195.846,23.986 ZM193.609,23.965 C193.272,23.962 193.001,23.693 193.004,23.364 C193.007,23.035 193.283,22.771 193.620,22.774 C193.957,22.778 194.227,23.047 194.224,23.375 C194.221,23.704 193.946,23.968 193.609,23.965 ZM206.377,20.271 C206.041,20.268 205.770,19.999 205.773,19.670 L205.794,17.398 C205.797,17.070 206.073,16.806 206.410,16.809 C206.747,16.812 207.018,17.081 207.015,17.410 L206.993,19.681 C206.990,20.010 206.714,20.274 206.377,20.271 ZM204.021,27.926 C203.029,27.220 202.387,26.073 202.399,24.787 C202.419,22.670 204.201,20.965 206.371,20.985 C208.541,21.005 210.290,22.744 210.271,24.860 C210.258,26.146 209.596,27.280 208.591,27.968 C210.541,28.841 211.891,30.773 211.870,32.997 C211.867,33.326 211.591,33.590 211.254,33.587 C210.917,33.583 210.646,33.314 210.649,32.986 C210.672,30.624 208.720,28.685 206.299,28.662 C203.878,28.639 201.890,30.542 201.868,32.903 C201.865,33.232 201.589,33.496 201.252,33.493 C200.915,33.490 200.645,33.221 200.648,32.892 C200.669,30.667 202.055,28.762 204.021,27.926 ZM206.310,27.472 C207.807,27.486 209.036,26.309 209.050,24.849 C209.064,23.389 207.857,22.189 206.360,22.175 C204.863,22.161 203.633,23.338 203.620,24.798 C203.606,26.258 204.813,27.458 206.310,27.472 ZM205.235,22.883 C205.572,22.886 205.842,23.156 205.839,23.484 C205.836,23.813 205.560,24.077 205.223,24.074 C204.886,24.070 204.616,23.802 204.619,23.473 C204.622,23.144 204.898,22.880 205.235,22.883 ZM207.472,22.904 C207.809,22.907 208.080,23.177 208.077,23.505 C208.074,23.834 207.798,24.098 207.461,24.095 C207.124,24.091 206.853,23.823 206.856,23.494 C206.859,23.165 207.135,22.901 207.472,22.904 Z"/>
</svg>
