<svg
 xmlns="http://www.w3.org/2000/svg"
 xmlns:xlink="http://www.w3.org/1999/xlink"
 width="308px" height="109px">
<path fill-rule="evenodd"  stroke="rgb(160, 176, 185)" stroke-width="2px" stroke-dasharray="8, 4" stroke-linecap="butt" stroke-linejoin="miter" fill="none"
 d="M1.000,105.000 C1.000,105.000 114.000,-73.298 306.000,83.000 "/>
<path fill-rule="evenodd"  fill="rgb(201, 211, 217)"
 d="M57.474,61.000 C56.972,61.000 56.478,60.962 55.992,60.895 C55.491,60.963 54.997,61.000 54.526,61.000 C51.873,61.000 49.411,60.037 47.383,58.401 C47.354,58.379 47.324,58.360 47.300,58.332 C46.437,57.624 45.654,56.794 44.971,55.861 C44.951,55.841 44.937,55.816 44.920,55.793 C44.245,54.860 43.670,53.828 43.213,52.718 C43.204,52.700 43.198,52.682 43.191,52.662 C42.428,50.791 42.000,48.703 42.000,46.500 C42.000,45.092 42.177,43.732 42.503,42.445 C42.509,42.390 42.519,42.337 42.541,42.290 C42.764,41.437 43.056,40.618 43.405,39.840 C43.414,39.814 43.425,39.791 43.438,39.767 C43.945,38.653 44.572,37.624 45.301,36.704 C45.320,36.678 45.337,36.653 45.360,36.632 C47.649,33.785 50.910,32.000 54.526,32.000 C54.997,32.000 55.491,32.037 55.992,32.105 C56.478,32.038 56.972,32.000 57.474,32.000 C64.381,32.000 70.000,38.505 70.000,46.500 C70.000,54.496 64.381,61.000 57.474,61.000 ZM52.440,59.780 C52.385,59.751 52.332,59.717 52.275,59.687 C52.119,59.605 51.965,59.519 51.812,59.429 C51.719,59.374 51.626,59.321 51.534,59.264 C51.337,59.140 51.142,59.010 50.951,58.875 C50.845,58.799 50.741,58.719 50.636,58.641 C50.574,58.593 50.512,58.548 50.450,58.500 L49.262,58.500 C50.249,59.095 51.314,59.538 52.440,59.780 ZM47.843,57.500 L49.321,57.500 C49.280,57.460 49.242,57.416 49.202,57.376 C49.106,57.277 49.011,57.177 48.917,57.075 C48.826,56.977 48.734,56.878 48.645,56.776 C48.489,56.596 48.336,56.411 48.188,56.221 C48.131,56.148 48.076,56.074 48.020,56.000 L46.335,56.000 C46.799,56.548 47.304,57.051 47.843,57.500 ZM45.573,55.000 L47.335,55.000 C47.243,54.854 47.152,54.707 47.065,54.557 C47.024,54.486 46.985,54.413 46.946,54.341 C46.837,54.146 46.731,53.947 46.630,53.746 C46.594,53.672 46.557,53.600 46.521,53.526 C46.438,53.353 46.359,53.177 46.282,53.000 L44.421,53.000 C44.755,53.708 45.139,54.377 45.573,55.000 ZM43.993,51.999 L45.887,51.999 C45.867,51.945 45.849,51.890 45.831,51.835 C45.809,51.774 45.788,51.713 45.768,51.651 C45.670,51.355 45.579,51.055 45.498,50.750 C45.492,50.728 45.487,50.706 45.482,50.685 C45.466,50.623 45.451,50.561 45.436,50.500 L45.436,50.499 L43.511,50.499 C43.647,51.013 43.807,51.514 43.993,51.999 ZM43.281,49.500 L45.219,49.500 C45.169,49.227 45.125,48.951 45.088,48.673 C45.086,48.658 45.085,48.642 45.083,48.628 C45.057,48.419 45.033,48.211 45.014,48.000 L43.061,48.000 C43.110,48.510 43.185,49.009 43.281,49.500 ZM42.982,46.500 C42.982,46.668 42.996,46.833 43.002,47.000 L44.958,47.000 C44.953,46.834 44.947,46.668 44.947,46.500 C44.947,46.172 44.960,45.847 44.978,45.524 C44.979,45.516 44.979,45.508 44.979,45.500 L43.021,45.500 C43.000,45.831 42.982,46.163 42.982,46.500 ZM43.379,43.000 C43.266,43.489 43.184,43.991 43.120,44.500 L45.069,44.500 C45.075,44.458 45.078,44.415 45.083,44.373 C45.085,44.357 45.086,44.341 45.088,44.326 C45.130,44.006 45.184,43.689 45.244,43.375 C45.256,43.309 45.270,43.244 45.283,43.179 C45.295,43.120 45.306,43.059 45.319,43.000 L43.379,43.000 ZM43.649,42.000 L45.568,42.000 C45.630,41.780 45.696,41.564 45.767,41.348 C45.787,41.287 45.809,41.226 45.830,41.164 C45.907,40.940 45.988,40.719 46.075,40.500 L44.195,40.500 C43.988,40.984 43.805,41.484 43.649,42.000 ZM45.942,37.500 C45.467,38.119 45.039,38.786 44.667,39.500 L46.508,39.500 C46.512,39.491 46.517,39.482 46.521,39.474 C46.557,39.399 46.594,39.327 46.630,39.254 C46.731,39.052 46.837,38.853 46.946,38.658 C46.985,38.586 47.024,38.513 47.065,38.443 C47.199,38.211 47.340,37.984 47.485,37.763 C47.542,37.674 47.603,37.588 47.663,37.500 L45.942,37.500 ZM48.499,35.000 C47.891,35.438 47.322,35.942 46.794,36.500 L48.416,36.500 C48.492,36.408 48.567,36.315 48.645,36.224 C48.734,36.123 48.826,36.024 48.917,35.924 C49.010,35.823 49.106,35.723 49.202,35.624 C49.299,35.526 49.396,35.426 49.496,35.330 C49.614,35.217 49.735,35.108 49.857,35.000 L48.499,35.000 ZM50.191,34.000 L51.137,34.000 C51.268,33.910 51.400,33.821 51.535,33.736 C51.626,33.680 51.720,33.626 51.813,33.572 C51.966,33.482 52.120,33.396 52.276,33.312 C52.332,33.283 52.385,33.249 52.440,33.220 C51.659,33.388 50.909,33.658 50.191,34.000 ZM57.474,33.000 C57.084,33.000 56.698,33.024 56.316,33.067 L56.121,33.096 C56.097,33.098 56.073,33.102 56.049,33.106 C55.878,33.130 55.709,33.160 55.540,33.193 C55.528,33.195 55.517,33.197 55.504,33.200 C55.340,33.233 55.177,33.269 55.015,33.311 C54.994,33.316 54.973,33.322 54.951,33.328 C54.799,33.367 54.649,33.409 54.499,33.456 C54.459,33.469 54.420,33.483 54.380,33.496 C54.250,33.538 54.121,33.581 53.992,33.628 C53.902,33.662 53.813,33.700 53.723,33.735 C53.646,33.767 53.569,33.795 53.493,33.828 C50.853,34.965 48.663,37.201 47.330,40.060 C47.319,40.085 47.307,40.111 47.295,40.138 C47.224,40.294 47.154,40.451 47.088,40.612 C47.062,40.674 47.038,40.738 47.013,40.801 C46.963,40.925 46.913,41.051 46.867,41.178 C46.837,41.258 46.809,41.340 46.781,41.421 C46.741,41.534 46.703,41.646 46.667,41.758 C46.637,41.849 46.610,41.942 46.581,42.033 C46.549,42.139 46.518,42.246 46.488,42.353 C46.461,42.450 46.436,42.548 46.411,42.647 C46.384,42.752 46.358,42.857 46.334,42.964 C46.311,43.065 46.288,43.166 46.266,43.267 C46.244,43.374 46.223,43.481 46.203,43.589 C46.183,43.691 46.164,43.793 46.147,43.896 C46.129,44.007 46.112,44.120 46.096,44.231 C46.082,44.332 46.066,44.432 46.054,44.533 C46.039,44.654 46.027,44.775 46.014,44.896 C46.004,44.991 45.994,45.084 45.986,45.180 C45.974,45.318 45.966,45.459 45.958,45.599 C45.954,45.678 45.948,45.756 45.944,45.835 C45.935,46.055 45.930,46.277 45.930,46.500 C45.930,46.723 45.935,46.945 45.946,47.163 C45.949,47.242 45.955,47.320 45.960,47.399 C45.968,47.539 45.975,47.680 45.987,47.818 C45.995,47.914 46.006,48.007 46.016,48.102 C46.028,48.223 46.040,48.344 46.055,48.465 C46.068,48.566 46.083,48.666 46.097,48.767 C46.114,48.879 46.130,48.991 46.148,49.102 C46.166,49.204 46.185,49.307 46.204,49.409 C46.225,49.517 46.245,49.624 46.268,49.731 C46.289,49.832 46.311,49.934 46.335,50.034 C46.360,50.141 46.385,50.247 46.412,50.351 C46.437,50.450 46.463,50.548 46.490,50.645 C46.520,50.752 46.551,50.859 46.583,50.965 C46.610,51.057 46.638,51.150 46.668,51.241 C46.704,51.355 46.743,51.466 46.782,51.578 C46.810,51.659 46.838,51.741 46.868,51.822 C46.914,51.949 46.963,52.074 47.013,52.199 C47.039,52.262 47.063,52.325 47.089,52.388 C47.155,52.548 47.225,52.706 47.296,52.862 C47.308,52.888 47.320,52.914 47.331,52.940 C48.664,55.798 50.853,58.034 53.494,59.172 C53.570,59.205 53.647,59.233 53.724,59.264 C53.813,59.300 53.902,59.337 53.993,59.371 C54.121,59.418 54.251,59.461 54.381,59.504 C54.421,59.516 54.460,59.531 54.500,59.544 C54.650,59.590 54.800,59.632 54.952,59.672 C54.973,59.677 54.994,59.684 55.016,59.689 C55.178,59.730 55.341,59.767 55.505,59.800 C55.517,59.802 55.529,59.804 55.541,59.807 C55.710,59.840 55.879,59.869 56.050,59.894 C56.074,59.897 56.098,59.900 56.122,59.904 L56.317,59.932 C56.698,59.977 57.084,60.000 57.474,60.000 C63.839,60.000 69.018,53.944 69.018,46.500 C69.018,39.056 63.839,33.000 57.474,33.000 ZM67.179,47.496 C67.159,47.759 66.945,47.958 66.690,47.958 C66.678,47.958 66.665,47.957 66.652,47.957 C66.381,47.936 66.179,47.695 66.200,47.420 C66.223,47.118 66.234,46.808 66.234,46.500 C66.234,46.224 66.454,45.984 66.725,45.984 C66.997,45.984 67.217,46.192 67.217,46.468 L67.217,46.500 C67.217,46.834 67.204,47.169 67.179,47.496 ZM66.487,44.009 C66.446,44.019 66.407,44.025 66.367,44.025 C66.147,44.025 65.946,43.873 65.891,43.646 C65.815,43.341 65.726,43.035 65.626,42.737 C65.538,42.476 65.675,42.191 65.931,42.101 C66.188,42.012 66.467,42.151 66.556,42.412 C66.665,42.737 66.762,43.070 66.844,43.403 C66.910,43.671 66.750,43.942 66.487,44.009 ZM66.268,49.891 C66.525,49.980 66.663,50.263 66.576,50.524 C66.468,50.850 66.345,51.174 66.211,51.489 C66.130,51.677 65.950,51.789 65.760,51.789 C65.695,51.789 65.628,51.777 65.564,51.748 C65.316,51.638 65.201,51.343 65.310,51.090 C65.433,50.801 65.546,50.504 65.645,50.205 C65.732,49.943 66.011,49.801 66.268,49.891 ZM64.794,40.418 C64.637,40.418 64.482,40.342 64.387,40.199 C64.214,39.939 64.027,39.685 63.832,39.442 C63.660,39.229 63.690,38.914 63.899,38.738 C64.109,38.563 64.418,38.594 64.591,38.807 C64.805,39.073 65.011,39.352 65.201,39.638 C65.353,39.866 65.294,40.178 65.070,40.332 C64.985,40.390 64.889,40.418 64.794,40.418 ZM64.561,53.438 C64.772,53.612 64.804,53.927 64.632,54.142 C64.417,54.410 64.188,54.670 63.951,54.914 C63.855,55.014 63.729,55.063 63.602,55.063 C63.477,55.063 63.352,55.015 63.257,54.918 C63.063,54.724 63.061,54.408 63.252,54.211 C63.468,53.989 63.675,53.753 63.870,53.510 C64.041,53.296 64.350,53.264 64.561,53.438 ZM59.498,52.072 L53.884,52.072 C53.586,52.072 53.394,51.876 53.394,51.573 C53.394,51.271 53.587,51.075 53.884,51.075 L55.023,51.075 L55.023,49.228 L53.544,49.228 C53.274,49.228 53.053,49.004 53.053,48.729 C53.053,48.454 53.274,48.229 53.544,48.229 L55.023,48.229 L55.022,40.974 L53.884,40.975 C53.587,40.975 53.395,40.779 53.395,40.476 C53.395,40.174 53.587,39.978 53.884,39.978 L58.847,39.978 C59.778,39.978 60.548,40.281 61.136,40.879 C61.724,41.478 62.022,42.234 62.022,43.127 C62.022,44.178 61.633,44.989 60.864,45.542 C62.173,46.011 62.835,47.106 62.835,48.808 C62.835,49.754 62.541,50.542 61.961,51.152 C61.378,51.762 60.549,52.072 59.498,52.072 ZM61.042,43.093 C61.042,42.472 60.850,41.975 60.455,41.573 C60.060,41.171 59.534,40.976 58.847,40.976 L56.000,40.976 C55.979,40.976 56.000,40.978 56.000,40.978 L56.001,45.280 L58.929,45.278 C59.548,45.278 60.044,45.074 60.444,44.651 C60.847,44.226 61.042,43.716 61.042,43.093 ZM61.236,46.906 C60.819,46.481 60.251,46.276 59.498,46.276 L55.999,46.276 C55.979,46.276 56.000,46.279 56.000,46.279 L56.001,48.229 L57.965,48.229 C58.235,48.229 58.456,48.454 58.456,48.729 C58.456,49.004 58.235,49.229 57.965,49.229 L56.001,49.229 L56.001,51.078 L59.498,51.076 C60.251,51.076 60.819,50.870 61.236,50.445 C61.654,50.021 61.856,49.441 61.856,48.675 C61.856,47.910 61.654,47.331 61.236,46.906 ZM62.047,37.644 C61.955,37.644 61.862,37.617 61.780,37.562 C61.523,37.392 61.255,37.235 60.984,37.096 C60.742,36.971 60.645,36.671 60.766,36.425 C60.888,36.178 61.183,36.079 61.426,36.203 C61.730,36.358 62.029,36.534 62.316,36.725 C62.544,36.876 62.608,37.186 62.460,37.417 C62.365,37.564 62.208,37.644 62.047,37.644 ZM58.424,36.294 C58.405,36.294 58.386,36.293 58.367,36.290 C58.072,36.256 57.771,36.238 57.474,36.238 C57.202,36.238 56.972,36.015 56.972,35.738 C56.972,35.462 57.181,35.238 57.453,35.238 L57.453,35.738 L57.459,35.238 C57.461,35.238 57.463,35.238 57.465,35.238 C57.814,35.238 58.150,35.258 58.481,35.297 C58.750,35.330 58.943,35.578 58.912,35.852 C58.883,36.107 58.670,36.294 58.424,36.294 ZM54.768,36.737 C54.485,36.845 54.202,36.972 53.928,37.114 C53.857,37.151 53.780,37.168 53.706,37.168 C53.527,37.168 53.354,37.069 53.267,36.896 C53.144,36.650 53.240,36.348 53.482,36.223 C53.789,36.064 54.106,35.922 54.423,35.801 C54.679,35.703 54.961,35.835 55.055,36.094 C55.150,36.352 55.021,36.641 54.768,36.737 ZM53.946,55.896 C54.188,56.021 54.285,56.322 54.162,56.567 C54.075,56.741 53.902,56.841 53.723,56.841 C53.648,56.841 53.573,56.824 53.502,56.787 C53.198,56.630 52.899,56.454 52.612,56.263 C52.386,56.112 52.322,55.802 52.470,55.571 C52.620,55.340 52.924,55.275 53.151,55.426 C53.407,55.597 53.675,55.755 53.946,55.896 ZM51.090,39.475 C50.993,39.596 50.852,39.659 50.709,39.659 C50.600,39.659 50.490,39.622 50.399,39.545 C50.189,39.371 50.157,39.056 50.329,38.842 C50.545,38.573 50.775,38.313 51.012,38.070 C51.203,37.873 51.514,37.873 51.707,38.067 C51.900,38.262 51.901,38.578 51.710,38.775 C51.494,38.995 51.286,39.230 51.090,39.475 ZM50.548,52.783 C50.724,53.048 50.911,53.303 51.102,53.541 C51.274,53.755 51.244,54.070 51.034,54.245 C50.942,54.321 50.832,54.359 50.723,54.359 C50.580,54.359 50.440,54.296 50.343,54.176 C50.131,53.913 49.927,53.633 49.734,53.344 C49.583,53.114 49.642,52.804 49.866,52.649 C50.091,52.495 50.396,52.554 50.548,52.783 ZM49.309,42.776 C49.240,42.983 49.049,43.115 48.844,43.115 C48.792,43.115 48.738,43.107 48.686,43.089 C48.430,43.000 48.292,42.716 48.379,42.454 C48.488,42.127 48.611,41.802 48.746,41.490 C48.855,41.236 49.143,41.119 49.393,41.233 C49.642,41.343 49.755,41.639 49.646,41.891 C49.522,42.178 49.409,42.476 49.309,42.776 ZM48.750,45.560 C48.726,45.872 48.714,46.189 48.714,46.500 C48.714,46.776 48.494,47.005 48.222,47.005 C47.951,47.005 47.731,46.786 47.731,46.510 L47.731,46.499 C47.731,46.162 47.744,45.819 47.770,45.481 C47.792,45.206 48.033,45.004 48.299,45.022 C48.569,45.044 48.771,45.284 48.750,45.560 ZM48.456,48.969 C48.719,48.903 48.986,49.066 49.052,49.334 C49.127,49.640 49.215,49.946 49.315,50.243 C49.403,50.505 49.265,50.789 49.009,50.878 C48.956,50.897 48.903,50.905 48.850,50.905 C48.646,50.905 48.455,50.775 48.385,50.567 C48.276,50.242 48.180,49.908 48.098,49.576 C48.033,49.308 48.193,49.036 48.456,48.969 ZM56.561,56.707 C56.861,56.744 57.169,56.762 57.474,56.762 C57.745,56.762 57.986,56.987 57.986,57.262 C57.986,57.538 57.788,57.763 57.516,57.763 L57.474,57.763 C57.130,57.763 56.783,57.742 56.445,57.701 C56.175,57.667 55.983,57.419 56.015,57.145 C56.047,56.871 56.284,56.679 56.561,56.707 ZM60.199,56.256 C60.482,56.147 60.764,56.020 61.037,55.877 C61.279,55.750 61.575,55.848 61.699,56.094 C61.823,56.339 61.728,56.640 61.487,56.766 C61.181,56.926 60.864,57.069 60.546,57.191 C60.488,57.213 60.430,57.224 60.372,57.224 C60.174,57.224 59.986,57.100 59.913,56.900 C59.817,56.641 59.945,56.352 60.199,56.256 Z"/>
<path fill-rule="evenodd"  fill="rgb(201, 211, 217)"
 d="M259.830,42.819 C259.830,42.832 259.831,42.845 259.831,42.858 C259.831,44.859 259.183,46.626 258.034,48.043 L258.542,49.481 C258.749,50.068 258.662,50.694 258.302,51.202 C257.943,51.709 257.380,52.000 256.758,52.000 L254.148,52.000 C253.635,52.000 253.191,51.670 253.043,51.180 L253.041,51.173 C251.899,51.492 250.645,51.662 249.303,51.662 C247.663,51.662 246.125,51.443 244.740,51.038 L244.581,51.435 C244.443,51.779 244.116,52.000 243.746,52.000 L240.822,52.000 C240.235,52.000 239.689,51.711 239.360,51.226 C239.031,50.741 238.965,50.126 239.183,49.582 L239.782,48.086 C239.190,47.427 238.717,46.695 238.400,45.892 L238.132,45.892 C236.797,45.892 236.000,44.872 236.000,43.163 L236.000,41.600 C236.000,39.922 236.777,38.959 238.132,38.959 L238.679,38.959 C238.881,37.554 239.091,36.606 240.222,35.436 C240.148,35.253 240.079,35.067 240.013,34.885 C239.747,34.158 239.497,33.471 238.908,33.188 C238.665,33.072 238.533,32.817 238.578,32.553 C238.622,32.293 238.829,32.098 239.093,32.069 C240.200,31.946 241.439,32.208 243.341,32.966 C243.613,32.859 243.956,32.738 244.343,32.611 C244.256,32.224 244.209,31.824 244.209,31.417 C244.209,28.430 246.642,26.000 249.632,26.000 C252.622,26.000 255.055,28.430 255.055,31.417 C255.055,31.999 254.957,32.572 254.775,33.116 C256.652,34.191 258.056,35.760 258.869,37.690 C258.971,37.673 259.073,37.658 259.180,37.658 C259.230,37.658 259.276,37.670 259.325,37.673 C259.349,37.669 259.371,37.658 259.397,37.658 C259.767,37.658 260.118,37.737 260.436,37.876 C260.405,37.714 260.358,37.555 260.290,37.401 C260.192,37.183 260.290,36.927 260.508,36.829 C260.726,36.730 260.983,36.828 261.082,37.047 C261.292,37.517 261.373,38.026 261.333,38.527 C261.746,38.987 262.000,39.593 262.000,40.258 C262.000,41.544 261.059,42.612 259.830,42.819 ZM253.874,50.930 C253.910,51.052 254.020,51.133 254.147,51.133 L256.758,51.133 C257.095,51.133 257.399,50.976 257.594,50.701 C257.788,50.427 257.836,50.087 257.723,49.770 L257.369,48.769 C256.427,49.685 255.243,50.411 253.867,50.908 L253.874,50.930 ZM240.079,50.739 C240.248,50.989 240.519,51.133 240.822,51.133 L243.746,51.133 L243.904,50.764 C242.560,50.273 241.390,49.592 240.448,48.755 L239.989,49.904 C239.876,50.184 239.909,50.489 240.079,50.739 ZM249.632,26.866 C247.120,26.866 245.077,28.907 245.077,31.416 C245.077,31.855 245.145,32.283 245.265,32.692 L245.312,32.837 C245.438,33.217 245.612,33.574 245.827,33.903 C245.834,33.915 245.841,33.925 245.849,33.937 C245.946,34.082 246.053,34.221 246.166,34.354 C246.183,34.374 246.198,34.395 246.215,34.414 C246.342,34.558 246.476,34.695 246.620,34.823 C246.646,34.808 246.673,34.798 246.698,34.784 C246.877,34.683 247.060,34.593 247.246,34.510 C247.299,34.486 247.350,34.460 247.403,34.438 C247.634,34.341 247.869,34.256 248.108,34.186 C248.179,34.165 248.252,34.153 248.323,34.134 C248.488,34.092 248.652,34.052 248.818,34.022 C248.934,34.001 249.051,33.987 249.168,33.972 C249.291,33.956 249.413,33.943 249.537,33.934 C249.666,33.924 249.796,33.917 249.926,33.915 C250.037,33.913 250.148,33.917 250.259,33.920 C250.395,33.924 250.531,33.927 250.666,33.940 C250.775,33.950 250.883,33.969 250.992,33.984 C251.221,34.016 251.448,34.059 251.674,34.115 C251.798,34.145 251.922,34.174 252.045,34.211 C252.158,34.246 252.269,34.288 252.381,34.329 C252.511,34.376 252.639,34.426 252.766,34.481 C252.821,34.505 252.877,34.521 252.931,34.546 C253.313,34.142 253.625,33.662 253.840,33.142 L253.907,32.980 C254.089,32.486 254.187,31.961 254.187,31.416 C254.187,28.907 252.144,26.866 249.632,26.866 ZM254.437,33.911 C254.428,33.930 254.415,33.947 254.405,33.966 C254.359,34.052 254.310,34.137 254.258,34.221 C254.219,34.285 254.179,34.348 254.138,34.410 C254.087,34.486 254.036,34.561 253.982,34.634 C253.926,34.710 253.867,34.782 253.808,34.854 C253.774,34.895 253.744,34.938 253.709,34.979 C254.121,35.241 254.513,35.547 254.872,35.906 C255.041,36.076 255.041,36.349 254.872,36.519 C254.787,36.603 254.676,36.646 254.565,36.646 C254.454,36.646 254.343,36.603 254.258,36.519 C253.681,35.942 253.012,35.509 252.300,35.218 C252.289,35.214 252.279,35.210 252.268,35.206 C251.200,34.778 250.032,34.670 248.913,34.883 C248.898,34.886 248.882,34.889 248.867,34.892 C248.707,34.924 248.549,34.963 248.391,35.008 C248.364,35.016 248.337,35.022 248.310,35.030 C248.149,35.079 247.990,35.135 247.832,35.197 C247.787,35.215 247.744,35.235 247.700,35.253 C247.588,35.301 247.478,35.352 247.369,35.407 C247.313,35.435 247.256,35.463 247.201,35.492 C247.064,35.567 246.929,35.645 246.797,35.731 L246.727,35.775 C246.406,35.989 246.101,36.236 245.817,36.519 C245.648,36.688 245.374,36.688 245.204,36.519 C245.034,36.349 245.034,36.076 245.204,35.906 C245.419,35.692 245.648,35.501 245.883,35.320 C245.856,35.294 245.828,35.267 245.801,35.239 C245.768,35.207 245.739,35.171 245.707,35.137 C245.576,35.000 245.452,34.858 245.337,34.710 C245.315,34.681 245.294,34.650 245.272,34.621 C245.149,34.455 245.037,34.283 244.934,34.106 C244.926,34.090 244.916,34.074 244.908,34.058 C244.794,33.857 244.694,33.650 244.608,33.436 C244.163,33.582 243.775,33.722 243.509,33.833 L243.344,33.901 L243.178,33.834 C241.790,33.271 240.792,32.983 239.966,32.920 C240.392,33.393 240.620,34.017 240.829,34.588 C240.928,34.859 241.022,35.115 241.131,35.348 L241.264,35.629 L241.040,35.845 C239.827,37.012 239.713,37.828 239.486,39.451 L239.434,39.825 L238.132,39.825 C237.819,39.825 236.868,39.825 236.868,41.600 L236.868,43.162 C236.868,44.012 237.087,45.024 238.132,45.024 L239.012,45.024 L239.112,45.317 C239.811,47.345 241.648,48.960 244.124,49.897 C244.209,49.929 244.296,49.958 244.382,49.989 C245.846,50.506 247.516,50.794 249.303,50.794 C250.712,50.794 252.015,50.593 253.179,50.221 L253.198,50.215 C253.244,50.200 253.287,50.182 253.333,50.167 C253.538,50.098 253.739,50.023 253.935,49.943 C254.026,49.906 254.116,49.867 254.206,49.828 C254.371,49.755 254.532,49.677 254.690,49.597 C254.762,49.560 254.837,49.525 254.908,49.487 C255.118,49.373 255.320,49.250 255.516,49.123 C255.584,49.078 255.651,49.031 255.717,48.985 C255.871,48.878 256.021,48.768 256.165,48.653 C256.214,48.615 256.263,48.577 256.311,48.538 C256.506,48.375 256.693,48.207 256.868,48.030 C256.872,48.026 256.875,48.022 256.879,48.019 C258.205,46.670 258.963,44.898 258.964,42.856 C258.964,42.416 258.944,41.973 258.906,41.537 C258.884,41.534 258.864,41.526 258.843,41.523 C258.790,41.514 258.739,41.500 258.688,41.486 C258.620,41.469 258.552,41.449 258.487,41.424 C258.437,41.405 258.390,41.384 258.342,41.361 C258.280,41.331 258.220,41.299 258.162,41.263 C258.117,41.236 258.074,41.207 258.031,41.176 C257.976,41.135 257.924,41.092 257.874,41.046 C257.835,41.011 257.797,40.976 257.761,40.938 C257.714,40.888 257.672,40.834 257.630,40.779 C257.599,40.739 257.567,40.699 257.539,40.656 C257.500,40.596 257.468,40.531 257.436,40.466 C257.414,40.423 257.390,40.381 257.372,40.336 C257.342,40.261 257.320,40.182 257.299,40.104 C257.289,40.064 257.274,40.025 257.266,39.984 C257.241,39.862 257.227,39.737 257.227,39.608 C257.227,39.486 257.242,39.369 257.263,39.252 C257.267,39.232 257.270,39.211 257.275,39.191 C257.299,39.078 257.333,38.968 257.377,38.864 C257.382,38.851 257.388,38.839 257.394,38.827 C257.487,38.613 257.618,38.419 257.782,38.252 C257.795,38.238 257.809,38.224 257.823,38.211 C257.900,38.136 257.981,38.066 258.071,38.005 C257.344,36.289 256.098,34.886 254.437,33.911 ZM259.179,38.524 C259.039,38.524 258.905,38.553 258.781,38.602 L258.777,38.604 C258.745,38.617 258.716,38.633 258.686,38.648 C258.660,38.662 258.633,38.675 258.608,38.691 C258.583,38.706 258.559,38.723 258.536,38.741 C258.505,38.764 258.476,38.788 258.447,38.814 C258.431,38.829 258.414,38.843 258.399,38.859 C258.312,38.949 258.241,39.054 258.190,39.170 C258.183,39.186 258.177,39.202 258.171,39.217 C258.154,39.263 258.139,39.309 258.128,39.357 C258.124,39.375 258.119,39.393 258.115,39.411 C258.104,39.475 258.096,39.541 258.096,39.608 C258.096,40.205 258.582,40.692 259.180,40.692 C259.217,40.686 259.241,40.683 259.266,40.681 L259.339,40.676 C259.861,40.597 260.264,40.151 260.264,39.607 C260.264,39.010 259.777,38.524 259.179,38.524 ZM261.099,39.933 C260.976,40.659 260.452,41.242 259.763,41.459 C259.777,41.619 259.794,41.778 259.803,41.938 C260.564,41.755 261.132,41.073 261.132,40.258 C261.132,40.147 261.119,40.039 261.099,39.933 ZM249.887,49.832 C249.488,49.866 249.098,49.884 248.717,49.884 C247.098,49.884 245.625,49.570 244.156,48.921 C243.937,48.824 243.838,48.568 243.935,48.349 C244.032,48.130 244.288,48.031 244.507,48.128 C246.206,48.879 247.841,49.139 249.812,48.968 C250.049,48.943 250.261,49.124 250.282,49.363 C250.302,49.601 250.125,49.811 249.887,49.832 ZM242.257,40.258 C241.420,40.258 240.739,39.578 240.739,38.742 C240.739,37.905 241.420,37.225 242.257,37.225 C243.094,37.225 243.775,37.905 243.775,38.742 C243.775,39.578 243.094,40.258 242.257,40.258 ZM242.257,38.091 C241.898,38.091 241.606,38.383 241.606,38.742 C241.606,39.100 241.898,39.392 242.257,39.392 C242.616,39.392 242.908,39.100 242.908,38.742 C242.908,38.383 242.616,38.091 242.257,38.091 ZM251.485,33.870 C251.323,33.694 251.334,33.420 251.509,33.258 C252.084,32.726 252.401,32.006 252.401,31.229 C252.401,29.704 251.159,28.463 249.632,28.463 C248.105,28.463 246.863,29.704 246.863,31.229 C246.863,32.088 247.256,32.885 247.940,33.414 C248.129,33.561 248.164,33.833 248.017,34.023 C247.931,34.132 247.803,34.190 247.674,34.190 C247.581,34.190 247.488,34.161 247.408,34.099 C246.510,33.405 245.995,32.358 245.995,31.229 C245.995,29.226 247.626,27.596 249.632,27.596 C251.637,27.596 253.268,29.226 253.268,31.229 C253.268,32.236 252.842,33.207 252.098,33.894 C251.922,34.056 251.648,34.046 251.485,33.870 Z"/>
<path fill-rule="evenodd"  fill="rgb(201, 211, 217)"
 d="M162.354,5.286 C162.267,5.512 162.051,5.663 161.808,5.668 L160.008,5.710 L160.545,28.457 C160.553,28.788 160.290,29.062 159.959,29.070 L156.358,29.154 C156.027,29.161 155.752,28.900 155.744,28.569 L155.207,5.822 L153.406,5.864 C153.164,5.870 152.941,5.729 152.843,5.507 C152.745,5.286 152.790,5.027 152.958,4.852 L157.060,0.564 C157.289,0.325 157.669,0.316 157.909,0.544 L162.209,4.637 C162.384,4.804 162.442,5.060 162.354,5.286 ZM157.514,1.824 L154.827,4.633 L155.779,4.611 C156.110,4.603 156.385,4.865 156.393,5.195 L156.930,27.943 L159.330,27.887 L158.794,5.139 C158.786,4.809 159.048,4.535 159.380,4.527 L160.331,4.505 L157.514,1.824 ZM152.907,12.094 C152.820,12.320 152.604,12.471 152.361,12.477 L150.561,12.519 L150.943,28.681 C150.950,29.011 150.688,29.286 150.357,29.293 L146.756,29.377 C146.424,29.385 146.149,29.123 146.141,28.793 L145.760,12.630 L143.959,12.672 C143.717,12.678 143.494,12.537 143.396,12.316 C143.298,12.094 143.343,11.836 143.511,11.660 L147.613,7.372 C147.842,7.133 148.222,7.124 148.462,7.352 L152.762,11.445 C152.937,11.612 152.995,11.868 152.907,12.094 ZM148.067,8.632 L145.380,11.441 L146.332,11.419 C146.663,11.411 146.938,11.673 146.946,12.004 L147.328,28.166 L149.728,28.110 L149.347,11.948 C149.339,11.617 149.601,11.343 149.933,11.335 L150.884,11.313 L148.067,8.632 ZM143.446,18.304 C143.359,18.530 143.143,18.681 142.900,18.686 L141.100,18.728 L141.340,28.904 C141.348,29.235 141.086,29.509 140.754,29.517 L137.153,29.601 C136.822,29.609 136.547,29.347 136.539,29.016 L136.299,18.840 L134.498,18.882 C134.256,18.888 134.033,18.747 133.935,18.525 C133.837,18.304 133.882,18.045 134.050,17.870 L138.152,13.582 C138.381,13.342 138.761,13.334 139.001,13.562 L143.301,17.654 C143.476,17.822 143.534,18.078 143.446,18.304 ZM138.606,14.842 L135.919,17.651 L136.871,17.629 C137.202,17.621 137.477,17.883 137.485,18.213 L137.725,28.390 L140.126,28.334 L139.886,18.158 C139.878,17.827 140.140,17.553 140.472,17.545 L141.423,17.523 L138.606,14.842 Z"/>
</svg>
