<svg
 xmlns="http://www.w3.org/2000/svg"
 xmlns:xlink="http://www.w3.org/1999/xlink"
 width="58px" height="62px">
<path fill-rule="evenodd" 
 d="M57.290,55.289 C57.098,55.617 56.752,55.799 56.397,55.799 C56.218,55.799 56.038,55.753 55.873,55.656 C55.380,55.366 55.216,54.733 55.505,54.241 C55.781,53.771 55.928,53.245 55.928,52.721 L55.928,9.304 C55.928,5.314 52.675,2.067 48.679,2.067 L9.321,2.067 C5.328,2.067 2.079,5.307 2.071,9.291 C2.076,11.862 3.464,14.258 5.697,15.550 C6.191,15.835 6.362,16.468 6.074,16.962 C5.788,17.455 5.155,17.623 4.660,17.338 C1.796,15.684 0.014,12.613 0.000,9.316 L0.000,9.304 L0.000,9.291 L0.000,9.280 L0.000,9.267 C0.020,4.155 4.194,0.000 9.321,0.000 L48.679,0.000 C53.819,0.000 58.000,4.173 58.000,9.304 L58.000,52.721 C58.000,53.614 57.754,54.502 57.290,55.289 ZM5.179,10.314 C4.606,10.314 4.143,9.851 4.143,9.280 C4.143,6.430 6.466,4.111 9.322,4.111 C9.894,4.111 10.357,4.574 10.357,5.145 L10.357,52.697 C10.357,54.407 11.751,55.799 13.464,55.799 L33.143,55.799 C33.716,55.799 34.179,56.262 34.179,56.832 C34.179,57.403 33.716,57.866 33.143,57.866 L13.464,57.866 C10.609,57.866 8.286,55.547 8.286,52.697 L8.286,6.356 C7.080,6.782 6.214,7.932 6.214,9.280 C6.214,9.851 5.751,10.314 5.179,10.314 ZM33.143,34.090 C33.143,33.519 33.606,33.056 34.179,33.056 L44.536,33.056 C45.108,33.056 45.571,33.519 45.571,34.090 C45.571,34.661 45.108,35.124 44.536,35.124 L34.179,35.124 C33.606,35.124 33.143,34.661 33.143,34.090 ZM38.734,53.016 C39.021,52.521 39.654,52.351 40.149,52.637 C40.645,52.923 40.814,53.555 40.528,54.049 L38.261,57.967 L38.901,58.006 C39.227,58.024 39.524,58.196 39.703,58.468 L40.057,59.001 L42.287,55.144 C42.574,54.650 43.208,54.481 43.702,54.766 C44.198,55.051 44.368,55.684 44.082,56.178 L41.013,61.483 C40.833,61.793 40.505,61.988 40.147,62.000 L40.115,62.000 C39.768,62.000 39.443,61.826 39.251,61.536 L38.260,60.038 L36.465,59.930 C36.106,59.910 35.785,59.704 35.615,59.389 C35.445,59.074 35.451,58.692 35.630,58.382 L38.734,53.016 ZM49.714,27.887 C49.714,28.458 49.251,28.921 48.679,28.921 L42.464,28.921 C41.892,28.921 41.429,28.458 41.429,27.887 C41.429,27.317 41.892,26.853 42.464,26.854 L48.679,26.854 C49.251,26.854 49.714,27.317 49.714,27.887 ZM39.357,27.887 C39.357,28.458 38.894,28.921 38.321,28.921 L27.964,28.921 C27.392,28.921 26.929,28.458 26.929,27.887 C26.929,27.317 27.392,26.853 27.964,26.853 L38.321,26.853 C38.894,26.853 39.357,27.317 39.357,27.887 ZM25.893,14.449 L34.179,14.449 C34.751,14.449 35.214,14.912 35.214,15.482 C35.214,16.053 34.751,16.516 34.179,16.516 L25.893,16.516 C25.320,16.516 24.857,16.053 24.857,15.482 C24.857,14.912 25.320,14.449 25.893,14.449 ZM17.607,16.516 C17.034,16.516 16.572,16.053 16.572,15.482 C16.572,14.912 17.034,14.449 17.607,14.449 L21.750,14.449 C22.323,14.449 22.786,14.912 22.786,15.482 C22.786,16.053 22.323,16.516 21.750,16.516 L17.607,16.516 ZM33.143,21.685 C33.143,22.256 32.680,22.719 32.107,22.719 L17.607,22.719 C17.034,22.719 16.572,22.256 16.572,21.685 C16.572,21.114 17.034,20.651 17.607,20.651 L32.107,20.651 C32.680,20.651 33.143,21.114 33.143,21.685 ZM17.607,28.921 C17.034,28.921 16.572,28.458 16.572,27.887 C16.572,27.317 17.034,26.854 17.607,26.854 L23.821,26.854 C24.394,26.854 24.857,27.317 24.857,27.887 C24.857,28.458 24.394,28.921 23.821,28.921 L17.607,28.921 ZM31.071,34.090 C31.071,34.661 30.608,35.124 30.036,35.124 L17.607,35.124 C17.034,35.124 16.572,34.661 16.572,34.090 C16.572,33.519 17.034,33.056 17.607,33.056 L30.036,33.056 C30.608,33.056 31.071,33.519 31.071,34.090 ZM19.106,48.454 C18.594,48.708 17.972,48.501 17.717,47.991 C16.348,45.259 16.156,42.735 17.189,41.067 C17.911,39.901 19.163,39.259 20.714,39.259 C22.075,39.259 22.823,39.924 23.211,40.484 C24.100,41.764 24.001,43.816 23.660,45.598 C24.525,45.080 24.881,45.228 25.158,45.342 C25.564,45.510 25.831,45.881 25.884,46.332 C26.571,45.850 27.324,45.461 27.964,45.461 C28.501,45.461 28.961,45.706 29.225,46.133 C29.474,46.536 29.495,47.036 29.411,47.528 L32.107,47.528 C32.680,47.528 33.143,47.992 33.143,48.562 C33.143,49.133 32.680,49.596 32.107,49.596 L27.964,49.596 C27.606,49.596 27.274,49.410 27.084,49.106 C26.895,48.802 26.878,48.422 27.036,48.101 C27.049,48.077 27.061,48.053 27.074,48.027 C26.612,48.360 26.063,48.822 25.589,49.293 C25.292,49.589 24.848,49.678 24.460,49.516 C24.073,49.357 23.821,48.980 23.821,48.562 L23.821,48.057 C23.404,48.413 22.924,48.853 22.482,49.293 C22.137,49.636 21.598,49.693 21.190,49.432 C20.779,49.168 20.609,48.655 20.779,48.199 C21.547,46.153 22.280,42.771 21.509,41.661 C21.393,41.495 21.208,41.326 20.714,41.326 C19.884,41.326 19.291,41.604 18.951,42.153 C18.313,43.184 18.543,45.020 19.569,47.066 C19.826,47.577 19.617,48.198 19.106,48.454 ZM38.321,16.516 C37.749,16.516 37.286,16.053 37.286,15.482 C37.286,14.912 37.749,14.449 38.321,14.449 L40.393,14.449 C40.966,14.449 41.428,14.912 41.428,15.482 C41.428,16.053 40.966,16.516 40.393,16.516 L38.321,16.516 ZM47.643,21.685 C47.643,22.256 47.180,22.719 46.607,22.719 L36.250,22.719 C35.677,22.719 35.214,22.256 35.214,21.685 C35.214,21.114 35.677,20.651 36.250,20.651 L46.607,20.651 C47.180,20.651 47.643,21.114 47.643,21.685 ZM39.357,47.528 C39.357,44.108 42.144,41.326 45.571,41.326 C48.999,41.326 51.786,44.108 51.786,47.528 C51.786,50.949 48.999,53.731 45.571,53.731 C42.144,53.731 39.357,50.949 39.357,47.528 ZM45.571,51.663 C47.856,51.663 49.714,49.809 49.714,47.528 C49.714,45.248 47.856,43.394 45.571,43.394 C43.287,43.394 41.429,45.248 41.429,47.528 C41.429,49.809 43.287,51.663 45.571,51.663 ZM47.452,54.785 C47.946,54.500 48.580,54.670 48.868,55.164 L51.087,59.001 L51.439,58.467 C51.619,58.197 51.916,58.025 52.241,58.005 L52.881,57.967 L50.641,54.098 C50.355,53.604 50.525,52.971 51.021,52.686 C51.514,52.399 52.149,52.569 52.436,53.064 L55.513,58.382 C55.691,58.692 55.698,59.074 55.528,59.389 C55.358,59.704 55.037,59.910 54.677,59.930 L52.884,60.039 L51.894,61.536 C51.701,61.826 51.375,62.000 51.029,62.000 L50.997,62.000 C50.639,61.989 50.311,61.793 50.131,61.483 L47.073,56.198 C46.787,55.703 46.957,55.071 47.452,54.785 Z"/>
</svg>
