<svg
 xmlns="http://www.w3.org/2000/svg"
 xmlns:xlink="http://www.w3.org/1999/xlink"
 width="36px" height="35px">
<path fill-rule="evenodd" 
 d="M35.017,8.803 C34.124,11.387 32.627,13.774 30.687,15.706 L26.259,20.115 L25.434,26.478 C25.415,26.624 25.349,26.758 25.245,26.862 L19.082,32.997 C18.956,33.123 18.786,33.191 18.612,33.191 C18.546,33.191 18.480,33.181 18.415,33.161 C18.180,33.089 18.004,32.892 17.959,32.650 L17.096,28.011 L16.180,27.099 L15.125,29.040 C15.025,29.224 14.843,29.350 14.636,29.380 C14.604,29.384 14.572,29.387 14.540,29.387 C14.365,29.387 14.196,29.318 14.070,29.193 L6.678,21.834 C6.530,21.686 6.460,21.477 6.491,21.270 C6.521,21.064 6.647,20.883 6.832,20.784 L8.781,19.733 L7.866,18.821 L3.206,17.962 C2.963,17.917 2.765,17.742 2.692,17.508 C2.619,17.273 2.682,17.018 2.857,16.844 L9.020,10.708 C9.124,10.605 9.259,10.539 9.405,10.520 L15.797,9.699 L20.225,5.290 C22.165,3.358 24.563,1.868 27.158,0.979 C29.753,0.091 32.564,-0.201 35.288,0.134 C35.590,0.171 35.828,0.409 35.866,0.710 C36.202,3.421 35.909,6.220 35.017,8.803 ZM19.035,31.173 L24.145,26.086 L24.720,21.646 L18.428,27.910 L19.035,31.173 ZM8.248,21.525 L14.380,27.630 L15.200,26.124 L9.761,20.709 L8.248,21.525 ZM9.799,11.803 L4.690,16.890 L7.967,17.495 L14.258,11.231 L9.799,11.803 ZM21.164,6.226 L9.129,18.208 L17.711,26.753 L29.747,14.771 C31.495,13.030 32.854,10.889 33.688,8.571 C32.139,8.272 30.701,7.517 29.576,6.397 C28.450,5.276 27.692,3.845 27.391,2.302 C25.063,3.132 22.913,4.485 21.164,6.226 ZM34.603,1.391 C32.617,1.211 30.594,1.387 28.668,1.904 C28.898,3.245 29.542,4.492 30.515,5.461 C31.489,6.430 32.742,7.071 34.088,7.300 C34.607,5.382 34.785,3.368 34.603,1.391 ZM26.217,15.416 C25.431,16.199 24.399,16.590 23.367,16.590 C22.334,16.590 21.302,16.199 20.516,15.416 C18.944,13.851 18.944,11.305 20.516,9.740 C22.088,8.176 24.645,8.176 26.217,9.740 C27.789,11.305 27.789,13.851 26.217,15.416 L26.217,15.416 ZM25.277,10.676 C24.750,10.152 24.058,9.889 23.366,9.889 C22.675,9.889 21.982,10.152 21.456,10.676 C20.402,11.725 20.402,13.432 21.456,14.481 C22.509,15.529 24.224,15.529 25.277,14.481 C26.331,13.432 26.331,11.725 25.277,10.676 ZM4.674,27.696 C4.933,27.955 4.933,28.373 4.674,28.631 L2.105,31.189 C1.976,31.318 1.805,31.383 1.635,31.383 C1.465,31.383 1.295,31.318 1.166,31.189 C0.906,30.931 0.906,30.512 1.166,30.253 L3.734,27.696 C3.993,27.438 4.414,27.438 4.674,27.696 ZM5.022,27.171 C5.028,27.179 5.031,27.185 5.020,27.168 C5.009,27.152 5.014,27.158 5.019,27.166 C4.851,26.909 4.881,26.564 5.094,26.342 C5.293,26.135 5.615,26.082 5.871,26.211 C6.113,26.332 6.262,26.596 6.234,26.866 C6.206,27.141 6.004,27.375 5.734,27.442 C5.465,27.510 5.179,27.397 5.022,27.171 ZM6.983,26.059 C6.813,26.059 6.643,25.995 6.513,25.865 C6.253,25.607 6.253,25.188 6.513,24.930 L6.866,24.578 C7.125,24.319 7.546,24.319 7.806,24.578 C8.065,24.836 8.065,25.255 7.806,25.513 L7.452,25.865 C7.323,25.995 7.153,26.059 6.983,26.059 ZM8.683,26.386 C8.942,26.128 9.363,26.128 9.623,26.386 C9.882,26.645 9.882,27.064 9.623,27.322 L3.922,32.998 C3.792,33.127 3.622,33.191 3.452,33.191 C3.282,33.191 3.112,33.127 2.982,32.998 C2.723,32.739 2.723,32.320 2.982,32.062 L8.683,26.386 ZM5.153,33.519 C5.412,33.260 5.833,33.261 6.092,33.519 C6.352,33.777 6.352,34.196 6.092,34.454 L5.739,34.806 C5.609,34.935 5.439,35.000 5.269,35.000 C5.099,35.000 4.929,34.935 4.799,34.806 C4.539,34.548 4.539,34.129 4.799,33.870 L5.153,33.519 ZM7.032,31.922 C7.296,31.922 7.547,32.085 7.645,32.330 C7.765,32.613 7.663,32.950 7.411,33.126 C7.176,33.290 6.846,33.281 6.620,33.103 C6.400,32.928 6.311,32.624 6.406,32.360 C6.500,32.100 6.754,31.922 7.032,31.922 ZM10.500,28.195 C10.759,27.937 11.180,27.937 11.439,28.195 C11.699,28.453 11.699,28.872 11.439,29.131 L8.871,31.688 C8.741,31.817 8.571,31.882 8.401,31.882 C8.231,31.882 8.061,31.817 7.931,31.688 C7.672,31.430 7.672,31.011 7.931,30.752 L10.500,28.195 Z"/>
</svg>
