<svg
 xmlns="http://www.w3.org/2000/svg"
 xmlns:xlink="http://www.w3.org/1999/xlink"
 width="52px" height="67px">
<path fill-rule="evenodd"  fill="rgb(47, 64, 80)"
 d="M46.240,61.409 C42.263,65.067 36.706,67.000 30.170,67.000 L21.829,67.000 C15.294,67.000 9.737,65.067 5.759,61.409 C2.045,57.994 -0.000,53.288 -0.000,48.160 C-0.000,42.474 1.527,37.429 4.667,32.738 C7.332,28.759 10.738,25.702 13.475,23.246 C15.927,21.044 18.090,19.102 18.634,17.425 C17.493,16.976 16.682,15.857 16.682,14.550 C16.682,13.300 17.424,12.222 18.487,11.738 L15.615,2.815 C15.612,2.805 15.608,2.795 15.605,2.784 C15.357,1.915 15.510,1.111 16.026,0.577 C16.542,0.044 17.336,-0.130 18.205,0.098 C18.221,0.103 18.237,0.107 18.254,0.113 C18.296,0.126 22.560,1.488 23.976,1.895 C24.889,2.157 26.488,2.155 27.399,1.892 C28.800,1.487 33.019,0.130 33.062,0.116 C33.078,0.111 33.094,0.106 33.111,0.102 C33.979,-0.128 34.773,0.046 35.289,0.578 C35.802,1.108 35.957,1.905 35.715,2.768 L33.452,11.710 C34.548,12.181 35.318,13.277 35.318,14.550 C35.318,15.857 34.507,16.976 33.366,17.425 C33.910,19.103 36.072,21.044 38.525,23.246 C41.262,25.702 44.668,28.759 47.333,32.738 C50.473,37.429 52.000,42.474 52.000,48.160 C52.000,53.288 49.955,57.994 46.240,61.409 ZM33.824,2.268 C33.826,2.259 33.829,2.249 33.832,2.239 C33.869,2.109 33.874,2.022 33.872,1.972 C33.826,1.969 33.746,1.972 33.629,2.001 C33.228,2.130 29.323,3.384 27.938,3.785 C26.677,4.150 24.702,4.151 23.441,3.789 C22.041,3.387 18.092,2.127 17.690,1.998 C17.570,1.969 17.490,1.967 17.443,1.970 C17.441,2.018 17.446,2.101 17.480,2.225 L20.455,11.466 L23.705,11.466 L22.966,8.488 C22.835,7.960 23.154,7.425 23.677,7.294 C24.201,7.162 24.732,7.483 24.863,8.010 L25.720,11.466 L26.279,11.466 L27.137,8.010 C27.268,7.483 27.799,7.162 28.322,7.294 C28.846,7.426 29.164,7.960 29.033,8.488 L28.294,11.466 L31.496,11.466 L33.824,2.268 ZM18.637,14.551 C18.637,15.166 19.134,15.666 19.744,15.666 L23.931,15.666 C23.933,15.666 23.934,15.666 23.935,15.666 L28.065,15.666 C28.066,15.666 28.066,15.666 28.067,15.666 L32.256,15.666 C32.867,15.666 33.363,15.166 33.363,14.551 C33.363,13.935 32.867,13.435 32.256,13.435 L27.046,13.435 C27.045,13.435 27.044,13.435 27.043,13.435 C27.042,13.435 27.041,13.435 27.039,13.435 L24.961,13.435 C24.959,13.435 24.958,13.435 24.957,13.435 C24.956,13.435 24.955,13.435 24.954,13.435 L19.747,13.435 C19.746,13.435 19.745,13.435 19.744,13.435 C19.744,13.435 19.743,13.435 19.742,13.435 C19.132,13.436 18.637,13.936 18.637,14.551 ZM37.225,24.716 C34.309,22.099 31.930,19.964 31.393,17.636 L29.442,17.636 L30.055,19.491 C30.226,20.007 29.949,20.564 29.437,20.736 C29.334,20.771 29.230,20.787 29.128,20.787 C28.719,20.787 28.337,20.526 28.201,20.114 L27.381,17.636 L24.619,17.636 L23.799,20.114 C23.663,20.526 23.282,20.787 22.872,20.787 C22.770,20.787 22.666,20.771 22.563,20.736 C22.051,20.564 21.774,20.007 21.945,19.491 L22.559,17.636 L20.607,17.636 C20.070,19.964 17.692,22.099 14.775,24.716 C9.364,29.572 1.955,36.222 1.955,48.160 C1.955,52.728 3.774,56.917 7.077,59.955 C10.689,63.276 15.790,65.031 21.829,65.031 L30.170,65.031 C36.210,65.031 41.311,63.276 44.922,59.955 C48.226,56.917 50.045,52.728 50.045,48.160 C50.045,36.222 42.636,29.572 37.225,24.716 ZM26.000,59.648 C17.412,59.648 10.426,52.610 10.426,43.959 C10.426,35.308 17.412,28.270 26.000,28.270 C34.588,28.270 41.574,35.308 41.574,43.959 C41.574,52.610 34.588,59.648 26.000,59.648 ZM26.000,30.239 C18.490,30.239 12.381,36.394 12.381,43.959 C12.381,51.524 18.490,57.679 26.000,57.679 C33.510,57.679 39.619,51.524 39.619,43.959 C39.619,36.394 33.510,30.239 26.000,30.239 ZM26.000,42.974 C29.471,42.974 32.190,45.022 32.190,47.635 C32.190,49.998 29.968,51.897 26.977,52.240 L26.977,53.412 C26.977,53.956 26.540,54.396 26.000,54.396 C25.460,54.396 25.022,53.956 25.022,53.412 L25.022,52.240 C22.031,51.897 19.809,49.998 19.809,47.635 C19.809,47.091 20.247,46.651 20.787,46.651 C21.327,46.651 21.764,47.091 21.764,47.635 C21.764,49.094 23.704,50.327 26.000,50.327 C28.296,50.327 30.236,49.094 30.236,47.635 C30.236,46.176 28.296,44.944 26.000,44.944 C22.528,44.944 19.809,42.897 19.809,40.283 C19.809,37.921 22.031,36.021 25.022,35.678 L25.022,34.507 C25.022,33.963 25.460,33.522 26.000,33.522 C26.540,33.522 26.977,33.963 26.977,34.507 L26.977,35.678 C29.968,36.021 32.190,37.921 32.190,40.283 C32.190,40.827 31.753,41.268 31.213,41.268 C30.673,41.268 30.236,40.827 30.236,40.283 C30.236,38.824 28.296,37.592 26.000,37.592 C23.704,37.592 21.764,38.824 21.764,40.283 C21.764,41.742 23.704,42.974 26.000,42.974 Z"/>
<path fill-rule="evenodd"  fill="rgb(255, 255, 255)"
 d="M27.000,27.000 C36.389,27.000 44.000,34.611 44.000,44.000 C44.000,53.389 36.389,61.000 27.000,61.000 C17.611,61.000 10.000,53.389 10.000,44.000 C10.000,34.611 17.611,27.000 27.000,27.000 Z"/>
<path fill-rule="evenodd"  fill="rgb(47, 64, 80)"
 d="M34.450,45.722 C34.079,45.071 33.578,44.563 32.945,44.200 C32.507,43.943 31.874,43.704 31.048,43.490 C31.819,43.222 32.438,42.883 32.909,42.473 C33.377,42.063 33.737,41.591 33.987,41.055 C34.236,40.521 34.362,39.955 34.362,39.359 C34.362,38.540 34.126,37.787 33.655,37.101 C33.182,36.414 32.509,35.888 31.632,35.522 C31.124,35.309 30.493,35.166 29.764,35.076 L29.764,32.002 L27.294,32.002 L27.294,34.972 L25.706,34.972 L25.706,32.002 L23.235,32.002 L23.235,34.972 L17.991,34.972 L17.991,37.470 L18.686,37.470 C19.149,37.470 19.464,37.513 19.629,37.599 C19.792,37.685 19.909,37.802 19.976,37.949 C20.045,38.095 20.077,38.436 20.077,38.971 L20.077,49.041 C20.077,49.568 20.043,49.907 19.976,50.057 C19.909,50.209 19.794,50.325 19.629,50.407 C19.464,50.488 19.149,50.531 18.686,50.531 L17.991,50.531 L17.991,53.029 L23.235,53.029 L23.235,55.998 L25.704,55.998 L25.704,53.029 L27.239,53.029 C27.256,53.029 27.274,53.029 27.292,53.029 L27.292,55.998 L29.763,55.998 L29.763,52.882 C30.560,52.776 31.230,52.614 31.766,52.394 C32.797,51.971 33.596,51.357 34.160,50.549 C34.724,49.743 35.007,48.860 35.007,47.901 C35.007,47.100 34.820,46.373 34.450,45.722 ZM24.443,37.884 L26.378,37.884 C27.509,37.884 28.293,37.956 28.732,38.098 C29.170,38.241 29.505,38.481 29.738,38.816 C29.969,39.154 30.086,39.559 30.086,40.035 C30.086,40.492 29.964,40.895 29.718,41.244 C29.474,41.594 29.109,41.856 28.624,42.028 C28.139,42.201 27.391,42.287 26.378,42.287 L24.443,42.287 L24.443,37.884 ZM29.910,49.042 C29.564,49.490 29.145,49.786 28.653,49.929 C28.160,50.071 27.541,50.143 26.792,50.143 L25.504,50.143 C25.074,50.143 24.812,50.119 24.715,50.072 C24.618,50.024 24.549,49.942 24.506,49.820 C24.471,49.724 24.451,49.403 24.442,48.848 L24.442,44.940 L26.726,44.940 C27.728,44.940 28.473,45.035 28.961,45.224 C29.449,45.413 29.815,45.695 30.059,46.066 C30.303,46.438 30.425,46.891 30.425,47.426 C30.427,48.054 30.254,48.594 29.910,49.042 Z"/>
</svg>
