<svg
 xmlns="http://www.w3.org/2000/svg"
 xmlns:xlink="http://www.w3.org/1999/xlink"
 width="37px" height="37px">
<path fill-rule="evenodd"
 d="M36.215,26.615 L0.786,26.615 C0.317,26.615 -0.000,26.305 -0.000,25.830 L-0.000,0.785 C-0.000,0.317 0.317,-0.000 0.786,-0.000 L36.222,-0.000 C36.691,-0.000 37.008,0.317 37.000,0.785 L37.000,25.830 C37.000,26.222 36.691,26.615 36.215,26.615 ZM35.437,1.578 L1.579,1.578 L1.579,25.037 L35.429,25.037 L35.437,25.037 L35.437,1.578 ZM28.987,12.197 C28.421,12.197 27.899,12.016 27.484,11.714 L21.827,16.072 C21.918,16.336 21.971,16.623 21.971,16.925 C22.046,18.345 20.868,19.448 19.448,19.448 C18.308,19.448 17.371,18.738 17.046,17.718 L10.498,17.718 C10.158,18.730 9.169,19.448 8.028,19.448 C6.616,19.448 5.513,18.345 5.506,16.918 C5.506,15.498 6.609,14.395 8.028,14.395 C9.169,14.395 10.158,15.105 10.498,16.125 L17.039,16.125 C17.363,15.113 18.300,14.395 19.440,14.395 C19.969,14.395 20.452,14.554 20.853,14.818 L26.570,10.422 C26.502,10.188 26.464,9.939 26.464,9.675 C26.464,8.255 27.567,7.152 28.987,7.152 C30.407,7.152 31.510,8.255 31.510,9.675 C31.585,11.095 30.407,12.197 28.987,12.197 ZM8.028,15.981 C7.477,15.981 7.084,16.382 7.084,16.925 C7.084,17.477 7.477,17.869 8.028,17.869 C8.580,17.869 9.056,17.477 9.056,16.925 C9.056,16.374 8.580,15.981 8.028,15.981 ZM19.448,15.981 C18.897,15.981 18.504,16.382 18.504,16.925 C18.504,17.477 18.897,17.869 19.448,17.869 C19.999,17.869 20.392,17.477 20.392,16.925 C20.392,16.374 19.999,15.981 19.448,15.981 ZM28.995,8.738 C28.443,8.738 28.050,9.131 28.050,9.683 C28.050,10.234 28.443,10.627 28.995,10.627 C29.546,10.627 29.939,10.234 29.939,9.683 C29.939,9.131 29.546,8.738 28.995,8.738 ZM12.756,28.579 C12.915,28.337 13.149,28.103 13.466,28.103 L23.466,28.103 C23.783,28.103 24.017,28.261 24.176,28.579 L27.794,35.822 C27.952,36.056 27.869,36.373 27.794,36.607 C27.718,36.841 27.401,37.000 27.167,37.000 L9.841,37.000 C9.607,37.000 9.290,36.841 9.131,36.607 C8.973,36.373 8.973,36.056 9.131,35.822 L12.756,28.579 ZM25.898,35.429 L23.066,29.757 L13.935,29.757 L11.102,35.429 L25.898,35.429 Z"/>
</svg>
