<svg
 xmlns="http://www.w3.org/2000/svg"
 xmlns:xlink="http://www.w3.org/1999/xlink"
 width="56px" height="54px">
<path fill-rule="evenodd" 
 d="M53.874,45.061 L34.357,45.061 L34.357,52.148 L42.785,52.148 C43.279,52.148 43.679,52.562 43.679,53.074 C43.679,53.585 43.279,54.000 42.785,54.000 L13.215,54.000 C12.721,54.000 12.321,53.585 12.321,53.074 C12.321,52.562 12.721,52.148 13.215,52.148 L21.643,52.148 L21.643,45.061 L2.126,45.061 C0.953,45.061 0.000,44.073 0.000,42.858 L0.000,2.203 C0.000,0.988 0.953,-0.000 2.126,-0.000 L53.874,-0.000 C55.046,-0.000 56.000,0.988 56.000,2.203 L56.000,42.858 C56.000,44.073 55.046,45.061 53.874,45.061 ZM23.430,52.148 L32.570,52.148 L32.570,45.061 L23.430,45.061 L23.430,52.148 ZM54.213,2.203 C54.213,2.013 54.058,1.852 53.874,1.852 L2.126,1.852 C1.942,1.852 1.787,2.013 1.787,2.203 L1.787,42.858 C1.787,43.048 1.942,43.208 2.126,43.208 L53.874,43.208 C54.058,43.208 54.213,43.048 54.213,42.858 L54.213,2.203 ZM51.410,37.525 L4.590,37.525 C4.096,37.525 3.696,37.110 3.696,36.599 C3.696,36.087 4.096,35.672 4.590,35.672 L51.410,35.672 C51.904,35.672 52.304,36.087 52.304,36.599 C52.304,37.110 51.904,37.525 51.410,37.525 ZM42.894,32.585 L38.128,32.585 C37.634,32.585 37.234,32.170 37.234,31.659 L37.234,22.484 C37.234,21.973 37.634,21.558 38.128,21.558 L42.894,21.558 C43.387,21.558 43.787,21.973 43.787,22.484 L43.787,31.659 C43.787,32.170 43.387,32.585 42.894,32.585 ZM42.000,23.411 L39.021,23.411 L39.021,30.733 L42.000,30.733 L42.000,23.411 ZM34.553,32.585 L29.787,32.585 C29.294,32.585 28.894,32.170 28.894,31.659 L28.894,9.697 C28.894,9.185 29.294,8.771 29.787,8.771 L34.553,8.771 C35.047,8.771 35.447,9.185 35.447,9.697 L35.447,31.659 C35.447,32.170 35.047,32.585 34.553,32.585 ZM33.659,10.623 L30.681,10.623 L30.681,30.733 L33.659,30.733 L33.659,10.623 ZM26.213,32.585 L21.447,32.585 C20.953,32.585 20.553,32.170 20.553,31.659 L20.553,13.840 C20.553,13.329 20.953,12.914 21.447,12.914 L26.213,12.914 C26.706,12.914 27.106,13.329 27.106,13.840 L27.106,31.659 C27.106,32.170 26.706,32.585 26.213,32.585 ZM25.319,14.766 L22.340,14.766 L22.340,30.733 L25.319,30.733 L25.319,14.766 ZM17.872,32.585 L13.106,32.585 C12.613,32.585 12.213,32.170 12.213,31.659 L12.213,18.222 C12.213,17.711 12.613,17.296 13.106,17.296 L17.872,17.296 C18.366,17.296 18.766,17.711 18.766,18.222 L18.766,31.659 C18.766,32.170 18.366,32.585 17.872,32.585 ZM16.979,19.148 L14.000,19.148 L14.000,30.733 L16.979,30.733 L16.979,19.148 Z"/>
</svg>
