<svg
 xmlns="http://www.w3.org/2000/svg"
 xmlns:xlink="http://www.w3.org/1999/xlink"
 width="35px" height="35px">
<path fill-rule="evenodd" 
 d="M35.000,27.417 C35.000,31.598 31.598,35.000 27.417,35.000 C25.998,35.000 24.674,34.601 23.537,33.921 C21.600,34.634 19.571,35.000 17.500,35.000 C7.850,35.000 0.000,27.149 0.000,17.500 C0.000,7.850 7.850,0.000 17.500,0.000 C27.150,0.000 35.000,7.850 35.000,17.500 C35.000,19.571 34.634,21.600 33.921,23.537 C34.602,24.674 35.000,25.998 35.000,27.417 ZM17.500,1.167 C8.494,1.167 1.167,8.494 1.167,17.500 C1.167,26.506 8.494,33.833 17.500,33.833 C19.167,33.833 20.806,33.582 22.385,33.086 C22.332,33.039 22.287,32.986 22.237,32.938 C22.136,32.844 22.038,32.748 21.943,32.649 C21.854,32.556 21.768,32.461 21.684,32.365 C21.606,32.273 21.530,32.181 21.455,32.086 C21.370,31.977 21.287,31.869 21.208,31.756 C21.142,31.663 21.081,31.567 21.020,31.470 C20.945,31.353 20.871,31.235 20.803,31.114 C20.746,31.011 20.694,30.906 20.641,30.801 C20.581,30.680 20.519,30.560 20.466,30.437 C20.414,30.319 20.370,30.197 20.324,30.076 C20.281,29.960 20.235,29.845 20.197,29.727 C20.151,29.586 20.116,29.442 20.079,29.297 C20.053,29.192 20.021,29.090 19.998,28.983 C19.962,28.812 19.938,28.636 19.914,28.460 C19.902,28.377 19.885,28.296 19.876,28.212 C19.848,27.950 19.833,27.685 19.833,27.417 C19.833,23.235 23.235,19.833 27.417,19.833 C27.686,19.833 27.950,19.849 28.211,19.876 C28.294,19.884 28.375,19.902 28.457,19.913 C28.634,19.938 28.811,19.962 28.984,19.999 C29.089,20.021 29.190,20.052 29.294,20.078 C29.439,20.116 29.585,20.151 29.727,20.197 C29.844,20.234 29.957,20.280 30.072,20.323 C30.195,20.369 30.319,20.414 30.438,20.466 C30.560,20.519 30.679,20.580 30.798,20.640 C30.904,20.693 31.011,20.745 31.115,20.803 C31.235,20.871 31.351,20.944 31.467,21.017 C31.566,21.080 31.663,21.142 31.758,21.209 C31.869,21.287 31.977,21.369 32.083,21.452 C32.180,21.527 32.275,21.605 32.367,21.685 C32.463,21.768 32.556,21.852 32.647,21.940 C32.749,22.037 32.846,22.137 32.942,22.239 C32.989,22.289 33.041,22.334 33.086,22.385 C33.583,20.806 33.833,19.167 33.833,17.500 C33.833,8.494 26.506,1.167 17.500,1.167 ZM32.777,23.900 C32.637,23.687 32.486,23.484 32.324,23.292 C32.295,23.257 32.262,23.225 32.231,23.190 C32.104,23.045 31.971,22.906 31.832,22.773 C31.771,22.716 31.708,22.659 31.644,22.603 C31.525,22.497 31.401,22.398 31.275,22.302 C31.206,22.250 31.139,22.196 31.068,22.147 C30.897,22.028 30.720,21.918 30.539,21.817 C30.490,21.789 30.441,21.763 30.392,21.737 C30.209,21.641 30.021,21.554 29.829,21.475 C29.754,21.445 29.676,21.419 29.599,21.391 C29.445,21.335 29.290,21.285 29.133,21.241 C29.051,21.217 28.968,21.197 28.884,21.177 C28.719,21.138 28.551,21.107 28.381,21.081 C28.307,21.070 28.233,21.055 28.158,21.047 C27.914,21.018 27.666,21.000 27.417,21.000 C23.879,21.000 21.000,23.879 21.000,27.417 C21.000,27.666 21.018,27.914 21.046,28.158 C21.055,28.233 21.069,28.308 21.081,28.381 C21.106,28.551 21.137,28.719 21.176,28.885 C21.195,28.969 21.217,29.051 21.240,29.133 C21.283,29.290 21.335,29.446 21.390,29.600 C21.418,29.676 21.444,29.754 21.474,29.829 C21.552,30.022 21.641,30.210 21.737,30.394 C21.763,30.442 21.789,30.490 21.815,30.538 C21.916,30.719 22.027,30.897 22.147,31.068 C22.196,31.139 22.250,31.206 22.301,31.275 C22.397,31.401 22.497,31.525 22.602,31.644 C22.657,31.708 22.714,31.771 22.772,31.832 C22.905,31.971 23.043,32.104 23.189,32.232 C23.223,32.262 23.256,32.294 23.291,32.324 C23.484,32.486 23.686,32.637 23.900,32.777 C24.911,33.443 26.118,33.833 27.417,33.833 C30.955,33.833 33.833,30.955 33.833,27.417 C33.833,26.118 33.443,24.911 32.777,23.900 ZM27.771,30.626 C27.677,30.759 27.533,30.848 27.372,30.870 C27.345,30.874 27.318,30.876 27.292,30.876 C27.158,30.876 27.027,30.829 26.922,30.743 L24.130,28.451 C23.881,28.247 23.844,27.879 24.049,27.630 C24.253,27.382 24.621,27.345 24.870,27.550 L27.173,29.440 L30.438,24.750 C30.622,24.485 30.985,24.419 31.250,24.605 C31.515,24.789 31.579,25.153 31.396,25.417 L27.771,30.626 ZM30.333,18.013 L29.750,18.013 C29.428,18.013 29.167,17.752 29.167,17.429 C29.167,17.107 29.428,16.846 29.750,16.846 L30.333,16.846 C30.655,16.846 30.917,17.107 30.917,17.429 C30.917,17.752 30.655,18.013 30.333,18.013 ZM26.574,9.179 C26.461,9.293 26.311,9.350 26.162,9.350 C26.013,9.350 25.863,9.294 25.750,9.179 C25.521,8.951 25.521,8.583 25.750,8.354 L26.162,7.942 C26.390,7.714 26.759,7.714 26.987,7.942 C27.215,8.170 27.215,8.539 26.987,8.767 L26.574,9.179 ZM17.500,19.763 C16.442,19.763 15.556,19.050 15.272,18.083 L11.083,18.083 C10.761,18.083 10.500,17.823 10.500,17.500 C10.500,17.177 10.761,16.917 11.083,16.917 L15.227,16.917 C15.419,16.066 16.077,15.397 16.917,15.179 L16.917,9.263 C16.917,8.940 17.178,8.679 17.500,8.679 C17.822,8.679 18.083,8.940 18.083,9.263 L18.083,15.179 C19.087,15.440 19.833,16.345 19.833,17.429 C19.833,18.716 18.787,19.763 17.500,19.763 ZM17.500,16.263 C16.857,16.263 16.333,16.786 16.333,17.429 C16.333,18.073 16.857,18.596 17.500,18.596 C18.143,18.596 18.667,18.073 18.667,17.429 C18.667,16.786 18.143,16.263 17.500,16.263 ZM17.500,5.763 C17.178,5.763 16.917,5.502 16.917,5.179 L16.917,4.596 C16.917,4.273 17.178,4.013 17.500,4.013 C17.822,4.013 18.083,4.273 18.083,4.596 L18.083,5.179 C18.083,5.502 17.822,5.763 17.500,5.763 ZM8.838,26.916 C8.724,27.030 8.575,27.087 8.426,27.087 C8.276,27.087 8.127,27.030 8.013,26.916 C7.785,26.688 7.785,26.319 8.013,26.091 L8.426,25.679 C8.653,25.451 9.022,25.451 9.250,25.679 C9.479,25.907 9.479,26.276 9.250,26.504 L8.838,26.916 ZM8.838,9.350 C8.689,9.350 8.539,9.293 8.426,9.179 L8.013,8.767 C7.785,8.539 7.785,8.170 8.013,7.942 C8.241,7.714 8.610,7.714 8.838,7.942 L9.250,8.354 C9.479,8.583 9.479,8.951 9.250,9.179 C9.137,9.293 8.987,9.350 8.838,9.350 ZM17.500,29.096 C17.822,29.096 18.083,29.357 18.083,29.680 L18.083,30.263 C18.083,30.585 17.822,30.846 17.500,30.846 C17.178,30.846 16.917,30.585 16.917,30.263 L16.917,29.680 C16.917,29.357 17.178,29.096 17.500,29.096 ZM5.250,18.013 L4.667,18.013 C4.345,18.013 4.083,17.752 4.083,17.429 C4.083,17.107 4.345,16.846 4.667,16.846 L5.250,16.846 C5.572,16.846 5.833,17.107 5.833,17.429 C5.833,17.752 5.572,18.013 5.250,18.013 Z"/>
</svg>
