<svg
 xmlns="http://www.w3.org/2000/svg"
 xmlns:xlink="http://www.w3.org/1999/xlink"
 width="64px" height="20px">
<path fill-rule="evenodd"  fill="rgb(160, 176, 185)"
 d="M59.786,0.351 L55.767,0.351 C54.521,0.351 53.590,0.696 53.042,1.959 L45.318,19.717 L50.781,19.717 C50.781,19.717 51.672,17.329 51.873,16.807 C52.472,16.807 57.779,16.815 58.537,16.815 C58.693,17.491 59.170,19.717 59.170,19.717 L63.997,19.717 L59.786,0.351 ZM53.371,12.841 C53.801,11.727 55.443,7.425 55.443,7.425 C55.416,7.478 55.869,6.304 56.137,5.575 L56.488,7.246 C56.488,7.246 57.484,11.871 57.693,12.841 L53.371,12.841 ZM45.685,13.377 C45.646,17.401 42.094,19.998 36.625,19.998 C34.293,19.975 32.047,19.506 30.829,18.966 L31.561,14.628 L32.231,14.937 C33.940,15.660 35.047,15.953 37.130,15.953 C38.625,15.953 40.226,15.359 40.241,14.061 C40.250,13.212 39.571,12.606 37.545,11.658 C35.570,10.730 32.955,9.176 32.988,6.393 C33.017,2.626 36.639,-0.002 41.781,-0.002 C43.796,-0.002 45.411,0.419 46.441,0.811 L45.738,5.011 L45.267,4.787 C44.309,4.396 43.078,4.019 41.374,4.046 C39.338,4.046 38.392,4.907 38.392,5.712 C38.382,6.619 39.495,7.217 41.315,8.114 C44.319,9.495 45.706,11.174 45.685,13.377 ZM-0.003,0.552 L0.064,0.164 L8.130,0.164 C9.218,0.206 10.094,0.557 10.396,1.738 L12.150,10.300 C10.427,5.822 6.274,2.095 -0.003,0.552 ZM23.520,0.347 L15.328,19.688 L9.824,19.696 L5.164,3.538 C8.513,5.714 11.366,9.166 12.371,11.568 L12.914,13.564 L18.009,0.350 L23.520,0.347 L23.520,0.347 ZM25.623,0.332 L30.828,0.332 L27.573,19.709 L22.371,19.709 L25.623,0.332 Z"/>
</svg>
