<svg
 xmlns="http://www.w3.org/2000/svg"
 xmlns:xlink="http://www.w3.org/1999/xlink"
 width="38px" height="38px">
<path fill-rule="evenodd" 
 d="M19.000,0.001 C8.504,0.001 -0.005,8.543 -0.005,19.080 C-0.005,28.530 6.847,36.355 15.831,37.872 L15.831,23.060 L11.246,23.060 L11.246,17.730 L15.831,17.730 L15.831,13.800 C15.831,9.239 18.605,6.754 22.658,6.754 C24.598,6.754 26.267,6.900 26.752,6.963 L26.752,11.730 L23.940,11.731 C21.737,11.731 21.312,12.782 21.312,14.325 L21.312,17.727 L26.569,17.727 L25.884,23.056 L21.312,23.056 L21.312,37.999 C30.715,36.851 38.004,28.825 38.004,19.074 C38.004,8.543 29.495,0.001 19.000,0.001 Z"/>
</svg>
