<svg
 xmlns="http://www.w3.org/2000/svg"
 xmlns:xlink="http://www.w3.org/1999/xlink"
 width="38px" height="38px">
<path fill-rule="evenodd" 
 d="M18.999,0.004 C8.525,0.004 0.004,8.525 0.004,18.999 C0.004,29.473 8.525,37.994 18.999,37.994 C29.473,37.994 37.994,29.473 37.994,18.999 C37.994,8.525 29.473,0.004 18.999,0.004 ZM27.473,14.652 C27.481,14.840 27.486,15.030 27.486,15.220 C27.486,20.997 23.089,27.658 15.046,27.658 C12.577,27.658 10.278,26.935 8.344,25.694 C8.686,25.734 9.034,25.755 9.387,25.755 C11.436,25.755 13.320,25.056 14.817,23.884 C12.904,23.848 11.289,22.584 10.733,20.847 C10.999,20.899 11.274,20.926 11.555,20.926 C11.953,20.926 12.340,20.872 12.707,20.773 C10.707,20.371 9.200,18.604 9.200,16.487 C9.200,16.468 9.200,16.449 9.201,16.431 C9.790,16.758 10.464,16.956 11.180,16.978 C10.008,16.195 9.236,14.856 9.236,13.339 C9.236,12.538 9.451,11.786 9.828,11.141 C11.983,13.786 15.206,15.526 18.838,15.710 C18.763,15.389 18.726,15.056 18.726,14.713 C18.726,12.299 20.683,10.341 23.098,10.341 C24.355,10.341 25.491,10.872 26.288,11.721 C27.285,11.525 28.220,11.163 29.066,10.660 C28.738,11.682 28.046,12.538 27.142,13.079 C28.028,12.974 28.871,12.740 29.653,12.392 C29.069,13.267 28.327,14.037 27.473,14.652 Z"/>
</svg>
