<svg
 xmlns="http://www.w3.org/2000/svg"
 xmlns:xlink="http://www.w3.org/1999/xlink"
 width="25px" height="30px">
<path fill-rule="evenodd"  fill="rgb(160, 176, 185)"
 d="M21.685,23.195 C19.568,26.197 16.621,28.506 13.164,29.873 C12.950,29.958 12.725,30.000 12.500,30.000 C12.275,30.000 12.050,29.958 11.836,29.873 C8.379,28.506 5.432,26.197 3.315,23.195 C1.146,20.120 0.000,16.517 0.000,12.776 L0.000,4.691 C0.000,3.939 0.518,3.266 1.260,3.054 L11.307,0.175 C12.088,-0.049 12.913,-0.049 13.693,0.175 L23.740,3.054 C24.482,3.266 25.000,3.939 25.000,4.691 L25.000,12.776 C25.000,16.517 23.854,20.120 21.685,23.195 ZM23.595,4.691 C23.595,4.540 23.491,4.406 23.343,4.363 L13.295,1.484 C13.035,1.410 12.767,1.372 12.500,1.372 C12.233,1.372 11.965,1.410 11.705,1.484 L1.657,4.363 C1.509,4.406 1.405,4.540 1.405,4.691 L1.405,12.776 C1.405,16.241 2.467,19.576 4.474,22.423 C6.435,25.203 9.164,27.342 12.366,28.608 C12.452,28.642 12.548,28.642 12.635,28.608 C15.836,27.342 18.565,25.203 20.526,22.423 C22.533,19.576 23.595,16.241 23.595,12.776 L23.595,4.691 ZM12.988,25.718 C12.835,25.796 12.668,25.835 12.500,25.835 C12.332,25.835 12.165,25.796 12.012,25.718 C9.903,24.645 8.059,23.069 6.679,21.160 C4.899,18.697 3.958,15.798 3.958,12.776 L3.958,7.055 C3.958,6.605 4.269,6.201 4.714,6.073 L12.202,3.927 C12.397,3.871 12.603,3.871 12.798,3.927 L20.287,6.073 C20.732,6.201 21.042,6.604 21.042,7.055 L21.042,12.776 C21.042,15.798 20.101,18.697 18.321,21.160 C16.941,23.069 15.097,24.645 12.988,25.718 ZM19.637,7.311 L12.500,5.266 L5.363,7.311 L5.363,12.776 C5.363,15.516 6.216,18.144 7.829,20.375 C9.045,22.057 10.657,23.454 12.500,24.424 C14.343,23.454 15.955,22.057 17.171,20.375 C18.784,18.144 19.637,15.516 19.637,12.776 L19.637,7.311 Z"/>
<path fill-rule="evenodd"  fill="rgb(160, 176, 185)"
 d="M15.503,13.634 L15.326,13.634 L15.326,12.813 C15.326,11.296 14.107,10.027 12.583,10.000 C12.542,9.999 12.458,9.999 12.417,10.000 C10.893,10.027 9.674,11.296 9.674,12.813 L9.674,13.634 L9.497,13.634 C9.223,13.634 9.000,13.913 9.000,14.258 L9.000,18.374 C9.000,18.718 9.223,19.000 9.497,19.000 L15.503,19.000 C15.777,19.000 16.000,18.718 16.000,18.374 L16.000,14.258 C16.000,13.913 15.777,13.634 15.503,13.634 ZM13.063,16.312 L13.063,17.556 C13.063,17.698 12.942,17.819 12.798,17.819 L12.202,17.819 C12.058,17.819 11.937,17.698 11.937,17.556 L11.937,16.312 C11.797,16.176 11.716,15.988 11.716,15.779 C11.716,15.385 12.024,15.046 12.417,15.030 C12.458,15.029 12.542,15.029 12.583,15.030 C12.976,15.046 13.284,15.385 13.284,15.779 C13.284,15.988 13.203,16.176 13.063,16.312 ZM14.156,13.634 L12.583,13.634 L12.417,13.634 L10.844,13.634 L10.844,12.813 C10.844,11.909 11.587,11.161 12.500,11.161 C13.413,11.161 14.156,11.909 14.156,12.813 L14.156,13.634 Z"/>
</svg>
